<?xml version="1.0" encoding="UTF-8" standalone="no"?>
<!DOCTYPE svg PUBLIC "-//W3C//DTD SVG 1.1//EN"
 "http://www.w3.org/Graphics/SVG/1.1/DTD/svg11.dtd">
<!-- Generated by graphviz version 2.40.1 (20161225.0304)
 -->
<!-- Title: G Pages: 1 -->
<svg width="128pt" height="305pt"
 viewBox="0.00 0.00 128.00 305.00" xmlns="http://www.w3.org/2000/svg" xmlns:xlink="http://www.w3.org/1999/xlink">
<g id="graph0" class="graph" transform="scale(1 1) rotate(0) translate(4 301)">
<title>G</title>
<polygon fill="#ffffff" stroke="transparent" points="-4,4 -4,-301 124,-301 124,4 -4,4"/>
<!-- github -->
<g id="node1" class="node">
<title>github</title>
<g id="a_node1"><a xlink:href="https://tilnow.github.io/github.html" xlink:title="github">
<polygon fill="none" stroke="#0000ff" points="54,-297 0,-297 0,-261 54,-261 54,-297"/>
<text text-anchor="middle" x="27" y="-275.3" font-family="Times,serif" font-size="14.00" fill="#000000">github</text>
</a>
</g>
</g>
<!-- jekyll -->
<g id="node3" class="node">
<title>jekyll</title>
<g id="a_node3"><a xlink:href="https://tilnow.github.io/jekyll.html" xlink:title="jekyll">
<polygon fill="none" stroke="#0000ff" points="54,-210 0,-210 0,-174 54,-174 54,-210"/>
<text text-anchor="middle" x="27" y="-188.3" font-family="Times,serif" font-size="14.00" fill="#000000">jekyll</text>
</a>
</g>
</g>
<!-- github&#45;&gt;jekyll -->
<g id="edge1" class="edge">
<title>github&#45;&gt;jekyll</title>
<path fill="none" stroke="#ff0000" d="M27,-260.9735C27,-249.1918 27,-233.5607 27,-220.1581"/>
<polygon fill="#ff0000" stroke="#ff0000" points="30.5001,-220.0033 27,-210.0034 23.5001,-220.0034 30.5001,-220.0033"/>
<text text-anchor="middle" x="50" y="-231.8" font-family="Times,serif" font-size="14.00" fill="#000000">md files</text>
</g>
<!-- netlify -->
<g id="node2" class="node">
<title>netlify</title>
<g id="a_node2"><a xlink:href="https://tilnow.github.io/netlify.html" xlink:title="netlify">
<polygon fill="none" stroke="#00ff00" points="54,-123 0,-123 0,-87 54,-87 54,-123"/>
<text text-anchor="middle" x="27" y="-101.3" font-family="Times,serif" font-size="14.00" fill="#000000">netlify</text>
</a>
</g>
</g>
<!-- web -->
<g id="node4" class="node">
<title>web</title>
<ellipse fill="none" stroke="#000000" cx="27" cy="-18" rx="27" ry="18"/>
<text text-anchor="middle" x="27" y="-14.3" font-family="Times,serif" font-size="14.00" fill="#000000">web</text>
</g>
<!-- netlify&#45;&gt;web -->
<g id="edge3" class="edge">
<title>netlify&#45;&gt;web</title>
<g id="a_edge3"><a xlink:href="https://tilnow.github.io/website.html" xlink:title="our website">
<path fill="none" stroke="#ff0000" d="M27,-86.9735C27,-75.1918 27,-59.5607 27,-46.1581"/>
<polygon fill="#ff0000" stroke="#ff0000" points="30.5001,-46.0033 27,-36.0034 23.5001,-46.0034 30.5001,-46.0033"/>
</a>
</g>
<g id="a_edge3&#45;label"><a xlink:href="https://tilnow.github.io/website.html" xlink:title="our website">
<text text-anchor="middle" x="59" y="-57.8" font-family="Times,serif" font-size="14.00" fill="#000000">our website</text>
</a>
</g>
</g>
<!-- jekyll&#45;&gt;netlify -->
<g id="edge2" class="edge">
<title>jekyll&#45;&gt;netlify</title>
<path fill="none" stroke="#ff0000" d="M27,-173.9735C27,-162.1918 27,-146.5607 27,-133.1581"/>
<polygon fill="#ff0000" stroke="#ff0000" points="30.5001,-133.0033 27,-123.0034 23.5001,-133.0034 30.5001,-133.0033"/>
<text text-anchor="middle" x="73.5" y="-144.8" font-family="Times,serif" font-size="14.00" fill="#000000">rendered website</text>
</g>
</g>
</svg>
