<?xml version="1.0" encoding="UTF-8" standalone="no"?>
<!DOCTYPE svg PUBLIC "-//W3C//DTD SVG 1.1//EN"
 "http://www.w3.org/Graphics/SVG/1.1/DTD/svg11.dtd">
<!-- Generated by graphviz version 2.40.1 (20161225.0304)
 -->
<!-- Title: G Pages: 1 -->
<svg width="1620pt" height="926pt"
 viewBox="0.00 0.00 1620.30 925.92" xmlns="http://www.w3.org/2000/svg" xmlns:xlink="http://www.w3.org/1999/xlink">
<g id="graph0" class="graph" transform="scale(1 1) rotate(0) translate(4 921.9242)">
<title>G</title>
<polygon fill="#ffffff" stroke="transparent" points="-4,4 -4,-921.9242 1616.2953,-921.9242 1616.2953,4 -4,4"/>
<text text-anchor="middle" x="806.1476" y="-902.7242" font-family="Times,serif" font-size="14.00" fill="#000000">map of yak collective IT infrastructure (work in progress)</text>
<g id="clust1" class="cluster">
<title>cluster_0</title>
<polygon fill="none" stroke="#000000" points="707.2953,-776.1841 707.2953,-851.1841 902.2953,-851.1841 902.2953,-776.1841 707.2953,-776.1841"/>
<text text-anchor="middle" x="804.7953" y="-835.9841" font-family="Times,serif" font-size="14.00" fill="#000000">not sure what connection is (yet)</text>
</g>
<g id="clust2" class="cluster">
<title>cluster_1</title>
<polygon fill="none" stroke="#000000" points="910.2953,-767.3048 910.2953,-875.0634 1314.2953,-875.0634 1314.2953,-767.3048 910.2953,-767.3048"/>
<text text-anchor="middle" x="1112.2953" y="-859.8634" font-family="Times,serif" font-size="14.00" fill="#000000">unconnected and manually managed</text>
<text text-anchor="middle" x="1112.2953" y="-844.8634" font-family="Times,serif" font-size="14.00" fill="#000000">not by members</text>
</g>
<g id="clust3" class="cluster">
<title>cluster_2</title>
<polygon fill="none" stroke="#000000" points="1322.2953,-756.3871 1322.2953,-870.9811 1604.2953,-870.9811 1604.2953,-756.3871 1322.2953,-756.3871"/>
<text text-anchor="middle" x="1463.2953" y="-855.7811" font-family="Times,serif" font-size="14.00" fill="#000000">in next version or two should be connected</text>
</g>
<g id="clust4" class="cluster">
<title>cluster_3</title>
<polygon fill="none" stroke="#000000" points="124.2953,-740.444 124.2953,-886.9242 699.2953,-886.9242 699.2953,-740.444 124.2953,-740.444"/>
<text text-anchor="middle" x="411.7953" y="-871.7242" font-family="Times,serif" font-size="14.00" fill="#000000">members&#39; web presence</text>
</g>
<!-- calandar -->
<g id="node1" class="node">
<title>calandar</title>
<g id="a_node1"><a xlink:href="https://tilnow.github.io/calandar.html" xlink:title="google\ncalandar">
<ellipse fill="none" stroke="#00ff00" cx="554.2953" cy="-601.4453" rx="43.6951" ry="43.6951"/>
<ellipse fill="none" stroke="#00ff00" cx="554.2953" cy="-601.4453" rx="47.6818" ry="47.6818"/>
<text text-anchor="middle" x="554.2953" y="-605.2453" font-family="Times,serif" font-size="14.00" fill="#000000">google</text>
<text text-anchor="middle" x="554.2953" y="-590.2453" font-family="Times,serif" font-size="14.00" fill="#000000">calandar</text>
</a>
</g>
</g>
<!-- carl -->
<g id="node10" class="node">
<title>carl</title>
<g id="a_node10"><a xlink:href="https://tilnow.github.io/carl.html" xlink:title="Carl">
<polygon fill="none" stroke="#00ff00" points="556.9778,-380.8969 558.7539,-380.9954 560.5116,-381.1429 562.2437,-381.3389 563.9433,-381.5829 565.6035,-381.8742 567.2178,-382.212 568.7799,-382.5954 570.2838,-383.0234 571.724,-383.4947 573.0953,-384.0082 574.3929,-384.5623 575.6125,-385.1555 576.7502,-385.7863 577.8027,-386.4529 578.767,-387.1535 579.6408,-387.8861 580.4222,-388.6487 581.1098,-389.4393 581.7028,-390.2557 582.2008,-391.0957 582.6038,-391.9569 582.9125,-392.8369 583.1277,-393.7335 583.2511,-394.6441 583.2842,-395.5662 583.2295,-396.4972 583.0892,-397.4348 582.8664,-398.3762 582.5639,-399.3189 582.1853,-400.2603 581.7339,-401.1978 581.2134,-402.1289 580.6277,-403.051 579.9806,-403.9616 579.2759,-404.8581 578.5178,-405.7382 577.7101,-406.5994 576.8566,-407.4393 575.9612,-408.2557 575.0275,-409.0463 574.0592,-409.809 573.0597,-410.5416 572.0321,-411.2422 570.9796,-411.9087 569.9052,-412.5395 568.8113,-413.1328 567.7006,-413.6869 566.5754,-414.2003 565.4376,-414.6717 564.2892,-415.0996 563.1318,-415.4831 561.967,-415.8209 560.7961,-416.1122 559.6203,-416.3562 558.4407,-416.5522 557.2583,-416.6996 556.0739,-416.7982 554.8883,-416.8475 553.7023,-416.8475 552.5167,-416.7982 551.3323,-416.6996 550.1498,-416.5522 548.9702,-416.3562 547.7944,-416.1122 546.6235,-415.8209 545.4587,-415.4831 544.3014,-415.0996 543.1529,-414.6717 542.0152,-414.2003 540.8899,-413.6869 539.7792,-413.1328 538.6854,-412.5395 537.6109,-411.9087 536.5584,-411.2422 535.5309,-410.5416 534.5313,-409.809 533.563,-409.0463 532.6294,-408.2557 531.734,-407.4393 530.8805,-406.5994 530.0727,-405.7382 529.3146,-404.8581 528.61,-403.9616 527.9629,-403.051 527.3771,-402.1289 526.8567,-401.1978 526.4053,-400.2603 526.0266,-399.3189 525.7242,-398.3762 525.5013,-397.4348 525.3611,-396.4972 525.3063,-395.5662 525.3395,-394.6441 525.4628,-393.7335 525.6781,-392.8369 525.9867,-391.9569 526.3898,-391.0957 526.8877,-390.2557 527.4807,-389.4393 528.1684,-388.6487 528.9498,-387.8861 529.8236,-387.1535 530.7879,-386.4529 531.8403,-385.7863 532.9781,-385.1555 534.1976,-384.5623 535.4952,-384.0082 536.8665,-383.4947 538.3067,-383.0234 539.8107,-382.5954 541.3727,-382.212 542.987,-381.8742 544.6472,-381.5829 546.3468,-381.3389 548.079,-381.1429 549.8367,-380.9954 551.6127,-380.8969 553.3999,-380.8475 555.1907,-380.8475 556.9778,-380.8969"/>
<text text-anchor="middle" x="554.2953" y="-395.1475" font-family="Times,serif" font-size="14.00" fill="#000000">Carl</text>
</a>
</g>
</g>
<!-- calandar&#45;&gt;carl -->
<g id="edge17" class="edge">
<title>calandar&#45;&gt;carl</title>
<g id="a_edge17"><a xlink:href="https://tilnow.github.io/calbot.html" xlink:title="calandar yak">
<path fill="none" stroke="#000000" d="M554.2953,-553.4325C554.2953,-514.1141 554.2953,-459.8231 554.2953,-427.1466"/>
<polygon fill="#000000" stroke="#000000" points="557.7954,-426.9464 554.2953,-416.9464 550.7954,-426.9465 557.7954,-426.9464"/>
</a>
</g>
<g id="a_edge17&#45;label"><a xlink:href="https://tilnow.github.io/calbot.html" xlink:title="calandar yak">
<text text-anchor="middle" x="589.2953" y="-487.3019" font-family="Times,serif" font-size="14.00" fill="#000000">calandar yak</text>
</a>
</g>
</g>
<!-- docs -->
<g id="node2" class="node">
<title>docs</title>
<g id="a_node2"><a xlink:href="https://tilnow.github.io/docs.html" xlink:title="google docs">
<ellipse fill="none" stroke="#00ff00" cx="57.2953" cy="-802.1841" rx="53.1055" ry="53.1055"/>
<ellipse fill="none" stroke="#00ff00" cx="57.2953" cy="-802.1841" rx="57.0913" ry="57.0913"/>
<text text-anchor="middle" x="57.2953" y="-798.4841" font-family="Times,serif" font-size="14.00" fill="#000000">google docs</text>
</a>
</g>
</g>
<!-- website -->
<g id="node11" class="node">
<title>website</title>
<g id="a_node11"><a xlink:href="https://tilnow.github.io/website.html" xlink:title="Yakcollective.org">
<ellipse fill="none" stroke="#00ff00" cx="300.2953" cy="-601.4453" rx="73.3899" ry="73.3899"/>
<ellipse fill="none" stroke="#00ff00" cx="300.2953" cy="-601.4453" rx="77.387" ry="77.387"/>
<text text-anchor="middle" x="300.2953" y="-597.7453" font-family="Times,serif" font-size="14.00" fill="#000000">Yakcollective.org</text>
</a>
</g>
</g>
<!-- docs&#45;&gt;website -->
<g id="edge16" class="edge">
<title>docs&#45;&gt;website</title>
<g id="a_edge16"><a xlink:href="https://tilnow.github.io/hostproj.html" xlink:title="host\nprojects">
<path fill="none" stroke="#000000" d="M97.6369,-761.28C105.032,-754.1785 112.7883,-746.9809 120.2953,-740.444 155.0194,-710.207 195.4597,-678.6741 229.2026,-653.3005"/>
<polygon fill="#000000" stroke="#000000" points="231.7251,-655.7839 237.6294,-646.9868 227.5278,-650.1818 231.7251,-655.7839"/>
</a>
</g>
<g id="a_edge16&#45;label"><a xlink:href="https://tilnow.github.io/hostproj.html" xlink:title="host\nprojects">
<text text-anchor="middle" x="188.7953" y="-715.6888" font-family="Times,serif" font-size="14.00" fill="#000000">host</text>
<text text-anchor="middle" x="188.7953" y="-700.6888" font-family="Times,serif" font-size="14.00" fill="#000000">projects</text>
</a>
</g>
</g>
<!-- forms -->
<g id="node3" class="node">
<title>forms</title>
<g id="a_node3"><a xlink:href="https://tilnow.github.io/forms.html" xlink:title="registration\nform">
<ellipse fill="none" stroke="#00ff00" cx="350.2953" cy="-398.8475" rx="55.2986" ry="55.2986"/>
<ellipse fill="none" stroke="#00ff00" cx="350.2953" cy="-398.8475" rx="59.3091" ry="59.3091"/>
<text text-anchor="middle" x="350.2953" y="-402.6475" font-family="Times,serif" font-size="14.00" fill="#000000">registration</text>
<text text-anchor="middle" x="350.2953" y="-387.6475" font-family="Times,serif" font-size="14.00" fill="#000000">form</text>
</a>
</g>
</g>
<!-- discord -->
<g id="node12" class="node">
<title>discord</title>
<g id="a_node12"><a xlink:href="https://tilnow.github.io/discord.html" xlink:title="Discord">
<ellipse fill="none" stroke="#00ff00" cx="484.2953" cy="-231.3466" rx="38.2082" ry="38.2082"/>
<ellipse fill="none" stroke="#00ff00" cx="484.2953" cy="-231.3466" rx="42.1937" ry="42.1937"/>
<text text-anchor="middle" x="484.2953" y="-227.6466" font-family="Times,serif" font-size="14.00" fill="#000000">Discord</text>
</a>
</g>
</g>
<!-- forms&#45;&gt;discord -->
<g id="edge10" class="edge">
<title>forms&#45;&gt;discord</title>
<g id="a_edge10"><a xlink:href="https://tilnow.github.io/invite.html" xlink:title="invite">
<path fill="none" stroke="#000000" d="M369.9797,-342.8249C377.7537,-325.3339 387.8482,-306.7069 400.2953,-291.6932 411.0198,-278.7572 425.1278,-267.215 438.7128,-257.7761"/>
<polygon fill="#000000" stroke="#000000" points="440.7096,-260.6513 447.0688,-252.1772 436.813,-254.836 440.7096,-260.6513"/>
</a>
</g>
<g id="a_edge10&#45;label"><a xlink:href="https://tilnow.github.io/invite.html" xlink:title="invite">
<text text-anchor="middle" x="415.7953" y="-302.9932" font-family="Times,serif" font-size="14.00" fill="#000000">invite</text>
</a>
</g>
</g>
<!-- ifttt -->
<g id="node4" class="node">
<title>ifttt</title>
<g id="a_node4"><a xlink:href="https://tilnow.github.io/ifttt.html" xlink:title="IFTT">
<polygon fill="none" stroke="#00ff00" points="147.1911,-380.8969 149.1084,-380.9954 151.0058,-381.1429 152.8757,-381.3389 154.7105,-381.5829 156.5027,-381.8742 158.2453,-382.212 159.9316,-382.5954 161.5551,-383.0234 163.1098,-383.4947 164.5902,-384.0082 165.9909,-384.5623 167.3075,-385.1555 168.5357,-385.7863 169.6718,-386.4529 170.7128,-387.1535 171.6561,-387.8861 172.4996,-388.6487 173.2419,-389.4393 173.8821,-390.2557 174.4196,-391.0957 174.8547,-391.9569 175.1879,-392.8369 175.4203,-393.7335 175.5534,-394.6441 175.5892,-395.5662 175.5301,-396.4972 175.3787,-397.4348 175.1381,-398.3762 174.8117,-399.3189 174.4029,-400.2603 173.9156,-401.1978 173.3538,-402.1289 172.7215,-403.051 172.0229,-403.9616 171.2622,-404.8581 170.4438,-405.7382 169.5719,-406.5994 168.6505,-407.4393 167.6839,-408.2557 166.676,-409.0463 165.6307,-409.809 164.5517,-410.5416 163.4424,-411.2422 162.3063,-411.9087 161.1464,-412.5395 159.9656,-413.1328 158.7666,-413.6869 157.5518,-414.2003 156.3236,-414.6717 155.0838,-415.0996 153.8344,-415.4831 152.577,-415.8209 151.313,-416.1122 150.0438,-416.3562 148.7704,-416.5522 147.4939,-416.6996 146.2153,-416.7982 144.9354,-416.8475 143.6551,-416.8475 142.3753,-416.7982 141.0967,-416.6996 139.8202,-416.5522 138.5468,-416.3562 137.2775,-416.1122 136.0135,-415.8209 134.7561,-415.4831 133.5067,-415.0996 132.267,-414.6717 131.0387,-414.2003 129.824,-413.6869 128.625,-413.1328 127.4442,-412.5395 126.2843,-411.9087 125.1481,-411.2422 124.0389,-410.5416 122.9598,-409.809 121.9145,-409.0463 120.9066,-408.2557 119.94,-407.4393 119.0187,-406.5994 118.1467,-405.7382 117.3283,-404.8581 116.5677,-403.9616 115.8691,-403.051 115.2368,-402.1289 114.6749,-401.1978 114.1876,-400.2603 113.7789,-399.3189 113.4524,-398.3762 113.2118,-397.4348 113.0604,-396.4972 113.0013,-395.5662 113.0371,-394.6441 113.1702,-393.7335 113.4026,-392.8369 113.7358,-391.9569 114.1709,-391.0957 114.7085,-390.2557 115.3486,-389.4393 116.0909,-388.6487 116.9345,-387.8861 117.8777,-387.1535 118.9187,-386.4529 120.0549,-385.7863 121.283,-385.1555 122.5996,-384.5623 124.0004,-384.0082 125.4807,-383.4947 127.0354,-383.0234 128.6589,-382.5954 130.3452,-382.212 132.0879,-381.8742 133.8801,-381.5829 135.7148,-381.3389 137.5847,-381.1429 139.4822,-380.9954 141.3994,-380.8969 143.3287,-380.8475 145.2619,-380.8475 147.1911,-380.8969"/>
<text text-anchor="middle" x="144.2953" y="-395.1475" font-family="Times,serif" font-size="14.00" fill="#000000">IFTT</text>
</a>
</g>
</g>
<!-- twitter -->
<g id="node13" class="node">
<title>twitter</title>
<g id="a_node13"><a xlink:href="https://tilnow.github.io/twitter.html" xlink:title="Twitter">
<polygon fill="none" stroke="#00ff00" points="147.86,-213.3959 150.2201,-213.4945 152.5558,-213.6419 154.8576,-213.8379 157.1161,-214.0819 159.3222,-214.3732 161.4674,-214.7111 163.5432,-215.0945 165.5417,-215.5225 167.4555,-215.9938 169.2777,-216.5072 171.002,-217.0613 172.6227,-217.6546 174.1345,-218.2854 175.5331,-218.952 176.8145,-219.6525 177.9757,-220.3851 179.014,-221.1478 179.9278,-221.9384 180.7158,-222.7548 181.3775,-223.5947 181.9131,-224.4559 182.3232,-225.336 182.6093,-226.2326 182.7732,-227.1431 182.8173,-228.0652 182.7445,-228.9963 182.5581,-229.9338 182.262,-230.8753 181.8601,-231.8179 181.3569,-232.7593 180.7571,-233.6969 180.0655,-234.628 179.2871,-235.5501 178.4272,-236.4606 177.4909,-237.3572 176.4834,-238.2373 175.41,-239.0985 174.2759,-239.9384 173.086,-240.7548 171.8453,-241.5454 170.5586,-242.3081 169.2303,-243.0407 167.8649,-243.7412 166.4663,-244.4078 165.0385,-245.0386 163.585,-245.6319 162.109,-246.186 160.6137,-246.6994 159.1018,-247.1707 157.5757,-247.5987 156.0377,-247.9821 154.4899,-248.32 152.9339,-248.6113 151.3715,-248.8553 149.804,-249.0513 148.2327,-249.1987 146.6587,-249.2973 145.0833,-249.3466 143.5073,-249.3466 141.9318,-249.2973 140.3579,-249.1987 138.7866,-249.0513 137.219,-248.8553 135.6566,-248.6113 134.1007,-248.32 132.5528,-247.9821 131.0149,-247.5987 129.4888,-247.1707 127.9768,-246.6994 126.4815,-246.186 125.0056,-245.6319 123.5521,-245.0386 122.1242,-244.4078 120.7257,-243.7412 119.3602,-243.0407 118.0319,-242.3081 116.7452,-241.5454 115.5045,-240.7548 114.3147,-239.9384 113.1805,-239.0985 112.1071,-238.2373 111.0997,-237.3572 110.1634,-236.4606 109.3034,-235.5501 108.5251,-234.628 107.8335,-233.6969 107.2336,-232.7593 106.7304,-231.8179 106.3286,-230.8753 106.0324,-229.9338 105.8461,-228.9963 105.7733,-228.0652 105.8174,-227.1431 105.9812,-226.2326 106.2673,-225.336 106.6775,-224.4559 107.213,-223.5947 107.8747,-222.7548 108.6627,-221.9384 109.5765,-221.1478 110.6149,-220.3851 111.776,-219.6525 113.0575,-218.952 114.456,-218.2854 115.9679,-217.6546 117.5885,-217.0613 119.3128,-216.5072 121.1351,-215.9938 123.0489,-215.5225 125.0474,-215.0945 127.1231,-214.7111 129.2683,-214.3732 131.4745,-214.0819 133.733,-213.8379 136.0347,-213.6419 138.3705,-213.4945 140.7306,-213.3959 143.1054,-213.3466 145.4851,-213.3466 147.86,-213.3959"/>
<text text-anchor="middle" x="144.2953" y="-227.6466" font-family="Times,serif" font-size="14.00" fill="#000000">Twitter</text>
</a>
</g>
</g>
<!-- ifttt&#45;&gt;twitter -->
<g id="edge2" class="edge">
<title>ifttt&#45;&gt;twitter</title>
<g id="a_edge2"><a xlink:href="https://tilnow.github.io/feedupdates.html" xlink:title="feedupdates">
<path fill="none" stroke="#ff0000" d="M144.2953,-380.6031C144.2953,-351.5294 144.2953,-294.4546 144.2953,-259.9236"/>
<polygon fill="#ff0000" stroke="#ff0000" points="147.7954,-259.5685 144.2953,-249.5685 140.7954,-259.5685 147.7954,-259.5685"/>
</a>
</g>
<g id="a_edge2&#45;label"><a xlink:href="https://tilnow.github.io/feedupdates.html" xlink:title="feedupdates">
<text text-anchor="middle" x="176.7953" y="-302.9932" font-family="Times,serif" font-size="14.00" fill="#000000">feedupdates</text>
</a>
</g>
</g>
<!-- dns -->
<g id="node5" class="node">
<title>dns</title>
<g id="a_node5"><a xlink:href="https://tilnow.github.io/dns.html" xlink:title="Namecheap">
<polygon fill="none" stroke="#00ff00" points="336.4892,-213.3959 339.9279,-213.4945 343.3312,-213.6419 346.6849,-213.8379 349.9756,-214.0819 353.1901,-214.3732 356.3157,-214.7111 359.3402,-215.0945 362.2521,-215.5225 365.0406,-215.9938 367.6956,-216.5072 370.208,-217.0613 372.5693,-217.6546 374.7722,-218.2854 376.8099,-218.952 378.677,-219.6525 380.3689,-220.3851 381.8818,-221.1478 383.2132,-221.9384 384.3613,-222.7548 385.3255,-223.5947 386.1058,-224.4559 386.7034,-225.336 387.1202,-226.2326 387.359,-227.1431 387.4232,-228.0652 387.3172,-228.9963 387.0457,-229.9338 386.6141,-230.8753 386.0286,-231.8179 385.2954,-232.7593 384.4215,-233.6969 383.4138,-234.628 382.2797,-235.5501 381.0267,-236.4606 379.6625,-237.3572 378.1946,-238.2373 376.6306,-239.0985 374.9781,-239.9384 373.2445,-240.7548 371.4367,-241.5454 369.5619,-242.3081 367.6266,-243.0407 365.6371,-243.7412 363.5993,-244.4078 361.5189,-245.0386 359.401,-245.6319 357.2506,-246.186 355.0718,-246.6994 352.8689,-247.1707 350.6453,-247.5987 348.4044,-247.9821 346.1492,-248.32 343.8821,-248.6113 341.6056,-248.8553 339.3217,-249.0513 337.0322,-249.1987 334.7389,-249.2973 332.4434,-249.3466 330.1471,-249.3466 327.8516,-249.2973 325.5583,-249.1987 323.2689,-249.0513 320.9849,-248.8553 318.7084,-248.6113 316.4414,-248.32 314.1861,-247.9821 311.9452,-247.5987 309.7217,-247.1707 307.5187,-246.6994 305.34,-246.186 303.1895,-245.6319 301.0716,-245.0386 298.9912,-244.4078 296.9535,-243.7412 294.964,-243.0407 293.0286,-242.3081 291.1538,-241.5454 289.3461,-240.7548 287.6124,-239.9384 285.9599,-239.0985 284.396,-238.2373 282.9281,-237.3572 281.5638,-236.4606 280.3109,-235.5501 279.1768,-234.628 278.1691,-233.6969 277.2951,-232.7593 276.5619,-231.8179 275.9764,-230.8753 275.5449,-229.9338 275.2734,-228.9963 275.1673,-228.0652 275.2315,-227.1431 275.4703,-226.2326 275.8871,-225.336 276.4847,-224.4559 277.2651,-223.5947 278.2292,-222.7548 279.3773,-221.9384 280.7087,-221.1478 282.2217,-220.3851 283.9135,-219.6525 285.7806,-218.952 287.8184,-218.2854 290.0212,-217.6546 292.3825,-217.0613 294.8949,-216.5072 297.55,-215.9938 300.3385,-215.5225 303.2504,-215.0945 306.2749,-214.7111 309.4004,-214.3732 312.6149,-214.0819 315.9056,-213.8379 319.2594,-213.6419 322.6626,-213.4945 326.1014,-213.3959 329.5616,-213.3466 333.029,-213.3466 336.4892,-213.3959"/>
<text text-anchor="middle" x="331.2953" y="-227.6466" font-family="Times,serif" font-size="14.00" fill="#000000">Namecheap</text>
</a>
</g>
</g>
<!-- netlify -->
<g id="node7" class="node">
<title>netlify</title>
<g id="a_node7"><a xlink:href="https://tilnow.github.io/netlify.html" xlink:title="Netlify">
<polygon fill="none" stroke="#00ff00" points="297.8243,-87.0493 300.1608,-87.1479 302.4731,-87.2953 304.7518,-87.4913 306.9877,-87.7353 309.1718,-88.0266 311.2955,-88.3645 313.3505,-88.7479 315.329,-89.1759 317.2236,-89.6472 319.0276,-90.1606 320.7347,-90.7147 322.3391,-91.308 323.8358,-91.9388 325.2203,-92.6054 326.489,-93.3059 327.6385,-94.0385 328.6665,-94.8012 329.5711,-95.5918 330.3512,-96.4082 331.0063,-97.2481 331.5365,-98.1093 331.9425,-98.9894 332.2257,-99.886 332.388,-100.7965 332.4316,-101.7186 332.3596,-102.6497 332.1751,-103.5873 331.8819,-104.5287 331.484,-105.4713 330.9859,-106.4127 330.3921,-107.3503 329.7074,-108.2814 328.9368,-109.2035 328.0855,-110.114 327.1585,-111.0106 326.1612,-111.8907 325.0985,-112.7519 323.9757,-113.5918 322.7978,-114.4082 321.5695,-115.1988 320.2957,-115.9615 318.9807,-116.6941 317.6289,-117.3946 316.2444,-118.0612 314.8308,-118.692 313.3918,-119.2853 311.9307,-119.8394 310.4503,-120.3528 308.9535,-120.8241 307.4427,-121.2521 305.9202,-121.6355 304.3878,-121.9734 302.8475,-122.2647 301.3007,-122.5087 299.7488,-122.7047 298.1933,-122.8521 296.6351,-122.9507 295.0754,-123 293.5152,-123 291.9555,-122.9507 290.3973,-122.8521 288.8417,-122.7047 287.2899,-122.5087 285.7431,-122.2647 284.2027,-121.9734 282.6704,-121.6355 281.1478,-121.2521 279.637,-120.8241 278.1402,-120.3528 276.6599,-119.8394 275.1987,-119.2853 273.7597,-118.692 272.3462,-118.0612 270.9616,-117.3946 269.6098,-116.6941 268.2949,-115.9615 267.021,-115.1988 265.7928,-114.4082 264.6148,-113.5918 263.492,-112.7519 262.4294,-111.8907 261.432,-111.0106 260.5051,-110.114 259.6537,-109.2035 258.8832,-108.2814 258.1985,-107.3503 257.6047,-106.4127 257.1065,-105.4713 256.7087,-104.5287 256.4155,-103.5873 256.231,-102.6497 256.1589,-101.7186 256.2026,-100.7965 256.3648,-99.886 256.648,-98.9894 257.0541,-98.1093 257.5843,-97.2481 258.2393,-96.4082 259.0195,-95.5918 259.9241,-94.8012 260.952,-94.0385 262.1016,-93.3059 263.3702,-92.6054 264.7548,-91.9388 266.2515,-91.308 267.8559,-90.7147 269.5629,-90.1606 271.3669,-89.6472 273.2616,-89.1759 275.2401,-88.7479 277.2951,-88.3645 279.4187,-88.0266 281.6028,-87.7353 283.8387,-87.4913 286.1174,-87.2953 288.4298,-87.1479 290.7663,-87.0493 293.1173,-87 295.4732,-87 297.8243,-87.0493"/>
<text text-anchor="middle" x="294.2953" y="-101.3" font-family="Times,serif" font-size="14.00" fill="#000000">Netlify</text>
</a>
</g>
</g>
<!-- dns&#45;&gt;netlify -->
<g id="edge8" class="edge">
<title>dns&#45;&gt;netlify</title>
<g id="a_edge8"><a xlink:href="https://tilnow.github.io/cname.html" xlink:title="CNAME">
<path fill="none" stroke="#ff0000" d="M325.9941,-213.2442C319.8396,-192.228 309.6186,-157.3258 302.4509,-132.8495"/>
<polygon fill="#ff0000" stroke="#ff0000" points="305.7561,-131.6821 299.5866,-123.0688 299.0382,-133.6494 305.7561,-131.6821"/>
</a>
</g>
<g id="a_edge8&#45;label"><a xlink:href="https://tilnow.github.io/cname.html" xlink:title="CNAME">
<text text-anchor="middle" x="337.2953" y="-152.3" font-family="Times,serif" font-size="14.00" fill="#000000">CNAME</text>
</a>
</g>
</g>
<!-- github -->
<g id="node6" class="node">
<title>github</title>
<g id="a_node6"><a xlink:href="https://tilnow.github.io/github.html" xlink:title="GitHub">
<polygon fill="none" stroke="#00ff00" points="236.9417,-380.8969 239.3559,-380.9954 241.7451,-381.1429 244.0996,-381.3389 246.4099,-381.5829 248.6667,-381.8742 250.861,-382.212 252.9843,-382.5954 255.0286,-383.0234 256.9863,-383.4947 258.8503,-384.0082 260.6141,-384.5623 262.2719,-385.1555 263.8184,-385.7863 265.249,-386.4529 266.5598,-387.1535 267.7476,-387.8861 268.8098,-388.6487 269.7445,-389.4393 270.5505,-390.2557 271.2274,-391.0957 271.7752,-391.9569 272.1948,-392.8369 272.4874,-393.7335 272.655,-394.6441 272.7001,-395.5662 272.6257,-396.4972 272.4351,-397.4348 272.1321,-398.3762 271.721,-399.3189 271.2063,-400.2603 270.5927,-401.1978 269.8853,-402.1289 269.0891,-403.051 268.2094,-403.9616 267.2517,-404.8581 266.2211,-405.7382 265.1231,-406.5994 263.963,-407.4393 262.7459,-408.2557 261.4768,-409.0463 260.1605,-409.809 258.8018,-410.5416 257.4051,-411.2422 255.9745,-411.9087 254.5139,-412.5395 253.027,-413.1328 251.5173,-413.6869 249.9877,-414.2003 248.4411,-414.6717 246.8801,-415.0996 245.3068,-415.4831 243.7235,-415.8209 242.1319,-416.1122 240.5337,-416.3562 238.9302,-416.5522 237.3229,-416.6996 235.7129,-416.7982 234.1013,-416.8475 232.4892,-416.8475 230.8776,-416.7982 229.2676,-416.6996 227.6603,-416.5522 226.0569,-416.3562 224.4586,-416.1122 222.867,-415.8209 221.2837,-415.4831 219.7105,-415.0996 218.1494,-414.6717 216.6028,-414.2003 215.0733,-413.6869 213.5635,-413.1328 212.0766,-412.5395 210.6161,-411.9087 209.1855,-411.2422 207.7887,-410.5416 206.43,-409.809 205.1138,-409.0463 203.8447,-408.2557 202.6275,-407.4393 201.4674,-406.5994 200.3694,-405.7382 199.3389,-404.8581 198.3811,-403.9616 197.5015,-403.051 196.7053,-402.1289 195.9978,-401.1978 195.3842,-400.2603 194.8695,-399.3189 194.4584,-398.3762 194.1555,-397.4348 193.9649,-396.4972 193.8904,-395.5662 193.9355,-394.6441 194.1031,-393.7335 194.3958,-392.8369 194.8153,-391.9569 195.3631,-391.0957 196.04,-390.2557 196.8461,-389.4393 197.7808,-388.6487 198.843,-387.8861 200.0307,-387.1535 201.3415,-386.4529 202.7721,-385.7863 204.3186,-385.1555 205.9764,-384.5623 207.7403,-384.0082 209.6043,-383.4947 211.5619,-383.0234 213.6062,-382.5954 215.7296,-382.212 217.9239,-381.8742 220.1806,-381.5829 222.4909,-381.3389 224.8454,-381.1429 227.2347,-380.9954 229.6489,-380.8969 232.0781,-380.8475 234.5124,-380.8475 236.9417,-380.8969"/>
<text text-anchor="middle" x="233.2953" y="-395.1475" font-family="Times,serif" font-size="14.00" fill="#000000">GitHub</text>
</a>
</g>
</g>
<!-- jekyll -->
<g id="node8" class="node">
<title>jekyll</title>
<g id="a_node8"><a xlink:href="https://tilnow.github.io/jekyll.html" xlink:title="Jekyll">
<polygon fill="none" stroke="#0000ff" points="257.2953,-249.3466 203.2953,-249.3466 203.2953,-213.3466 257.2953,-213.3466 257.2953,-249.3466"/>
<text text-anchor="middle" x="230.2953" y="-227.6466" font-family="Times,serif" font-size="14.00" fill="#000000">Jekyll</text>
</a>
</g>
</g>
<!-- github&#45;&gt;jekyll -->
<g id="edge19" class="edge">
<title>github&#45;&gt;jekyll</title>
<g id="a_edge19"><a xlink:href="https://tilnow.github.io/mdfiles.html" xlink:title="md files\nand others">
<path fill="none" stroke="#ff0000" d="M232.9685,-380.6031C232.4478,-351.5294 231.4256,-294.4546 230.8071,-259.9236"/>
<polygon fill="#ff0000" stroke="#ff0000" points="234.3002,-259.5042 230.6216,-249.5685 227.3014,-259.6296 234.3002,-259.5042"/>
</a>
</g>
<g id="a_edge19&#45;label"><a xlink:href="https://tilnow.github.io/mdfiles.html" xlink:title="md files\nand others">
<text text-anchor="middle" x="259.7953" y="-310.4932" font-family="Times,serif" font-size="14.00" fill="#000000">md files</text>
<text text-anchor="middle" x="259.7953" y="-295.4932" font-family="Times,serif" font-size="14.00" fill="#000000">and others</text>
</a>
</g>
</g>
<!-- internet -->
<g id="node9" class="node">
<title>internet</title>
<g id="a_node9"><a xlink:href="https://tilnow.github.io/internet.html" xlink:title="Internet">
<polygon fill="none" stroke="#0000ff" points="323.7953,-36 264.7953,-36 264.7953,0 323.7953,0 323.7953,-36"/>
<text text-anchor="middle" x="294.2953" y="-14.3" font-family="Times,serif" font-size="14.00" fill="#000000">Internet</text>
</a>
</g>
</g>
<!-- netlify&#45;&gt;internet -->
<g id="edge21" class="edge">
<title>netlify&#45;&gt;internet</title>
<g id="a_edge21"><a xlink:href="https://tilnow.github.io/deploy.html" xlink:title="Deploy">
<path fill="none" stroke="#ff0000" d="M294.2953,-86.9735C294.2953,-75.1918 294.2953,-59.5607 294.2953,-46.1581"/>
<polygon fill="#ff0000" stroke="#ff0000" points="297.7954,-46.0033 294.2953,-36.0034 290.7954,-46.0034 297.7954,-46.0033"/>
</a>
</g>
<g id="a_edge21&#45;label"><a xlink:href="https://tilnow.github.io/deploy.html" xlink:title="Deploy">
<text text-anchor="middle" x="314.2953" y="-57.8" font-family="Times,serif" font-size="14.00" fill="#000000">Deploy</text>
</a>
</g>
</g>
<!-- jekyll&#45;&gt;netlify -->
<g id="edge20" class="edge">
<title>jekyll&#45;&gt;netlify</title>
<g id="a_edge20"><a xlink:href="https://tilnow.github.io/rendered website.html" xlink:title="Rendered\nwebsite">
<path fill="none" stroke="#ff0000" d="M230.286,-213.0296C231.0702,-193.7582 234.6313,-163.2015 248.2953,-141 252.2419,-134.5874 257.7688,-128.8663 263.6273,-123.9748"/>
<polygon fill="#ff0000" stroke="#ff0000" points="265.8635,-126.6714 271.7045,-117.832 261.6261,-121.0996 265.8635,-126.6714"/>
</a>
</g>
<g id="a_edge20&#45;label"><a xlink:href="https://tilnow.github.io/rendered website.html" xlink:title="Rendered\nwebsite">
<text text-anchor="middle" x="274.2953" y="-159.8" font-family="Times,serif" font-size="14.00" fill="#000000">Rendered</text>
<text text-anchor="middle" x="274.2953" y="-144.8" font-family="Times,serif" font-size="14.00" fill="#000000">website</text>
</a>
</g>
</g>
<!-- carl&#45;&gt;discord -->
<g id="edge18" class="edge">
<title>carl&#45;&gt;discord</title>
<g id="a_edge18"><a xlink:href="https://tilnow.github.io/reminders.html" xlink:title="reminders">
<path fill="none" stroke="#ff0000" d="M546.9363,-381.2386C536.9578,-357.3612 518.7494,-313.7909 504.5261,-279.7563"/>
<polygon fill="#ff0000" stroke="#ff0000" points="507.7155,-278.3111 500.6302,-270.434 501.2568,-281.0103 507.7155,-278.3111"/>
</a>
</g>
<g id="a_edge18&#45;label"><a xlink:href="https://tilnow.github.io/reminders.html" xlink:title="reminders">
<text text-anchor="middle" x="548.7953" y="-302.9932" font-family="Times,serif" font-size="14.00" fill="#000000">reminders</text>
</a>
</g>
</g>
<!-- website&#45;&gt;forms -->
<g id="edge9" class="edge">
<title>website&#45;&gt;forms</title>
<g id="a_edge9"><a xlink:href="https://tilnow.github.io/newuserdata.html" xlink:title="minimal\nuser data">
<path fill="none" stroke="#ff0000" d="M318.9134,-526.0054C323.7604,-506.3657 328.9503,-485.3363 333.6859,-466.1479"/>
<polygon fill="#ff0000" stroke="#ff0000" points="337.1186,-466.8459 336.1167,-456.2986 330.3225,-465.1686 337.1186,-466.8459"/>
</a>
</g>
<g id="a_edge9&#45;label"><a xlink:href="https://tilnow.github.io/newuserdata.html" xlink:title="minimal\nuser data">
<text text-anchor="middle" x="354.7953" y="-494.8019" font-family="Times,serif" font-size="14.00" fill="#000000">minimal</text>
<text text-anchor="middle" x="354.7953" y="-479.8019" font-family="Times,serif" font-size="14.00" fill="#000000">user data</text>
</a>
</g>
</g>
<!-- website&#45;&gt;ifttt -->
<g id="edge1" class="edge">
<title>website&#45;&gt;ifttt</title>
<g id="a_edge1"><a xlink:href="https://tilnow.github.io/feedupdates.html" xlink:title="feedupdates">
<path fill="none" stroke="#ff0000" d="M234.868,-559.6076C215.4832,-544.6292 195.6309,-526.3547 181.2953,-506.0019 164.4671,-482.1103 154.7126,-449.8849 149.4875,-427.0308"/>
<polygon fill="#ff0000" stroke="#ff0000" points="152.8458,-425.9972 147.3356,-416.948 146,-427.4583 152.8458,-425.9972"/>
</a>
</g>
<g id="a_edge1&#45;label"><a xlink:href="https://tilnow.github.io/feedupdates.html" xlink:title="feedupdates">
<text text-anchor="middle" x="213.7953" y="-487.3019" font-family="Times,serif" font-size="14.00" fill="#000000">feedupdates</text>
</a>
</g>
</g>
<!-- website&#45;&gt;github -->
<g id="edge6" class="edge">
<title>website&#45;&gt;github</title>
<g id="a_edge6"><a xlink:href="https://tilnow.github.io/create_post.html" xlink:title="create_post">
<path fill="none" stroke="#000000" d="M268.399,-530.8115C265.1212,-522.5247 262.0053,-514.1281 259.2953,-506.0019 250.4998,-479.6276 243.3158,-448.6907 238.7458,-426.8567"/>
<polygon fill="#000000" stroke="#000000" points="242.1484,-426.0259 236.7166,-416.9294 235.2902,-427.4278 242.1484,-426.0259"/>
</a>
</g>
<g id="a_edge6&#45;label"><a xlink:href="https://tilnow.github.io/create_post.html" xlink:title="create_post">
<text text-anchor="middle" x="290.2953" y="-487.3019" font-family="Times,serif" font-size="14.00" fill="#000000">create_post</text>
</a>
</g>
</g>
<!-- website&#45;&gt;discord -->
<g id="edge7" class="edge">
<title>website&#45;&gt;discord</title>
<g id="a_edge7"><a xlink:href="https://tilnow.github.io/create_post.html" xlink:title="create_post">
<path fill="none" stroke="#000000" d="M352.02,-543.5663C362.5645,-531.325 373.4411,-518.366 383.2953,-506.0019 399.7509,-485.3548 406.6522,-481.6984 418.2953,-458.0019 422.2571,-449.9384 451.7627,-346.5602 469.9563,-282.2384"/>
<polygon fill="#000000" stroke="#000000" points="473.4216,-282.8461 472.7735,-272.2711 466.6855,-280.9421 473.4216,-282.8461"/>
</a>
</g>
<g id="a_edge7&#45;label"><a xlink:href="https://tilnow.github.io/create_post.html" xlink:title="create_post">
<text text-anchor="middle" x="484.2953" y="-395.1475" font-family="Times,serif" font-size="14.00" fill="#000000">create_post</text>
</a>
</g>
</g>
<!-- welcomer -->
<g id="node14" class="node">
<title>welcomer</title>
<g id="a_node14"><a xlink:href="https://tilnow.github.io/welcomer.html" xlink:title="welcome bot">
<polygon fill="none" stroke="#0000ff" points="614.7953,-123 527.7953,-123 527.7953,-87 614.7953,-87 614.7953,-123"/>
<text text-anchor="middle" x="571.2953" y="-101.3" font-family="Times,serif" font-size="14.00" fill="#000000">welcome bot</text>
</a>
</g>
</g>
<!-- discord&#45;&gt;welcomer -->
<g id="edge11" class="edge">
<title>discord&#45;&gt;welcomer</title>
<g id="a_edge11"><a xlink:href="https://tilnow.github.io/newby.html" xlink:title="newby">
<path fill="none" stroke="#ff0000" d="M490.737,-189.2439C494.8355,-172.9196 501.4984,-154.862 512.2953,-141 515.7055,-136.6217 519.8092,-132.6504 524.2445,-129.0819"/>
<polygon fill="#ff0000" stroke="#ff0000" points="526.465,-131.7952 532.5082,-123.0928 522.3571,-126.1272 526.465,-131.7952"/>
</a>
</g>
<g id="a_edge11&#45;label"><a xlink:href="https://tilnow.github.io/newby.html" xlink:title="newby">
<text text-anchor="middle" x="530.7953" y="-152.3" font-family="Times,serif" font-size="14.00" fill="#000000">newby</text>
</a>
</g>
</g>
<!-- yakyak -->
<g id="node15" class="node">
<title>yakyak</title>
<g id="a_node15"><a xlink:href="https://tilnow.github.io/yakyak.html" xlink:title="yakyak carl&#45;bot">
<polygon fill="none" stroke="#0000ff" points="474.7953,-123 373.7953,-123 373.7953,-87 474.7953,-87 474.7953,-123"/>
<text text-anchor="middle" x="424.2953" y="-101.3" font-family="Times,serif" font-size="14.00" fill="#000000">yakyak carl&#45;bot</text>
</a>
</g>
</g>
<!-- discord&#45;&gt;yakyak -->
<g id="edge13" class="edge">
<title>discord&#45;&gt;yakyak</title>
<g id="a_edge13"><a xlink:href="https://tilnow.github.io/newby.html" xlink:title="newby">
<path fill="none" stroke="#ff0000" d="M463.8163,-193.9378C459.8737,-186.4029 455.864,-178.4948 452.2953,-171 446.3589,-158.533 440.3094,-144.4769 435.3596,-132.5501"/>
<polygon fill="#ff0000" stroke="#ff0000" points="438.5218,-131.0365 431.4871,-123.1141 432.0459,-133.6942 438.5218,-131.0365"/>
</a>
</g>
<g id="a_edge13&#45;label"><a xlink:href="https://tilnow.github.io/newby.html" xlink:title="newby">
<text text-anchor="middle" x="470.7953" y="-152.3" font-family="Times,serif" font-size="14.00" fill="#000000">newby</text>
</a>
</g>
</g>
<!-- welcomer&#45;&gt;discord -->
<g id="edge12" class="edge">
<title>welcomer&#45;&gt;discord</title>
<g id="a_edge12"><a xlink:href="https://tilnow.github.io/welcoming.html" xlink:title="welcoming">
<path fill="none" stroke="#000000" d="M567.8218,-123.1598C564.576,-137.0574 558.7774,-156.2757 549.2953,-171 542.9116,-180.9129 534.5316,-190.2946 525.9206,-198.5761"/>
<polygon fill="#000000" stroke="#000000" points="523.325,-196.2083 518.3383,-205.5562 528.066,-201.3583 523.325,-196.2083"/>
</a>
</g>
<g id="a_edge12&#45;label"><a xlink:href="https://tilnow.github.io/welcoming.html" xlink:title="welcoming">
<text text-anchor="middle" x="592.7953" y="-152.3" font-family="Times,serif" font-size="14.00" fill="#000000">welcoming</text>
</a>
</g>
</g>
<!-- welcomer&#45;&gt;discord -->
<g id="edge15" class="edge">
<title>welcomer&#45;&gt;discord</title>
<g id="a_edge15"><a xlink:href="https://tilnow.github.io/welcoming.html" xlink:title="welcome\nnew user">
<path fill="none" stroke="#000000" d="M610.8843,-123.1511C617.4747,-127.9895 623.4184,-133.8989 627.2953,-141 633.6844,-152.7028 634.6661,-159.8892 627.2953,-171 607.2001,-201.2915 568.575,-216.4156 536.5289,-223.946"/>
<polygon fill="#000000" stroke="#000000" points="535.4244,-220.6037 526.3873,-226.1337 536.9005,-227.4463 535.4244,-220.6037"/>
</a>
</g>
<g id="a_edge15&#45;label"><a xlink:href="https://tilnow.github.io/welcoming.html" xlink:title="welcome\nnew user">
<text text-anchor="middle" x="657.2953" y="-159.8" font-family="Times,serif" font-size="14.00" fill="#000000">welcome</text>
<text text-anchor="middle" x="657.2953" y="-144.8" font-family="Times,serif" font-size="14.00" fill="#000000">new user</text>
</a>
</g>
</g>
<!-- yakyak&#45;&gt;discord -->
<g id="edge14" class="edge">
<title>yakyak&#45;&gt;discord</title>
<g id="a_edge14"><a xlink:href="https://tilnow.github.io/prune.html" xlink:title="prune">
<path fill="none" stroke="#000000" d="M411.5819,-123.2685C403.795,-136.8778 396.6596,-155.6757 404.2953,-171 411.5509,-185.5616 424.1809,-197.5374 437.2906,-206.8733"/>
<polygon fill="#000000" stroke="#000000" points="435.6611,-209.9934 445.9232,-212.6278 439.5438,-204.1689 435.6611,-209.9934"/>
</a>
</g>
<g id="a_edge14&#45;label"><a xlink:href="https://tilnow.github.io/prune.html" xlink:title="prune">
<text text-anchor="middle" x="419.7953" y="-152.3" font-family="Times,serif" font-size="14.00" fill="#000000">prune</text>
</a>
</g>
</g>
<!-- zapier -->
<g id="node16" class="node">
<title>zapier</title>
<g id="a_node16"><a xlink:href="https://tilnow.github.io/zapier.html" xlink:title="Zapier">
<polygon fill="none" stroke="#00ff00" points="807.625,-784.2334 809.8296,-784.332 812.0114,-784.4794 814.1615,-784.6754 816.2712,-784.9194 818.332,-785.2107 820.3357,-785.5486 822.2747,-785.932 824.1415,-786.36 825.9292,-786.8313 827.6313,-787.3447 829.242,-787.8988 830.7559,-788.4921 832.1681,-789.1229 833.4745,-789.7895 834.6715,-790.49 835.7561,-791.2226 836.726,-791.9853 837.5796,-792.7759 838.3156,-793.5923 838.9337,-794.4322 839.434,-795.2934 839.8171,-796.1735 840.0844,-797.0701 840.2374,-797.9806 840.2786,-798.9027 840.2106,-799.8338 840.0366,-800.7713 839.7599,-801.7127 839.3845,-802.6554 838.9145,-803.5968 838.3542,-804.5344 837.7082,-805.4655 836.9811,-806.3875 836.1778,-807.2981 835.3032,-808.1947 834.3622,-809.0748 833.3595,-809.9359 832.3001,-810.7759 831.1887,-811.5923 830.0298,-812.3829 828.8278,-813.1456 827.5871,-813.8782 826.3116,-814.5787 825.0052,-815.2453 823.6715,-815.8761 822.3137,-816.4693 820.9351,-817.0234 819.5383,-817.5369 818.126,-818.0082 816.7005,-818.4362 815.2639,-818.8196 813.818,-819.1575 812.3646,-819.4488 810.9052,-819.6927 809.441,-819.8887 807.9732,-820.0362 806.503,-820.1348 805.0313,-820.1841 803.5592,-820.1841 802.0876,-820.1348 800.6173,-820.0362 799.1496,-819.8887 797.6854,-819.6927 796.2259,-819.4488 794.7725,-819.1575 793.3267,-818.8196 791.8901,-818.4362 790.4646,-818.0082 789.0523,-817.5369 787.6555,-817.0234 786.2768,-816.4693 784.9191,-815.8761 783.5853,-815.2453 782.2789,-814.5787 781.0035,-813.8782 779.7627,-813.1456 778.5608,-812.3829 777.4019,-811.5923 776.2904,-810.7759 775.231,-809.9359 774.2284,-809.0748 773.2873,-808.1947 772.4127,-807.2981 771.6094,-806.3875 770.8824,-805.4655 770.2364,-804.5344 769.676,-803.5968 769.206,-802.6554 768.8306,-801.7127 768.554,-800.7713 768.3799,-799.8338 768.3119,-798.9027 768.3531,-797.9806 768.5062,-797.0701 768.7734,-796.1735 769.1565,-795.2934 769.6568,-794.4322 770.2749,-793.5923 771.011,-792.7759 771.8645,-791.9853 772.8345,-791.2226 773.9191,-790.49 775.1161,-789.7895 776.4225,-789.1229 777.8347,-788.4921 779.3485,-787.8988 780.9592,-787.3447 782.6613,-786.8313 784.449,-786.36 786.3158,-785.932 788.2548,-785.5486 790.2586,-785.2107 792.3194,-784.9194 794.429,-784.6754 796.5791,-784.4794 798.7609,-784.332 800.9655,-784.2334 803.1838,-784.1841 805.4067,-784.1841 807.625,-784.2334"/>
<text text-anchor="middle" x="804.2953" y="-798.4841" font-family="Times,serif" font-size="14.00" fill="#000000">Zapier</text>
</a>
</g>
</g>
<!-- gmail -->
<g id="node17" class="node">
<title>gmail</title>
<g id="a_node17"><a xlink:href="https://tilnow.github.io/gmail.html" xlink:title="yakcollective.org\n@gmail.com">
<polygon fill="none" stroke="#00ff00" points="1230.9449,-775.4984 1236.0095,-775.6448 1241.0218,-775.8641 1245.9613,-776.1554 1250.8078,-776.5182 1255.5422,-776.9512 1260.1455,-777.4535 1264.6,-778.0235 1268.8886,-778.6597 1272.9955,-779.3604 1276.9059,-780.1237 1280.6062,-780.9474 1284.084,-781.8294 1287.3283,-782.7671 1290.3295,-783.758 1293.0794,-784.7995 1295.5712,-785.8886 1297.7994,-787.0224 1299.7603,-788.1977 1301.4513,-789.4114 1302.8713,-790.6601 1304.0206,-791.9403 1304.9007,-793.2487 1305.5146,-794.5815 1305.8663,-795.9352 1305.9609,-797.306 1305.8047,-798.6901 1305.4048,-800.0839 1304.7693,-801.4834 1303.9069,-802.8848 1302.8271,-804.2843 1301.5399,-805.678 1300.0557,-807.0622 1298.3854,-808.433 1296.54,-809.7867 1294.5308,-811.1195 1292.3689,-812.4279 1290.0655,-813.7081 1287.6317,-814.9568 1285.0783,-816.1705 1282.4159,-817.3458 1279.6546,-818.4796 1276.8042,-819.5687 1273.8741,-820.6101 1270.8729,-821.6011 1267.8088,-822.5388 1264.6896,-823.4208 1261.5224,-824.2445 1258.3135,-825.0078 1255.069,-825.7085 1251.7941,-826.3447 1248.4938,-826.9147 1245.1722,-827.417 1241.8333,-827.85 1238.4804,-828.2127 1235.1166,-828.5041 1231.7447,-828.7233 1228.3671,-828.8698 1224.9863,-828.9432 1221.6043,-828.9432 1218.2234,-828.8698 1214.8459,-828.7233 1211.4739,-828.5041 1208.1102,-828.2127 1204.7573,-827.85 1201.4183,-827.417 1198.0968,-826.9147 1194.7964,-826.3447 1191.5216,-825.7085 1188.277,-825.0078 1185.0682,-824.2445 1181.9009,-823.4208 1178.7817,-822.5388 1175.7177,-821.6011 1172.7165,-820.6101 1169.7863,-819.5687 1166.9359,-818.4796 1164.1747,-817.3458 1161.5123,-816.1705 1158.9589,-814.9568 1156.5251,-813.7081 1154.2217,-812.4279 1152.0598,-811.1195 1150.0505,-809.7867 1148.2051,-808.433 1146.5348,-807.0622 1145.0507,-805.678 1143.7635,-804.2843 1142.6837,-802.8848 1141.8213,-801.4834 1141.1857,-800.0839 1140.7859,-798.6901 1140.6296,-797.306 1140.7243,-795.9352 1141.0759,-794.5815 1141.6898,-793.2487 1142.57,-791.9403 1143.7192,-790.6601 1145.1392,-789.4114 1146.8302,-788.1977 1148.7911,-787.0224 1151.0194,-785.8886 1153.5111,-784.7995 1156.261,-783.758 1159.2623,-782.7671 1162.5066,-781.8294 1165.9844,-780.9474 1169.6846,-780.1237 1173.595,-779.3604 1177.7019,-778.6597 1181.9906,-778.0235 1186.445,-777.4535 1191.0484,-776.9512 1195.7827,-776.5182 1200.6293,-776.1554 1205.5687,-775.8641 1210.581,-775.6448 1215.6457,-775.4984 1220.7419,-775.425 1225.8486,-775.425 1230.9449,-775.4984"/>
<text text-anchor="middle" x="1223.2953" y="-805.9841" font-family="Times,serif" font-size="14.00" fill="#000000">yakcollective.org</text>
<text text-anchor="middle" x="1223.2953" y="-790.9841" font-family="Times,serif" font-size="14.00" fill="#000000">@gmail.com</text>
</a>
</g>
</g>
<!-- facebook -->
<g id="node18" class="node">
<title>facebook</title>
<g id="a_node18"><a xlink:href="https://tilnow.github.io/facebook.html" xlink:title="Facebook">
<polygon fill="none" stroke="#00ff00" points="1078.6924,-784.2334 1081.6036,-784.332 1084.4848,-784.4794 1087.3241,-784.6754 1090.11,-784.9194 1092.8313,-785.2107 1095.4774,-785.5486 1098.0379,-785.932 1100.5031,-786.36 1102.8638,-786.8313 1105.1116,-787.3447 1107.2385,-787.8988 1109.2376,-788.4921 1111.1025,-789.1229 1112.8277,-789.7895 1114.4083,-790.49 1115.8406,-791.2226 1117.1215,-791.9853 1118.2486,-792.7759 1119.2207,-793.5923 1120.0369,-794.4322 1120.6975,-795.2934 1121.2034,-796.1735 1121.5563,-797.0701 1121.7585,-797.9806 1121.8129,-798.9027 1121.7231,-799.8338 1121.4932,-800.7713 1121.1279,-801.7127 1120.6322,-802.6554 1120.0115,-803.5968 1119.2716,-804.5344 1118.4184,-805.4655 1117.4583,-806.3875 1116.3976,-807.2981 1115.2426,-808.1947 1113.9999,-809.0748 1112.6759,-809.9359 1111.2769,-810.7759 1109.8092,-811.5923 1108.2788,-812.3829 1106.6916,-813.1456 1105.0531,-813.8782 1103.3688,-814.5787 1101.6437,-815.2453 1099.8824,-815.8761 1098.0894,-816.4693 1096.2688,-817.0234 1094.4243,-817.5369 1092.5593,-818.0082 1090.6769,-818.4362 1088.7798,-818.8196 1086.8705,-819.1575 1084.9512,-819.4488 1083.0239,-819.6927 1081.0904,-819.8887 1079.1521,-820.0362 1077.2107,-820.1348 1075.2673,-820.1841 1073.3233,-820.1841 1071.3799,-820.1348 1069.4384,-820.0362 1067.5002,-819.8887 1065.5666,-819.6927 1063.6393,-819.4488 1061.72,-819.1575 1059.8108,-818.8196 1057.9136,-818.4362 1056.0312,-818.0082 1054.1662,-817.5369 1052.3217,-817.0234 1050.5011,-816.4693 1048.7081,-815.8761 1046.9469,-815.2453 1045.2217,-814.5787 1043.5374,-813.8782 1041.899,-813.1456 1040.3118,-812.3829 1038.7814,-811.5923 1037.3136,-810.7759 1035.9147,-809.9359 1034.5906,-809.0748 1033.3479,-808.1947 1032.193,-807.2981 1031.1322,-806.3875 1030.1721,-805.4655 1029.319,-804.5344 1028.5791,-803.5968 1027.9584,-802.6554 1027.4627,-801.7127 1027.0974,-800.7713 1026.8675,-799.8338 1026.7777,-798.9027 1026.8321,-797.9806 1027.0342,-797.0701 1027.3871,-796.1735 1027.893,-795.2934 1028.5537,-794.4322 1029.3699,-793.5923 1030.3419,-792.7759 1031.469,-791.9853 1032.7499,-791.2226 1034.1822,-790.49 1035.7629,-789.7895 1037.488,-789.1229 1039.3529,-788.4921 1041.352,-787.8988 1043.479,-787.3447 1045.7267,-786.8313 1048.0875,-786.36 1050.5526,-785.932 1053.1131,-785.5486 1055.7592,-785.2107 1058.4806,-784.9194 1061.2665,-784.6754 1064.1058,-784.4794 1066.9869,-784.332 1069.8982,-784.2334 1072.8275,-784.1841 1075.763,-784.1841 1078.6924,-784.2334"/>
<text text-anchor="middle" x="1074.2953" y="-798.4841" font-family="Times,serif" font-size="14.00" fill="#000000">Facebook</text>
</a>
</g>
</g>
<!-- linkedin -->
<g id="node19" class="node">
<title>linkedin</title>
<g id="a_node19"><a xlink:href="https://tilnow.github.io/linkedin.html" xlink:title="Linkedin">
<polygon fill="none" stroke="#00ff00" points="967.4575,-784.2334 970.2132,-784.332 972.9405,-784.4794 975.6281,-784.6754 978.2651,-784.9194 980.8411,-785.2107 983.3458,-785.5486 985.7696,-785.932 988.1031,-786.36 990.3377,-786.8313 992.4654,-787.3447 994.4787,-787.8988 996.371,-788.4921 998.1363,-789.1229 999.7693,-789.7895 1001.2655,-790.49 1002.6213,-791.2226 1003.8337,-791.9853 1004.9007,-792.7759 1005.8207,-793.5923 1006.5934,-794.4322 1007.2187,-795.2934 1007.6976,-796.1735 1008.0316,-797.0701 1008.223,-797.9806 1008.2745,-798.9027 1008.1895,-799.8338 1007.9719,-800.7713 1007.6261,-801.7127 1007.1568,-802.6554 1006.5693,-803.5968 1005.8689,-804.5344 1005.0614,-805.4655 1004.1526,-806.3875 1003.1485,-807.2981 1002.0552,-808.1947 1000.8789,-809.0748 999.6256,-809.9359 998.3013,-810.7759 996.912,-811.5923 995.4634,-812.3829 993.9609,-813.1456 992.41,-813.8782 990.8157,-814.5787 989.1827,-815.2453 987.5155,-815.8761 985.8184,-816.4693 984.095,-817.0234 982.349,-817.5369 980.5837,-818.0082 978.8018,-818.4362 977.006,-818.8196 975.1987,-819.1575 973.382,-819.4488 971.5576,-819.6927 969.7274,-819.8887 967.8927,-820.0362 966.0549,-820.1348 964.2154,-820.1841 962.3752,-820.1841 960.5356,-820.1348 958.6979,-820.0362 956.8632,-819.8887 955.0329,-819.6927 953.2086,-819.4488 951.3918,-819.1575 949.5845,-818.8196 947.7888,-818.4362 946.0069,-818.0082 944.2415,-817.5369 942.4955,-817.0234 940.7722,-816.4693 939.075,-815.8761 937.4078,-815.2453 935.7749,-814.5787 934.1805,-813.8782 932.6296,-813.1456 931.1272,-812.3829 929.6785,-811.5923 928.2892,-810.7759 926.965,-809.9359 925.7117,-809.0748 924.5353,-808.1947 923.4421,-807.2981 922.438,-806.3875 921.5292,-805.4655 920.7216,-804.5344 920.0212,-803.5968 919.4337,-802.6554 918.9645,-801.7127 918.6187,-800.7713 918.4011,-799.8338 918.3161,-798.9027 918.3676,-797.9806 918.5589,-797.0701 918.8929,-796.1735 919.3718,-795.2934 919.9972,-794.4322 920.7698,-793.5923 921.6899,-792.7759 922.7568,-791.9853 923.9693,-791.2226 925.325,-790.49 926.8213,-789.7895 928.4543,-789.1229 930.2195,-788.4921 932.1118,-787.8988 934.1252,-787.3447 936.2529,-786.8313 938.4875,-786.36 940.821,-785.932 943.2447,-785.5486 945.7494,-785.2107 948.3254,-784.9194 950.9625,-784.6754 953.6501,-784.4794 956.3773,-784.332 959.1331,-784.2334 961.906,-784.1841 964.6846,-784.1841 967.4575,-784.2334"/>
<text text-anchor="middle" x="963.2953" y="-798.4841" font-family="Times,serif" font-size="14.00" fill="#000000">Linkedin</text>
</a>
</g>
</g>
<!-- knack -->
<g id="node20" class="node">
<title>knack</title>
<g id="a_node20"><a xlink:href="https://tilnow.github.io/knack.html" xlink:title="Knack">
<ellipse fill="none" stroke="#00ff00" cx="1558.2953" cy="-802.1841" rx="33.6165" ry="33.6165"/>
<ellipse fill="none" stroke="#00ff00" cx="1558.2953" cy="-802.1841" rx="37.5951" ry="37.5951"/>
<text text-anchor="middle" x="1558.2953" y="-798.4841" font-family="Times,serif" font-size="14.00" fill="#000000">Knack</text>
</a>
</g>
</g>
<!-- roam -->
<g id="node21" class="node">
<title>roam</title>
<g id="a_node21"><a xlink:href="https://tilnow.github.io/roam.html" xlink:title="Roam">
<ellipse fill="none" stroke="#00ff00" cx="1466.2953" cy="-802.1841" rx="32.4945" ry="32.4945"/>
<ellipse fill="none" stroke="#00ff00" cx="1466.2953" cy="-802.1841" rx="36.4942" ry="36.4942"/>
<text text-anchor="middle" x="1466.2953" y="-798.4841" font-family="Times,serif" font-size="14.00" fill="#000000">Roam</text>
</a>
</g>
</g>
<!-- yak_scraper -->
<g id="node22" class="node">
<title>yak_scraper</title>
<g id="a_node22"><a xlink:href="https://tilnow.github.io/yak_scraper.html" xlink:title="yak_scraper">
<polygon fill="none" stroke="#0000ff" points="1412.2953,-820.1841 1330.2953,-820.1841 1330.2953,-784.1841 1412.2953,-784.1841 1412.2953,-820.1841"/>
<text text-anchor="middle" x="1371.2953" y="-798.4841" font-family="Times,serif" font-size="14.00" fill="#000000">yak_scraper</text>
</a>
</g>
</g>
<!-- substack -->
<g id="node23" class="node">
<title>substack</title>
<g id="a_node23"><a xlink:href="https://tilnow.github.io/substack.html" xlink:title="Substack">
<polygon fill="none" stroke="#00ff00" points="607.2953,-825.1841 522.8103,-790.6841 691.7803,-790.6841 607.2953,-825.1841"/>
<text text-anchor="middle" x="607.2953" y="-798.4841" font-family="Times,serif" font-size="14.00" fill="#000000">Substack</text>
</a>
</g>
</g>
<!-- substack&#45;&gt;website -->
<g id="edge3" class="edge">
<title>substack&#45;&gt;website</title>
<g id="a_edge3"><a xlink:href="https://tilnow.github.io/usercont.html" xlink:title="member&#45;generated\nweb&#45;content">
<path fill="none" stroke="#ff0000" d="M596.288,-790.6727C576.1955,-770.0845 531.6407,-726.3571 488.2953,-696.8888 454.6719,-674.0301 414.8338,-653.0397 380.5038,-636.5996"/>
<polygon fill="#ff0000" stroke="#ff0000" points="381.9761,-633.4243 371.4407,-632.3032 378.9775,-639.7495 381.9761,-633.4243"/>
</a>
</g>
<g id="a_edge3&#45;label"><a xlink:href="https://tilnow.github.io/usercont.html" xlink:title="member&#45;generated\nweb&#45;content">
<text text-anchor="middle" x="577.7953" y="-715.6888" font-family="Times,serif" font-size="14.00" fill="#000000">member&#45;generated</text>
<text text-anchor="middle" x="577.7953" y="-700.6888" font-family="Times,serif" font-size="14.00" fill="#000000">web&#45;content</text>
</a>
</g>
</g>
<!-- blogs -->
<g id="node24" class="node">
<title>blogs</title>
<g id="a_node24"><a xlink:href="https://tilnow.github.io/blogs.html" xlink:title="member\nblogs">
<polygon fill="none" stroke="#00ff00" points="220.2953,-856.1654 132.4324,-775.1934 308.1581,-775.1934 220.2953,-856.1654"/>
<text text-anchor="middle" x="220.2953" y="-805.9841" font-family="Times,serif" font-size="14.00" fill="#000000">member</text>
<text text-anchor="middle" x="220.2953" y="-790.9841" font-family="Times,serif" font-size="14.00" fill="#000000">blogs</text>
</a>
</g>
</g>
<!-- blogs&#45;&gt;website -->
<g id="edge4" class="edge">
<title>blogs&#45;&gt;website</title>
<g id="a_edge4"><a xlink:href="https://tilnow.github.io/usercont.html" xlink:title="member&#45;generated\nweb&#45;content">
<path fill="none" stroke="#ff0000" d="M231.0844,-775.1116C240.4783,-751.5401 254.5983,-716.1096 267.6397,-683.3857"/>
<polygon fill="#ff0000" stroke="#ff0000" points="271.0138,-684.3733 271.4647,-673.7881 264.5112,-681.7818 271.0138,-684.3733"/>
</a>
</g>
<g id="a_edge4&#45;label"><a xlink:href="https://tilnow.github.io/usercont.html" xlink:title="member&#45;generated\nweb&#45;content">
<text text-anchor="middle" x="311.7953" y="-715.6888" font-family="Times,serif" font-size="14.00" fill="#000000">member&#45;generated</text>
<text text-anchor="middle" x="311.7953" y="-700.6888" font-family="Times,serif" font-size="14.00" fill="#000000">web&#45;content</text>
</a>
</g>
</g>
<!-- websites -->
<g id="node25" class="node">
<title>websites</title>
<g id="a_node25"><a xlink:href="https://tilnow.github.io/websites.html" xlink:title="member\nwebsites">
<polygon fill="none" stroke="#00ff00" points="415.2953,-856.1654 326.1043,-775.1934 504.4863,-775.1934 415.2953,-856.1654"/>
<text text-anchor="middle" x="415.2953" y="-805.9841" font-family="Times,serif" font-size="14.00" fill="#000000">member</text>
<text text-anchor="middle" x="415.2953" y="-790.9841" font-family="Times,serif" font-size="14.00" fill="#000000">websites</text>
</a>
</g>
</g>
<!-- websites&#45;&gt;website -->
<g id="edge5" class="edge">
<title>websites&#45;&gt;website</title>
<g id="a_edge5"><a xlink:href="https://tilnow.github.io/usercont.html" xlink:title="member&#45;generated\nweb&#45;content">
<path fill="none" stroke="#ff0000" d="M404.579,-775.1124C395.6157,-753.4337 381.9666,-722.5195 367.2953,-696.8888 362.6299,-688.7385 357.4555,-680.4082 352.1097,-672.2307"/>
<polygon fill="#ff0000" stroke="#ff0000" points="354.9416,-670.1684 346.4908,-663.7781 349.112,-674.0436 354.9416,-670.1684"/>
</a>
</g>
<g id="a_edge5&#45;label"><a xlink:href="https://tilnow.github.io/usercont.html" xlink:title="member&#45;generated\nweb&#45;content">
<text text-anchor="middle" x="432.7953" y="-715.6888" font-family="Times,serif" font-size="14.00" fill="#000000">member&#45;generated</text>
<text text-anchor="middle" x="432.7953" y="-700.6888" font-family="Times,serif" font-size="14.00" fill="#000000">web&#45;content</text>
</a>
</g>
</g>
</g>
</svg>
