<?xml version="1.0" encoding="UTF-8" standalone="no"?>
<!DOCTYPE svg PUBLIC "-//W3C//DTD SVG 1.1//EN"
 "http://www.w3.org/Graphics/SVG/1.1/DTD/svg11.dtd">
<!-- Generated by graphviz version 2.40.1 (20161225.0304)
 -->
<!-- Title: G Pages: 1 -->
<svg width="2170pt" height="410pt"
 viewBox="0.00 0.00 2169.83 410.31" xmlns="http://www.w3.org/2000/svg" xmlns:xlink="http://www.w3.org/1999/xlink">
<g id="graph0" class="graph" transform="scale(1 1) rotate(0) translate(4 406.3087)">
<title>G</title>
<polygon fill="#ffffff" stroke="transparent" points="-4,4 -4,-406.3087 2165.8326,-406.3087 2165.8326,4 -4,4"/>
<text text-anchor="middle" x="1080.9163" y="-387.1087" font-family="Times,serif" font-size="14.00" fill="#000000">map of yak collective IT infrastructure (work in progress)</text>
<!-- gmail -->
<g id="node1" class="node">
<title>gmail</title>
<g id="a_node1"><a xlink:href="https://tilnow.github.io/gmail.html" xlink:title="yakcollective.org\n@gmail.com">
<polygon fill="none" stroke="#00ff00" points="90.4822,-293.4686 95.5469,-293.6151 100.5592,-293.8343 105.4986,-294.1257 110.3452,-294.4884 115.0795,-294.9215 119.6829,-295.4237 124.1373,-295.9937 128.426,-296.6299 132.5329,-297.3306 136.4433,-298.0939 140.1436,-298.9176 143.6214,-299.7996 146.8657,-300.7373 149.8669,-301.7283 152.6168,-302.7697 155.1085,-303.8589 157.3368,-304.9926 159.2977,-306.168 160.9887,-307.3816 162.4087,-308.6303 163.558,-309.9106 164.4381,-311.2189 165.052,-312.5517 165.4037,-313.9054 165.4983,-315.2762 165.3421,-316.6604 164.9422,-318.0541 164.3066,-319.4536 163.4442,-320.855 162.3644,-322.2545 161.0772,-323.6483 159.5931,-325.0325 157.9228,-326.4033 156.0774,-327.7569 154.0682,-329.0898 151.9062,-330.3981 149.6028,-331.6784 147.169,-332.927 144.6157,-334.1407 141.9533,-335.316 139.192,-336.4498 136.3416,-337.5389 133.4114,-338.5804 130.4102,-339.5713 127.3462,-340.5091 124.227,-341.391 121.0597,-342.2147 117.8509,-342.978 114.6064,-343.6787 111.3315,-344.315 108.0312,-344.885 104.7096,-345.3872 101.3706,-345.8203 98.0178,-346.183 94.654,-346.4743 91.2821,-346.6936 87.9045,-346.8401 84.5236,-346.9134 81.1417,-346.9134 77.7608,-346.8401 74.3832,-346.6936 71.0113,-346.4743 67.6475,-346.183 64.2947,-345.8203 60.9557,-345.3872 57.6341,-344.885 54.3338,-344.315 51.0589,-343.6787 47.8144,-342.978 44.6056,-342.2147 41.4383,-341.391 38.3191,-340.5091 35.2551,-339.5713 32.2539,-338.5804 29.3237,-337.5389 26.4733,-336.4498 23.712,-335.316 21.0496,-334.1407 18.4963,-332.927 16.0625,-331.6784 13.7591,-330.3981 11.5971,-329.0898 9.5879,-327.7569 7.7425,-326.4033 6.0722,-325.0325 4.5881,-323.6483 3.3009,-322.2545 2.2211,-320.855 1.3587,-319.4536 .7231,-318.0541 .3232,-316.6604 .167,-315.2762 .2616,-313.9054 .6133,-312.5517 1.2272,-311.2189 2.1073,-309.9106 3.2566,-308.6303 4.6766,-307.3816 6.3676,-306.168 8.3285,-304.9926 10.5568,-303.8589 13.0485,-302.7697 15.7984,-301.7283 18.7996,-300.7373 22.0439,-299.7996 25.5217,-298.9176 29.222,-298.0939 33.1324,-297.3306 37.2393,-296.6299 41.528,-295.9937 45.9824,-295.4237 50.5858,-294.9215 55.3201,-294.4884 60.1667,-294.1257 65.1061,-293.8343 70.1184,-293.6151 75.1831,-293.4686 80.2793,-293.3953 85.386,-293.3953 90.4822,-293.4686"/>
<text text-anchor="middle" x="82.8326" y="-323.9543" font-family="Times,serif" font-size="14.00" fill="#000000">yakcollective.org</text>
<text text-anchor="middle" x="82.8326" y="-308.9543" font-family="Times,serif" font-size="14.00" fill="#000000">@gmail.com</text>
</a>
</g>
</g>
<!-- calandar -->
<g id="node2" class="node">
<title>calandar</title>
<g id="a_node2"><a xlink:href="https://tilnow.github.io/calandar.html" xlink:title="google\ncalandar">
<ellipse fill="none" stroke="#00ff00" cx="231.8326" cy="-320.1543" rx="43.6951" ry="43.6951"/>
<ellipse fill="none" stroke="#00ff00" cx="231.8326" cy="-320.1543" rx="47.6818" ry="47.6818"/>
<text text-anchor="middle" x="231.8326" y="-323.9543" font-family="Times,serif" font-size="14.00" fill="#000000">google</text>
<text text-anchor="middle" x="231.8326" y="-308.9543" font-family="Times,serif" font-size="14.00" fill="#000000">calandar</text>
</a>
</g>
</g>
<!-- docs -->
<g id="node3" class="node">
<title>docs</title>
<g id="a_node3"><a xlink:href="https://tilnow.github.io/docs.html" xlink:title="google docs">
<ellipse fill="none" stroke="#00ff00" cx="354.8326" cy="-320.1543" rx="53.1055" ry="53.1055"/>
<ellipse fill="none" stroke="#00ff00" cx="354.8326" cy="-320.1543" rx="57.0913" ry="57.0913"/>
<text text-anchor="middle" x="354.8326" y="-316.4543" font-family="Times,serif" font-size="14.00" fill="#000000">google docs</text>
</a>
</g>
</g>
<!-- forms -->
<g id="node4" class="node">
<title>forms</title>
<g id="a_node4"><a xlink:href="https://tilnow.github.io/forms.html" xlink:title="registration\nform">
<ellipse fill="none" stroke="#00ff00" cx="488.8326" cy="-320.1543" rx="55.2986" ry="55.2986"/>
<ellipse fill="none" stroke="#00ff00" cx="488.8326" cy="-320.1543" rx="59.3091" ry="59.3091"/>
<text text-anchor="middle" x="488.8326" y="-323.9543" font-family="Times,serif" font-size="14.00" fill="#000000">registration</text>
<text text-anchor="middle" x="488.8326" y="-308.9543" font-family="Times,serif" font-size="14.00" fill="#000000">form</text>
</a>
</g>
</g>
<!-- ifttt -->
<g id="node5" class="node">
<title>ifttt</title>
<g id="a_node5"><a xlink:href="https://tilnow.github.io/ifttt.html" xlink:title="IFTT">
<polygon fill="none" stroke="#00ff00" points="599.7285,-302.2037 601.6458,-302.3022 603.5432,-302.4497 605.4131,-302.6457 607.2478,-302.8897 609.0401,-303.181 610.7827,-303.5188 612.469,-303.9022 614.0925,-304.3302 615.6472,-304.8015 617.1275,-305.315 618.5283,-305.8691 619.8449,-306.4623 621.073,-307.0931 622.2092,-307.7597 623.2502,-308.4603 624.1935,-309.1929 625.037,-309.9555 625.7793,-310.7461 626.4195,-311.5625 626.957,-312.4025 627.3921,-313.2637 627.7253,-314.1437 627.9577,-315.0403 628.0908,-315.9509 628.1266,-316.873 628.0675,-317.8041 627.9161,-318.7416 627.6755,-319.683 627.349,-320.6257 626.9403,-321.5671 626.453,-322.5046 625.8911,-323.4357 625.2588,-324.3578 624.5603,-325.2684 623.7996,-326.1649 622.9812,-327.045 622.1092,-327.9062 621.1879,-328.7461 620.2213,-329.5625 619.2134,-330.3531 618.1681,-331.1158 617.0891,-331.8484 615.9798,-332.549 614.8437,-333.2155 613.6837,-333.8463 612.5029,-334.4396 611.3039,-334.9937 610.0892,-335.5071 608.8609,-335.9785 607.6212,-336.4064 606.3718,-336.7899 605.1144,-337.1277 603.8504,-337.419 602.5811,-337.663 601.3077,-337.859 600.0313,-338.0065 598.7527,-338.105 597.4728,-338.1543 596.1925,-338.1543 594.9126,-338.105 593.634,-338.0065 592.3576,-337.859 591.0842,-337.663 589.8149,-337.419 588.5509,-337.1277 587.2935,-336.7899 586.0441,-336.4064 584.8044,-335.9785 583.5761,-335.5071 582.3614,-334.9937 581.1624,-334.4396 579.9816,-333.8463 578.8216,-333.2155 577.6855,-332.549 576.5762,-331.8484 575.4972,-331.1158 574.4519,-330.3531 573.444,-329.5625 572.4774,-328.7461 571.5561,-327.9062 570.6841,-327.045 569.8657,-326.1649 569.105,-325.2684 568.4065,-324.3578 567.7742,-323.4357 567.2123,-322.5046 566.725,-321.5671 566.3163,-320.6257 565.9898,-319.683 565.7492,-318.7416 565.5978,-317.8041 565.5387,-316.873 565.5745,-315.9509 565.7076,-315.0403 565.94,-314.1437 566.2732,-313.2637 566.7083,-312.4025 567.2458,-311.5625 567.886,-310.7461 568.6283,-309.9555 569.4718,-309.1929 570.4151,-308.4603 571.4561,-307.7597 572.5923,-307.0931 573.8204,-306.4623 575.137,-305.8691 576.5378,-305.315 578.0181,-304.8015 579.5728,-304.3302 581.1963,-303.9022 582.8826,-303.5188 584.6252,-303.181 586.4175,-302.8897 588.2522,-302.6457 590.1221,-302.4497 592.0195,-302.3022 593.9368,-302.2037 595.866,-302.1543 597.7993,-302.1543 599.7285,-302.2037"/>
<text text-anchor="middle" x="596.8326" y="-316.4543" font-family="Times,serif" font-size="14.00" fill="#000000">IFTT</text>
</a>
</g>
</g>
<!-- carl -->
<g id="node6" class="node">
<title>carl</title>
<g id="a_node6"><a xlink:href="https://tilnow.github.io/carl.html" xlink:title="Carl">
<polygon fill="none" stroke="#00ff00" points="677.5152,-302.2037 679.2912,-302.3022 681.0489,-302.4497 682.7811,-302.6457 684.4807,-302.8897 686.1409,-303.181 687.7552,-303.5188 689.3173,-303.9022 690.8212,-304.3302 692.2614,-304.8015 693.6327,-305.315 694.9303,-305.8691 696.1499,-306.4623 697.2876,-307.0931 698.34,-307.7597 699.3044,-308.4603 700.1782,-309.1929 700.9596,-309.9555 701.6472,-310.7461 702.2402,-311.5625 702.7382,-312.4025 703.1412,-313.2637 703.4498,-314.1437 703.6651,-315.0403 703.7884,-315.9509 703.8216,-316.873 703.7668,-317.8041 703.6266,-318.7416 703.4037,-319.683 703.1013,-320.6257 702.7226,-321.5671 702.2713,-322.5046 701.7508,-323.4357 701.1651,-324.3578 700.5179,-325.2684 699.8133,-326.1649 699.0552,-327.045 698.2474,-327.9062 697.394,-328.7461 696.4986,-329.5625 695.5649,-330.3531 694.5966,-331.1158 693.597,-331.8484 692.5695,-332.549 691.517,-333.2155 690.4425,-333.8463 689.3487,-334.4396 688.238,-334.9937 687.1128,-335.5071 685.975,-335.9785 684.8266,-336.4064 683.6692,-336.7899 682.5044,-337.1277 681.3335,-337.419 680.1577,-337.663 678.9781,-337.859 677.7957,-338.0065 676.6112,-338.105 675.4256,-338.1543 674.2397,-338.1543 673.0541,-338.105 671.8696,-338.0065 670.6872,-337.859 669.5076,-337.663 668.3318,-337.419 667.1609,-337.1277 665.9961,-336.7899 664.8387,-336.4064 663.6903,-335.9785 662.5525,-335.5071 661.4273,-334.9937 660.3166,-334.4396 659.2228,-333.8463 658.1483,-333.2155 657.0958,-332.549 656.0683,-331.8484 655.0687,-331.1158 654.1004,-330.3531 653.1667,-329.5625 652.2713,-328.7461 651.4179,-327.9062 650.6101,-327.045 649.852,-326.1649 649.1474,-325.2684 648.5002,-324.3578 647.9145,-323.4357 647.394,-322.5046 646.9427,-321.5671 646.564,-320.6257 646.2616,-319.683 646.0387,-318.7416 645.8985,-317.8041 645.8437,-316.873 645.8769,-315.9509 646.0002,-315.0403 646.2155,-314.1437 646.5241,-313.2637 646.9271,-312.4025 647.4251,-311.5625 648.0181,-310.7461 648.7057,-309.9555 649.4871,-309.1929 650.3609,-308.4603 651.3253,-307.7597 652.3777,-307.0931 653.5154,-306.4623 654.735,-305.8691 656.0326,-305.315 657.4039,-304.8015 658.8441,-304.3302 660.348,-303.9022 661.9101,-303.5188 663.5244,-303.181 665.1846,-302.8897 666.8842,-302.6457 668.6164,-302.4497 670.3741,-302.3022 672.1501,-302.2037 673.9372,-302.1543 675.7281,-302.1543 677.5152,-302.2037"/>
<text text-anchor="middle" x="674.8326" y="-316.4543" font-family="Times,serif" font-size="14.00" fill="#000000">Carl</text>
</a>
</g>
</g>
<!-- discord -->
<g id="node7" class="node">
<title>discord</title>
<g id="a_node7"><a xlink:href="https://tilnow.github.io/discord.html" xlink:title="Discord">
<ellipse fill="none" stroke="#00ff00" cx="763.8326" cy="-320.1543" rx="38.2082" ry="38.2082"/>
<ellipse fill="none" stroke="#00ff00" cx="763.8326" cy="-320.1543" rx="42.1937" ry="42.1937"/>
<text text-anchor="middle" x="763.8326" y="-316.4543" font-family="Times,serif" font-size="14.00" fill="#000000">Discord</text>
</a>
</g>
</g>
<!-- dns -->
<g id="node8" class="node">
<title>dns</title>
<g id="a_node8"><a xlink:href="https://tilnow.github.io/dns.html" xlink:title="Namecheap">
<polygon fill="none" stroke="#00ff00" points="885.0265,-302.2037 888.4653,-302.3022 891.8685,-302.4497 895.2223,-302.6457 898.513,-302.8897 901.7275,-303.181 904.8531,-303.5188 907.8775,-303.9022 910.7894,-304.3302 913.5779,-304.8015 916.233,-305.315 918.7454,-305.8691 921.1067,-306.4623 923.3095,-307.0931 925.3473,-307.7597 927.2144,-308.4603 928.9062,-309.1929 930.4192,-309.9555 931.7506,-310.7461 932.8987,-311.5625 933.8629,-312.4025 934.6432,-313.2637 935.2408,-314.1437 935.6576,-315.0403 935.8964,-315.9509 935.9606,-316.873 935.8546,-317.8041 935.583,-318.7416 935.1515,-319.683 934.566,-320.6257 933.8328,-321.5671 932.9588,-322.5046 931.9511,-323.4357 930.8171,-324.3578 929.5641,-325.2684 928.1998,-326.1649 926.7319,-327.045 925.168,-327.9062 923.5155,-328.7461 921.7818,-329.5625 919.9741,-330.3531 918.0993,-331.1158 916.164,-331.8484 914.1744,-332.549 912.1367,-333.2155 910.0563,-333.8463 907.9384,-334.4396 905.7879,-334.9937 903.6092,-335.5071 901.4062,-335.9785 899.1827,-336.4064 896.9418,-336.7899 894.6866,-337.1277 892.4195,-337.419 890.143,-337.663 887.8591,-337.859 885.5696,-338.0065 883.2763,-338.105 880.9808,-338.1543 878.6845,-338.1543 876.389,-338.105 874.0957,-338.0065 871.8062,-337.859 869.5223,-337.663 867.2458,-337.419 864.9787,-337.1277 862.7235,-336.7899 860.4826,-336.4064 858.2591,-335.9785 856.0561,-335.5071 853.8774,-334.9937 851.7269,-334.4396 849.609,-333.8463 847.5286,-333.2155 845.4909,-332.549 843.5013,-331.8484 841.566,-331.1158 839.6912,-330.3531 837.8835,-329.5625 836.1498,-328.7461 834.4973,-327.9062 832.9334,-327.045 831.4655,-326.1649 830.1012,-325.2684 828.8482,-324.3578 827.7142,-323.4357 826.7065,-322.5046 825.8325,-321.5671 825.0993,-320.6257 824.5138,-319.683 824.0823,-318.7416 823.8107,-317.8041 823.7047,-316.873 823.7689,-315.9509 824.0077,-315.0403 824.4245,-314.1437 825.0221,-313.2637 825.8024,-312.4025 826.7666,-311.5625 827.9147,-310.7461 829.2461,-309.9555 830.7591,-309.1929 832.4509,-308.4603 834.318,-307.7597 836.3558,-307.0931 838.5586,-306.4623 840.9199,-305.8691 843.4323,-305.315 846.0874,-304.8015 848.8759,-304.3302 851.7878,-303.9022 854.8122,-303.5188 857.9378,-303.181 861.1523,-302.8897 864.443,-302.6457 867.7968,-302.4497 871.2,-302.3022 874.6388,-302.2037 878.099,-302.1543 881.5663,-302.1543 885.0265,-302.2037"/>
<text text-anchor="middle" x="879.8326" y="-316.4543" font-family="Times,serif" font-size="14.00" fill="#000000">Namecheap</text>
</a>
</g>
</g>
<!-- roam -->
<g id="node9" class="node">
<title>roam</title>
<g id="a_node9"><a xlink:href="https://tilnow.github.io/roam.html" xlink:title="Roam">
<ellipse fill="none" stroke="#00ff00" cx="990.8326" cy="-320.1543" rx="32.4945" ry="32.4945"/>
<ellipse fill="none" stroke="#00ff00" cx="990.8326" cy="-320.1543" rx="36.4942" ry="36.4942"/>
<text text-anchor="middle" x="990.8326" y="-316.4543" font-family="Times,serif" font-size="14.00" fill="#000000">Roam</text>
</a>
</g>
</g>
<!-- substack -->
<g id="node10" class="node">
<title>substack</title>
<g id="a_node10"><a xlink:href="https://tilnow.github.io/substack.html" xlink:title="Substack">
<polygon fill="none" stroke="#00ff00" points="1129.8326,-343.1543 1045.3476,-308.6543 1214.3177,-308.6543 1129.8326,-343.1543"/>
<text text-anchor="middle" x="1129.8326" y="-316.4543" font-family="Times,serif" font-size="14.00" fill="#000000">Substack</text>
</a>
</g>
</g>
<!-- blogs -->
<g id="node11" class="node">
<title>blogs</title>
<g id="a_node11"><a xlink:href="https://tilnow.github.io/blogs.html" xlink:title="member\nblogs">
<polygon fill="none" stroke="#00ff00" points="1319.8326,-374.1356 1231.9698,-293.1637 1407.6955,-293.1637 1319.8326,-374.1356"/>
<text text-anchor="middle" x="1319.8326" y="-323.9543" font-family="Times,serif" font-size="14.00" fill="#000000">member</text>
<text text-anchor="middle" x="1319.8326" y="-308.9543" font-family="Times,serif" font-size="14.00" fill="#000000">blogs</text>
</a>
</g>
</g>
<!-- websites -->
<g id="node12" class="node">
<title>websites</title>
<g id="a_node12"><a xlink:href="https://tilnow.github.io/websites.html" xlink:title="member\nwebsites">
<polygon fill="none" stroke="#00ff00" points="1514.8326,-374.1356 1425.6416,-293.1637 1604.0237,-293.1637 1514.8326,-374.1356"/>
<text text-anchor="middle" x="1514.8326" y="-323.9543" font-family="Times,serif" font-size="14.00" fill="#000000">member</text>
<text text-anchor="middle" x="1514.8326" y="-308.9543" font-family="Times,serif" font-size="14.00" fill="#000000">websites</text>
</a>
</g>
</g>
<!-- twitter -->
<g id="node13" class="node">
<title>twitter</title>
<g id="a_node13"><a xlink:href="https://tilnow.github.io/twitter.html" xlink:title="Twitter">
<polygon fill="none" stroke="#00ff00" points="1664.3973,-302.2037 1666.7575,-302.3022 1669.0932,-302.4497 1671.3949,-302.6457 1673.6534,-302.8897 1675.8596,-303.181 1678.0048,-303.5188 1680.0805,-303.9022 1682.079,-304.3302 1683.9929,-304.8015 1685.8151,-305.315 1687.5394,-305.8691 1689.16,-306.4623 1690.6719,-307.0931 1692.0705,-307.7597 1693.3519,-308.4603 1694.513,-309.1929 1695.5514,-309.9555 1696.4652,-310.7461 1697.2532,-311.5625 1697.9149,-312.4025 1698.4505,-313.2637 1698.8606,-314.1437 1699.1467,-315.0403 1699.3106,-315.9509 1699.3546,-316.873 1699.2819,-317.8041 1699.0955,-318.7416 1698.7993,-319.683 1698.3975,-320.6257 1697.8943,-321.5671 1697.2945,-322.5046 1696.6028,-323.4357 1695.8245,-324.3578 1694.9646,-325.2684 1694.0282,-326.1649 1693.0208,-327.045 1691.9474,-327.9062 1690.8133,-328.7461 1689.6234,-329.5625 1688.3827,-330.3531 1687.096,-331.1158 1685.7677,-331.8484 1684.4023,-332.549 1683.0037,-333.2155 1681.5759,-333.8463 1680.1223,-334.4396 1678.6464,-334.9937 1677.1511,-335.5071 1675.6391,-335.9785 1674.1131,-336.4064 1672.5751,-336.7899 1671.0273,-337.1277 1669.4713,-337.419 1667.9089,-337.663 1666.3414,-337.859 1664.7701,-338.0065 1663.1961,-338.105 1661.6206,-338.1543 1660.0447,-338.1543 1658.4692,-338.105 1656.8952,-338.0065 1655.3239,-337.859 1653.7564,-337.663 1652.194,-337.419 1650.638,-337.1277 1649.0902,-336.7899 1647.5522,-336.4064 1646.0262,-335.9785 1644.5142,-335.5071 1643.0189,-334.9937 1641.543,-334.4396 1640.0894,-333.8463 1638.6616,-333.2155 1637.263,-332.549 1635.8976,-331.8484 1634.5693,-331.1158 1633.2826,-330.3531 1632.0419,-329.5625 1630.852,-328.7461 1629.7179,-327.9062 1628.6445,-327.045 1627.6371,-326.1649 1626.7007,-325.2684 1625.8408,-324.3578 1625.0625,-323.4357 1624.3708,-322.5046 1623.771,-321.5671 1623.2678,-320.6257 1622.866,-319.683 1622.5698,-318.7416 1622.3834,-317.8041 1622.3106,-316.873 1622.3547,-315.9509 1622.5186,-315.0403 1622.8047,-314.1437 1623.2148,-313.2637 1623.7504,-312.4025 1624.4121,-311.5625 1625.2001,-310.7461 1626.1139,-309.9555 1627.1523,-309.1929 1628.3134,-308.4603 1629.5948,-307.7597 1630.9934,-307.0931 1632.5053,-306.4623 1634.1259,-305.8691 1635.8502,-305.315 1637.6724,-304.8015 1639.5863,-304.3302 1641.5848,-303.9022 1643.6605,-303.5188 1645.8057,-303.181 1648.0119,-302.8897 1650.2704,-302.6457 1652.5721,-302.4497 1654.9078,-302.3022 1657.268,-302.2037 1659.6428,-302.1543 1662.0225,-302.1543 1664.3973,-302.2037"/>
<text text-anchor="middle" x="1660.8326" y="-316.4543" font-family="Times,serif" font-size="14.00" fill="#000000">Twitter</text>
</a>
</g>
</g>
<!-- facebook -->
<g id="node14" class="node">
<title>facebook</title>
<g id="a_node14"><a xlink:href="https://tilnow.github.io/facebook.html" xlink:title="Facebook">
<polygon fill="none" stroke="#00ff00" points="1770.2298,-302.2037 1773.141,-302.3022 1776.0222,-302.4497 1778.8614,-302.6457 1781.6473,-302.8897 1784.3687,-303.181 1787.0148,-303.5188 1789.5753,-303.9022 1792.0405,-304.3302 1794.4012,-304.8015 1796.6489,-305.315 1798.7759,-305.8691 1800.775,-306.4623 1802.6399,-307.0931 1804.365,-307.7597 1805.9457,-308.4603 1807.378,-309.1929 1808.6589,-309.9555 1809.786,-310.7461 1810.758,-311.5625 1811.5743,-312.4025 1812.2349,-313.2637 1812.7408,-314.1437 1813.0937,-315.0403 1813.2958,-315.9509 1813.3502,-316.873 1813.2604,-317.8041 1813.0306,-318.7416 1812.6653,-319.683 1812.1695,-320.6257 1811.5488,-321.5671 1810.8089,-322.5046 1809.9558,-323.4357 1808.9957,-324.3578 1807.935,-325.2684 1806.78,-326.1649 1805.5373,-327.045 1804.2133,-327.9062 1802.8143,-328.7461 1801.3466,-329.5625 1799.8162,-330.3531 1798.2289,-331.1158 1796.5905,-331.8484 1794.9062,-332.549 1793.181,-333.2155 1791.4198,-333.8463 1789.6268,-334.4396 1787.8062,-334.9937 1785.9617,-335.5071 1784.0967,-335.9785 1782.2143,-336.4064 1780.3172,-336.7899 1778.4079,-337.1277 1776.4886,-337.419 1774.5613,-337.663 1772.6278,-337.859 1770.6895,-338.0065 1768.748,-338.105 1766.8047,-338.1543 1764.8606,-338.1543 1762.9173,-338.105 1760.9758,-338.0065 1759.0375,-337.859 1757.104,-337.663 1755.1767,-337.419 1753.2574,-337.1277 1751.3481,-336.7899 1749.451,-336.4064 1747.5686,-335.9785 1745.7036,-335.5071 1743.8591,-334.9937 1742.0385,-334.4396 1740.2455,-333.8463 1738.4843,-333.2155 1736.7591,-332.549 1735.0748,-331.8484 1733.4364,-331.1158 1731.8491,-330.3531 1730.3187,-329.5625 1728.851,-328.7461 1727.452,-327.9062 1726.128,-327.045 1724.8853,-326.1649 1723.7303,-325.2684 1722.6696,-324.3578 1721.7095,-323.4357 1720.8564,-322.5046 1720.1165,-321.5671 1719.4958,-320.6257 1719,-319.683 1718.6347,-318.7416 1718.4049,-317.8041 1718.3151,-316.873 1718.3695,-315.9509 1718.5716,-315.0403 1718.9245,-314.1437 1719.4304,-313.2637 1720.091,-312.4025 1720.9073,-311.5625 1721.8793,-310.7461 1723.0064,-309.9555 1724.2873,-309.1929 1725.7196,-308.4603 1727.3003,-307.7597 1729.0254,-307.0931 1730.8903,-306.4623 1732.8894,-305.8691 1735.0164,-305.315 1737.2641,-304.8015 1739.6248,-304.3302 1742.09,-303.9022 1744.6505,-303.5188 1747.2966,-303.181 1750.018,-302.8897 1752.8039,-302.6457 1755.6431,-302.4497 1758.5243,-302.3022 1761.4355,-302.2037 1764.3649,-302.1543 1767.3004,-302.1543 1770.2298,-302.2037"/>
<text text-anchor="middle" x="1765.8326" y="-316.4543" font-family="Times,serif" font-size="14.00" fill="#000000">Facebook</text>
</a>
</g>
</g>
<!-- linkedin -->
<g id="node15" class="node">
<title>linkedin</title>
<g id="a_node15"><a xlink:href="https://tilnow.github.io/linkedin.html" xlink:title="Linkedin">
<polygon fill="none" stroke="#00ff00" points="1880.9949,-302.2037 1883.7506,-302.3022 1886.4778,-302.4497 1889.1654,-302.6457 1891.8025,-302.8897 1894.3785,-303.181 1896.8832,-303.5188 1899.3069,-303.9022 1901.6404,-304.3302 1903.8751,-304.8015 1906.0027,-305.315 1908.0161,-305.8691 1909.9084,-306.4623 1911.6736,-307.0931 1913.3066,-307.7597 1914.8029,-308.4603 1916.1587,-309.1929 1917.3711,-309.9555 1918.438,-310.7461 1919.3581,-311.5625 1920.1307,-312.4025 1920.7561,-313.2637 1921.235,-314.1437 1921.569,-315.0403 1921.7604,-315.9509 1921.8118,-316.873 1921.7268,-317.8041 1921.5092,-318.7416 1921.1634,-319.683 1920.6942,-320.6257 1920.1067,-321.5671 1919.4063,-322.5046 1918.5988,-323.4357 1917.6899,-324.3578 1916.6859,-325.2684 1915.5926,-326.1649 1914.4163,-327.045 1913.163,-327.9062 1911.8387,-328.7461 1910.4494,-329.5625 1909.0008,-330.3531 1907.4983,-331.1158 1905.9474,-331.8484 1904.3531,-332.549 1902.7201,-333.2155 1901.0529,-333.8463 1899.3557,-334.4396 1897.6324,-334.9937 1895.8864,-335.5071 1894.121,-335.9785 1892.3392,-336.4064 1890.5434,-336.7899 1888.7361,-337.1277 1886.9194,-337.419 1885.095,-337.663 1883.2648,-337.859 1881.4301,-338.0065 1879.5923,-338.105 1877.7527,-338.1543 1875.9126,-338.1543 1874.073,-338.105 1872.2352,-338.0065 1870.4005,-337.859 1868.5703,-337.663 1866.7459,-337.419 1864.9292,-337.1277 1863.1219,-336.7899 1861.3261,-336.4064 1859.5443,-335.9785 1857.7789,-335.5071 1856.0329,-334.9937 1854.3096,-334.4396 1852.6124,-333.8463 1850.9452,-333.2155 1849.3122,-332.549 1847.7179,-331.8484 1846.167,-331.1158 1844.6645,-330.3531 1843.2159,-329.5625 1841.8266,-328.7461 1840.5023,-327.9062 1839.249,-327.045 1838.0727,-326.1649 1836.9794,-325.2684 1835.9754,-324.3578 1835.0665,-323.4357 1834.259,-322.5046 1833.5586,-321.5671 1832.9711,-320.6257 1832.5019,-319.683 1832.1561,-318.7416 1831.9385,-317.8041 1831.8535,-316.873 1831.9049,-315.9509 1832.0963,-315.0403 1832.4303,-314.1437 1832.9092,-313.2637 1833.5346,-312.4025 1834.3072,-311.5625 1835.2273,-310.7461 1836.2942,-309.9555 1837.5066,-309.1929 1838.8624,-308.4603 1840.3587,-307.7597 1841.9917,-307.0931 1843.7569,-306.4623 1845.6492,-305.8691 1847.6626,-305.315 1849.7902,-304.8015 1852.0249,-304.3302 1854.3584,-303.9022 1856.7821,-303.5188 1859.2868,-303.181 1861.8628,-302.8897 1864.4999,-302.6457 1867.1875,-302.4497 1869.9147,-302.3022 1872.6704,-302.2037 1875.4433,-302.1543 1878.222,-302.1543 1880.9949,-302.2037"/>
<text text-anchor="middle" x="1876.8326" y="-316.4543" font-family="Times,serif" font-size="14.00" fill="#000000">Linkedin</text>
</a>
</g>
</g>
<!-- knack -->
<g id="node16" class="node">
<title>knack</title>
<g id="a_node16"><a xlink:href="https://tilnow.github.io/knack.html" xlink:title="Knack">
<ellipse fill="none" stroke="#00ff00" cx="1977.8326" cy="-320.1543" rx="33.6165" ry="33.6165"/>
<ellipse fill="none" stroke="#00ff00" cx="1977.8326" cy="-320.1543" rx="37.5951" ry="37.5951"/>
<text text-anchor="middle" x="1977.8326" y="-316.4543" font-family="Times,serif" font-size="14.00" fill="#000000">Knack</text>
</a>
</g>
</g>
<!-- github -->
<g id="node17" class="node">
<title>github</title>
<g id="a_node17"><a xlink:href="https://tilnow.github.io/github.html" xlink:title="github">
<polygon fill="none" stroke="#00ff00" points="2072.0807,-302.2037 2074.2312,-302.3022 2076.3594,-302.4497 2078.4567,-302.6457 2080.5146,-302.8897 2082.5248,-303.181 2084.4794,-303.5188 2086.3708,-303.9022 2088.1918,-304.3302 2089.9356,-304.8015 2091.596,-305.315 2093.1671,-305.8691 2094.6438,-306.4623 2096.0213,-307.0931 2097.2957,-307.7597 2098.4633,-308.4603 2099.5213,-309.1929 2100.4674,-309.9555 2101.3,-310.7461 2102.018,-311.5625 2102.621,-312.4025 2103.109,-313.2637 2103.4827,-314.1437 2103.7433,-315.0403 2103.8927,-315.9509 2103.9328,-316.873 2103.8665,-317.8041 2103.6967,-318.7416 2103.4269,-319.683 2103.0607,-320.6257 2102.6022,-321.5671 2102.0556,-322.5046 2101.4255,-323.4357 2100.7163,-324.3578 2099.9327,-325.2684 2099.0796,-326.1649 2098.1616,-327.045 2097.1836,-327.9062 2096.1502,-328.7461 2095.066,-329.5625 2093.9355,-330.3531 2092.7631,-331.1158 2091.5528,-331.8484 2090.3086,-332.549 2089.0343,-333.2155 2087.7333,-333.8463 2086.4089,-334.4396 2085.064,-334.9937 2083.7015,-335.5071 2082.3239,-335.9785 2080.9334,-336.4064 2079.532,-336.7899 2078.1217,-337.1277 2076.704,-337.419 2075.2803,-337.663 2073.852,-337.859 2072.4203,-338.0065 2070.9862,-338.105 2069.5506,-338.1543 2068.1147,-338.1543 2066.6791,-338.105 2065.245,-338.0065 2063.8133,-337.859 2062.385,-337.663 2060.9613,-337.419 2059.5436,-337.1277 2058.1333,-336.7899 2056.7319,-336.4064 2055.3414,-335.9785 2053.9638,-335.5071 2052.6013,-334.9937 2051.2564,-334.4396 2049.932,-333.8463 2048.631,-333.2155 2047.3567,-332.549 2046.1125,-331.8484 2044.9022,-331.1158 2043.7298,-330.3531 2042.5993,-329.5625 2041.5151,-328.7461 2040.4817,-327.9062 2039.5037,-327.045 2038.5857,-326.1649 2037.7326,-325.2684 2036.949,-324.3578 2036.2398,-323.4357 2035.6097,-322.5046 2035.0631,-321.5671 2034.6046,-320.6257 2034.2384,-319.683 2033.9686,-318.7416 2033.7988,-317.8041 2033.7325,-316.873 2033.7726,-315.9509 2033.922,-315.0403 2034.1826,-314.1437 2034.5563,-313.2637 2035.0443,-312.4025 2035.6473,-311.5625 2036.3653,-310.7461 2037.1979,-309.9555 2038.144,-309.1929 2039.202,-308.4603 2040.3696,-307.7597 2041.644,-307.0931 2043.0215,-306.4623 2044.4982,-305.8691 2046.0693,-305.315 2047.7297,-304.8015 2049.4735,-304.3302 2051.2945,-303.9022 2053.1859,-303.5188 2055.1405,-303.181 2057.1507,-302.8897 2059.2086,-302.6457 2061.3059,-302.4497 2063.4341,-302.3022 2065.5846,-302.2037 2067.7485,-302.1543 2069.9168,-302.1543 2072.0807,-302.2037"/>
<text text-anchor="middle" x="2068.8326" y="-316.4543" font-family="Times,serif" font-size="14.00" fill="#000000">github</text>
</a>
</g>
</g>
<!-- jekyll -->
<g id="node19" class="node">
<title>jekyll</title>
<g id="a_node19"><a xlink:href="https://tilnow.github.io/jekyll.html" xlink:title="jekyll">
<polygon fill="none" stroke="#0000ff" points="2095.8326,-210 2041.8326,-210 2041.8326,-174 2095.8326,-174 2095.8326,-210"/>
<text text-anchor="middle" x="2068.8326" y="-188.3" font-family="Times,serif" font-size="14.00" fill="#000000">jekyll</text>
</a>
</g>
</g>
<!-- github&#45;&gt;jekyll -->
<g id="edge1" class="edge">
<title>github&#45;&gt;jekyll</title>
<g id="a_edge1"><a xlink:href="https://tilnow.github.io/mdfiles.html" xlink:title="md files">
<path fill="none" stroke="#ff0000" d="M2068.8326,-302.0648C2068.8326,-280.9089 2068.8326,-245.6175 2068.8326,-220.709"/>
<polygon fill="#ff0000" stroke="#ff0000" points="2072.3327,-220.4125 2068.8326,-210.4125 2065.3327,-220.4126 2072.3327,-220.4125"/>
</a>
</g>
<g id="a_edge1&#45;label"><a xlink:href="https://tilnow.github.io/mdfiles.html" xlink:title="md files">
<text text-anchor="middle" x="2091.8326" y="-231.8" font-family="Times,serif" font-size="14.00" fill="#000000">md files</text>
</a>
</g>
</g>
<!-- netlify -->
<g id="node18" class="node">
<title>netlify</title>
<g id="a_node18"><a xlink:href="https://tilnow.github.io/netlify.html" xlink:title="netlify">
<polygon fill="none" stroke="#00ff00" points="2072.1624,-87.0493 2074.367,-87.1479 2076.5488,-87.2953 2078.6989,-87.4913 2080.8085,-87.7353 2082.8693,-88.0266 2084.8731,-88.3645 2086.8121,-88.7479 2088.6789,-89.1759 2090.4666,-89.6472 2092.1687,-90.1606 2093.7794,-90.7147 2095.2932,-91.308 2096.7054,-91.9388 2098.0118,-92.6054 2099.2088,-93.3059 2100.2935,-94.0385 2101.2634,-94.8012 2102.117,-95.5918 2102.853,-96.4082 2103.4711,-97.2481 2103.9714,-98.1093 2104.3545,-98.9894 2104.6217,-99.886 2104.7748,-100.7965 2104.816,-101.7186 2104.748,-102.6497 2104.5739,-103.5873 2104.2973,-104.5287 2103.9219,-105.4713 2103.4519,-106.4127 2102.8916,-107.3503 2102.2455,-108.2814 2101.5185,-109.2035 2100.7152,-110.114 2099.8406,-111.0106 2098.8995,-111.8907 2097.8969,-112.7519 2096.8375,-113.5918 2095.726,-114.4082 2094.5671,-115.1988 2093.3652,-115.9615 2092.1245,-116.6941 2090.849,-117.3946 2089.5426,-118.0612 2088.2089,-118.692 2086.8511,-119.2853 2085.4724,-119.8394 2084.0757,-120.3528 2082.6634,-120.8241 2081.2379,-121.2521 2079.8013,-121.6355 2078.3554,-121.9734 2076.902,-122.2647 2075.4425,-122.5087 2073.9783,-122.7047 2072.5106,-122.8521 2071.0404,-122.9507 2069.5687,-123 2068.0966,-123 2066.6249,-122.9507 2065.1547,-122.8521 2063.687,-122.7047 2062.2228,-122.5087 2060.7633,-122.2647 2059.3099,-121.9734 2057.864,-121.6355 2056.4274,-121.2521 2055.0019,-120.8241 2053.5896,-120.3528 2052.1929,-119.8394 2050.8142,-119.2853 2049.4564,-118.692 2048.1227,-118.0612 2046.8163,-117.3946 2045.5408,-116.6941 2044.3001,-115.9615 2043.0982,-115.1988 2041.9393,-114.4082 2040.8278,-113.5918 2039.7684,-112.7519 2038.7658,-111.8907 2037.8247,-111.0106 2036.9501,-110.114 2036.1468,-109.2035 2035.4198,-108.2814 2034.7737,-107.3503 2034.2134,-106.4127 2033.7434,-105.4713 2033.368,-104.5287 2033.0914,-103.5873 2032.9173,-102.6497 2032.8493,-101.7186 2032.8905,-100.7965 2033.0436,-99.886 2033.3108,-98.9894 2033.6939,-98.1093 2034.1942,-97.2481 2034.8123,-96.4082 2035.5483,-95.5918 2036.4019,-94.8012 2037.3718,-94.0385 2038.4565,-93.3059 2039.6535,-92.6054 2040.9599,-91.9388 2042.3721,-91.308 2043.8859,-90.7147 2045.4966,-90.1606 2047.1987,-89.6472 2048.9864,-89.1759 2050.8532,-88.7479 2052.7922,-88.3645 2054.796,-88.0266 2056.8568,-87.7353 2058.9664,-87.4913 2061.1165,-87.2953 2063.2983,-87.1479 2065.5029,-87.0493 2067.7212,-87 2069.9441,-87 2072.1624,-87.0493"/>
<text text-anchor="middle" x="2068.8326" y="-101.3" font-family="Times,serif" font-size="14.00" fill="#000000">netlify</text>
</a>
</g>
</g>
<!-- web -->
<g id="node20" class="node">
<title>web</title>
<ellipse fill="none" stroke="#000000" cx="2068.8326" cy="-18" rx="27" ry="18"/>
<text text-anchor="middle" x="2068.8326" y="-14.3" font-family="Times,serif" font-size="14.00" fill="#000000">web</text>
</g>
<!-- netlify&#45;&gt;web -->
<g id="edge3" class="edge">
<title>netlify&#45;&gt;web</title>
<g id="a_edge3"><a xlink:href="https://tilnow.github.io/website.html" xlink:title="our website">
<path fill="none" stroke="#ff0000" d="M2068.8326,-86.9735C2068.8326,-75.1918 2068.8326,-59.5607 2068.8326,-46.1581"/>
<polygon fill="#ff0000" stroke="#ff0000" points="2072.3327,-46.0033 2068.8326,-36.0034 2065.3327,-46.0034 2072.3327,-46.0033"/>
</a>
</g>
<g id="a_edge3&#45;label"><a xlink:href="https://tilnow.github.io/website.html" xlink:title="our website">
<text text-anchor="middle" x="2100.8326" y="-57.8" font-family="Times,serif" font-size="14.00" fill="#000000">our website</text>
</a>
</g>
</g>
<!-- jekyll&#45;&gt;netlify -->
<g id="edge2" class="edge">
<title>jekyll&#45;&gt;netlify</title>
<g id="a_edge2"><a xlink:href="https://tilnow.github.io/rendered website.html" xlink:title="rendered website">
<path fill="none" stroke="#ff0000" d="M2068.8326,-173.9735C2068.8326,-162.1918 2068.8326,-146.5607 2068.8326,-133.1581"/>
<polygon fill="#ff0000" stroke="#ff0000" points="2072.3327,-133.0033 2068.8326,-123.0034 2065.3327,-133.0034 2072.3327,-133.0033"/>
</a>
</g>
<g id="a_edge2&#45;label"><a xlink:href="https://tilnow.github.io/rendered website.html" xlink:title="rendered website">
<text text-anchor="middle" x="2115.3326" y="-144.8" font-family="Times,serif" font-size="14.00" fill="#000000">rendered website</text>
</a>
</g>
</g>
</g>
</svg>
