<?xml version="1.0" encoding="UTF-8" standalone="no"?>
<!DOCTYPE svg PUBLIC "-//W3C//DTD SVG 1.1//EN"
 "http://www.w3.org/Graphics/SVG/1.1/DTD/svg11.dtd">
<!-- Generated by graphviz version 2.40.1 (20161225.0304)
 -->
<!-- Title: G Pages: 1 -->
<svg width="2521pt" height="442pt"
 viewBox="0.00 0.00 2520.97 441.69" xmlns="http://www.w3.org/2000/svg" xmlns:xlink="http://www.w3.org/1999/xlink">
<g id="graph0" class="graph" transform="scale(1 1) rotate(0) translate(4 437.6874)">
<title>G</title>
<polygon fill="#ffffff" stroke="transparent" points="-4,4 -4,-437.6874 2516.9709,-437.6874 2516.9709,4 -4,4"/>
<text text-anchor="middle" x="1256.4854" y="-418.4874" font-family="Times,serif" font-size="14.00" fill="#000000">map of yak collective IT infrastructure (work in progress)</text>
<!-- gmail -->
<g id="node1" class="node">
<title>gmail</title>
<g id="a_node1"><a xlink:href="https://github.com/tilnow/tilnow.github.io/edit/master/gmail.md" xlink:title="yakcollective.org@gmail.com">
<polygon fill="none" stroke="#00ff00" points="137.6251,-317.8931 145.3411,-317.9916 152.9774,-318.1391 160.5026,-318.3351 167.8865,-318.579 175.0992,-318.8704 182.1125,-319.2082 188.8989,-319.5916 195.4327,-320.0196 201.6896,-320.4909 207.6471,-321.0044 213.2845,-321.5585 218.5829,-322.1517 223.5256,-322.7825 228.098,-323.4491 232.2875,-324.1496 236.0837,-324.8823 239.4785,-325.6449 242.4659,-326.4355 245.0421,-327.2519 247.2055,-328.0919 248.9565,-328.9531 250.2974,-329.8331 251.2327,-330.7297 251.7684,-331.6403 251.9126,-332.5624 251.6746,-333.4934 251.0653,-334.431 250.0971,-335.3724 248.7832,-336.3151 247.1381,-337.2565 245.1771,-338.194 242.916,-339.1251 240.3713,-340.0472 237.5598,-340.9577 234.4987,-341.8543 231.205,-342.7344 227.6957,-343.5956 223.9878,-344.4355 220.0977,-345.2519 216.0415,-346.0425 211.8347,-346.8052 207.4922,-347.5378 203.028,-348.2383 198.4557,-348.9049 193.7876,-349.5357 189.0355,-350.129 184.2101,-350.6831 179.3214,-351.1965 174.3784,-351.6678 169.3891,-352.0958 164.361,-352.4792 159.3005,-352.8171 154.2136,-353.1084 149.1055,-353.3524 143.9808,-353.5484 138.8436,-353.6958 133.6979,-353.7944 128.5471,-353.8437 123.3946,-353.8437 118.2438,-353.7944 113.0981,-353.6958 107.961,-353.5484 102.8362,-353.3524 97.7281,-353.1084 92.6412,-352.8171 87.5807,-352.4792 82.5526,-352.0958 77.5634,-351.6678 72.6203,-351.1965 67.7316,-350.6831 62.9062,-350.129 58.1541,-349.5357 53.4861,-348.9049 48.9137,-348.2383 44.4495,-347.5378 40.107,-346.8052 35.9002,-346.0425 31.844,-345.2519 27.9539,-344.4355 24.246,-343.5956 20.7367,-342.7344 17.443,-341.8543 14.3819,-340.9577 11.5704,-340.0472 9.0257,-339.1251 6.7646,-338.194 4.8036,-337.2565 3.1585,-336.3151 1.8446,-335.3724 .8764,-334.431 .2671,-333.4934 .0291,-332.5624 .1733,-331.6403 .7091,-330.7297 1.6443,-329.8331 2.9852,-328.9531 4.7362,-328.0919 6.8996,-327.2519 9.4758,-326.4355 12.4632,-325.6449 15.858,-324.8823 19.6542,-324.1496 23.8437,-323.4491 28.4161,-322.7825 33.3588,-322.1517 38.6573,-321.5585 44.2946,-321.0044 50.2521,-320.4909 56.509,-320.0196 63.0428,-319.5916 69.8293,-319.2082 76.8425,-318.8704 84.0552,-318.579 91.4391,-318.3351 98.9643,-318.1391 106.6006,-317.9916 114.3166,-317.8931 122.0808,-317.8437 129.8609,-317.8437 137.6251,-317.8931"/>
<text text-anchor="middle" x="125.9709" y="-332.1437" font-family="Times,serif" font-size="14.00" fill="#000000">yakcollective.org@gmail.com</text>
</a>
</g>
</g>
<!-- calandar -->
<g id="node2" class="node">
<title>calandar</title>
<g id="a_node2"><a xlink:href="https://github.com/tilnow/tilnow.github.io/edit/master/calandar.md" xlink:title="google calandar">
<ellipse fill="none" stroke="#00ff00" cx="340.9709" cy="-335.8437" rx="66.8913" ry="66.8913"/>
<ellipse fill="none" stroke="#00ff00" cx="340.9709" cy="-335.8437" rx="70.8882" ry="70.8882"/>
<text text-anchor="middle" x="340.9709" y="-332.1437" font-family="Times,serif" font-size="14.00" fill="#000000">google calandar</text>
</a>
</g>
</g>
<!-- docs -->
<g id="node3" class="node">
<title>docs</title>
<g id="a_node3"><a xlink:href="https://github.com/tilnow/tilnow.github.io/edit/master/docs.md" xlink:title="google docs">
<ellipse fill="none" stroke="#00ff00" cx="486.9709" cy="-335.8437" rx="53.1055" ry="53.1055"/>
<ellipse fill="none" stroke="#00ff00" cx="486.9709" cy="-335.8437" rx="57.0913" ry="57.0913"/>
<text text-anchor="middle" x="486.9709" y="-332.1437" font-family="Times,serif" font-size="14.00" fill="#000000">google docs</text>
</a>
</g>
</g>
<!-- forms -->
<g id="node4" class="node">
<title>forms</title>
<g id="a_node4"><a xlink:href="https://github.com/tilnow/tilnow.github.io/edit/master/forms.md" xlink:title="registration form">
<ellipse fill="none" stroke="#00ff00" cx="636.9709" cy="-335.8437" rx="70.6961" ry="70.6961"/>
<ellipse fill="none" stroke="#00ff00" cx="636.9709" cy="-335.8437" rx="74.6878" ry="74.6878"/>
<text text-anchor="middle" x="636.9709" y="-332.1437" font-family="Times,serif" font-size="14.00" fill="#000000">registration form</text>
</a>
</g>
</g>
<!-- ifttt -->
<g id="node5" class="node">
<title>ifttt</title>
<g id="a_node5"><a xlink:href="https://github.com/tilnow/tilnow.github.io/edit/master/ifttt.md" xlink:title="IFTT">
<polygon fill="none" stroke="#00ff00" points="763.8667,-317.8931 765.784,-317.9916 767.6814,-318.1391 769.5513,-318.3351 771.386,-318.579 773.1783,-318.8704 774.9209,-319.2082 776.6072,-319.5916 778.2307,-320.0196 779.7854,-320.4909 781.2658,-321.0044 782.6665,-321.5585 783.9831,-322.1517 785.2112,-322.7825 786.3474,-323.4491 787.3884,-324.1496 788.3317,-324.8823 789.1752,-325.6449 789.9175,-326.4355 790.5577,-327.2519 791.0952,-328.0919 791.5303,-328.9531 791.8635,-329.8331 792.0959,-330.7297 792.229,-331.6403 792.2648,-332.5624 792.2057,-333.4934 792.0543,-334.431 791.8137,-335.3724 791.4872,-336.3151 791.0785,-337.2565 790.5912,-338.194 790.0294,-339.1251 789.397,-340.0472 788.6985,-340.9577 787.9378,-341.8543 787.1194,-342.7344 786.2474,-343.5956 785.3261,-344.4355 784.3595,-345.2519 783.3516,-346.0425 782.3063,-346.8052 781.2273,-347.5378 780.118,-348.2383 778.9819,-348.9049 777.8219,-349.5357 776.6411,-350.129 775.4421,-350.6831 774.2274,-351.1965 772.9991,-351.6678 771.7594,-352.0958 770.51,-352.4792 769.2526,-352.8171 767.9886,-353.1084 766.7193,-353.3524 765.446,-353.5484 764.1695,-353.6958 762.8909,-353.7944 761.611,-353.8437 760.3307,-353.8437 759.0508,-353.7944 757.7722,-353.6958 756.4958,-353.5484 755.2224,-353.3524 753.9531,-353.1084 752.6891,-352.8171 751.4317,-352.4792 750.1823,-352.0958 748.9426,-351.6678 747.7143,-351.1965 746.4996,-350.6831 745.3006,-350.129 744.1198,-349.5357 742.9598,-348.9049 741.8237,-348.2383 740.7145,-347.5378 739.6354,-346.8052 738.5901,-346.0425 737.5822,-345.2519 736.6156,-344.4355 735.6943,-343.5956 734.8223,-342.7344 734.0039,-341.8543 733.2432,-340.9577 732.5447,-340.0472 731.9124,-339.1251 731.3505,-338.194 730.8632,-337.2565 730.4545,-336.3151 730.128,-335.3724 729.8874,-334.431 729.736,-333.4934 729.6769,-332.5624 729.7127,-331.6403 729.8458,-330.7297 730.0782,-329.8331 730.4114,-328.9531 730.8465,-328.0919 731.384,-327.2519 732.0242,-326.4355 732.7665,-325.6449 733.61,-324.8823 734.5533,-324.1496 735.5943,-323.4491 736.7305,-322.7825 737.9586,-322.1517 739.2752,-321.5585 740.676,-321.0044 742.1563,-320.4909 743.711,-320.0196 745.3345,-319.5916 747.0208,-319.2082 748.7634,-318.8704 750.5557,-318.579 752.3904,-318.3351 754.2603,-318.1391 756.1577,-317.9916 758.075,-317.8931 760.0042,-317.8437 761.9375,-317.8437 763.8667,-317.8931"/>
<text text-anchor="middle" x="760.9709" y="-332.1437" font-family="Times,serif" font-size="14.00" fill="#000000">IFTT</text>
</a>
</g>
</g>
<!-- carl -->
<g id="node6" class="node">
<title>carl</title>
<g id="a_node6"><a xlink:href="https://github.com/tilnow/tilnow.github.io/edit/master/carl.md" xlink:title="Carl">
<polygon fill="none" stroke="#00ff00" points="841.6534,-317.8931 843.4295,-317.9916 845.1871,-318.1391 846.9193,-318.3351 848.6189,-318.579 850.2791,-318.8704 851.8934,-319.2082 853.4555,-319.5916 854.9594,-320.0196 856.3996,-320.4909 857.7709,-321.0044 859.0685,-321.5585 860.2881,-322.1517 861.4258,-322.7825 862.4782,-323.4491 863.4426,-324.1496 864.3164,-324.8823 865.0978,-325.6449 865.7854,-326.4355 866.3784,-327.2519 866.8764,-328.0919 867.2794,-328.9531 867.588,-329.8331 867.8033,-330.7297 867.9266,-331.6403 867.9598,-332.5624 867.905,-333.4934 867.7648,-334.431 867.5419,-335.3724 867.2395,-336.3151 866.8609,-337.2565 866.4095,-338.194 865.889,-339.1251 865.3033,-340.0472 864.6561,-340.9577 863.9515,-341.8543 863.1934,-342.7344 862.3856,-343.5956 861.5322,-344.4355 860.6368,-345.2519 859.7031,-346.0425 858.7348,-346.8052 857.7352,-347.5378 856.7077,-348.2383 855.6552,-348.9049 854.5807,-349.5357 853.4869,-350.129 852.3762,-350.6831 851.251,-351.1965 850.1132,-351.6678 848.9648,-352.0958 847.8074,-352.4792 846.6426,-352.8171 845.4717,-353.1084 844.2959,-353.3524 843.1163,-353.5484 841.9339,-353.6958 840.7494,-353.7944 839.5638,-353.8437 838.3779,-353.8437 837.1923,-353.7944 836.0078,-353.6958 834.8254,-353.5484 833.6458,-353.3524 832.47,-353.1084 831.2991,-352.8171 830.1343,-352.4792 828.9769,-352.0958 827.8285,-351.6678 826.6908,-351.1965 825.5655,-350.6831 824.4548,-350.129 823.361,-349.5357 822.2865,-348.9049 821.234,-348.2383 820.2065,-347.5378 819.2069,-346.8052 818.2386,-346.0425 817.305,-345.2519 816.4095,-344.4355 815.5561,-343.5956 814.7483,-342.7344 813.9902,-341.8543 813.2856,-340.9577 812.6384,-340.0472 812.0527,-339.1251 811.5323,-338.194 811.0809,-337.2565 810.7022,-336.3151 810.3998,-335.3724 810.1769,-334.431 810.0367,-333.4934 809.9819,-332.5624 810.0151,-331.6403 810.1384,-330.7297 810.3537,-329.8331 810.6623,-328.9531 811.0653,-328.0919 811.5633,-327.2519 812.1563,-326.4355 812.8439,-325.6449 813.6253,-324.8823 814.4991,-324.1496 815.4635,-323.4491 816.5159,-322.7825 817.6536,-322.1517 818.8732,-321.5585 820.1708,-321.0044 821.5421,-320.4909 822.9823,-320.0196 824.4862,-319.5916 826.0483,-319.2082 827.6626,-318.8704 829.3228,-318.579 831.0224,-318.3351 832.7546,-318.1391 834.5123,-317.9916 836.2883,-317.8931 838.0754,-317.8437 839.8663,-317.8437 841.6534,-317.8931"/>
<text text-anchor="middle" x="838.9709" y="-332.1437" font-family="Times,serif" font-size="14.00" fill="#000000">Carl</text>
</a>
</g>
</g>
<!-- discord -->
<g id="node7" class="node">
<title>discord</title>
<g id="a_node7"><a xlink:href="https://github.com/tilnow/tilnow.github.io/edit/master/discord.md" xlink:title="Discord">
<ellipse fill="none" stroke="#00ff00" cx="927.9709" cy="-335.8437" rx="38.2082" ry="38.2082"/>
<ellipse fill="none" stroke="#00ff00" cx="927.9709" cy="-335.8437" rx="42.1937" ry="42.1937"/>
<text text-anchor="middle" x="927.9709" y="-332.1437" font-family="Times,serif" font-size="14.00" fill="#000000">Discord</text>
</a>
</g>
</g>
<!-- dns -->
<g id="node8" class="node">
<title>dns</title>
<g id="a_node8"><a xlink:href="https://github.com/tilnow/tilnow.github.io/edit/master/dns.md" xlink:title="Namecheap">
<polygon fill="none" stroke="#00ff00" points="1049.1647,-317.8931 1052.6035,-317.9916 1056.0067,-318.1391 1059.3605,-318.3351 1062.6512,-318.579 1065.8657,-318.8704 1068.9913,-319.2082 1072.0157,-319.5916 1074.9276,-320.0196 1077.7161,-320.4909 1080.3712,-321.0044 1082.8836,-321.5585 1085.2449,-322.1517 1087.4477,-322.7825 1089.4855,-323.4491 1091.3526,-324.1496 1093.0444,-324.8823 1094.5574,-325.6449 1095.8888,-326.4355 1097.0369,-327.2519 1098.0011,-328.0919 1098.7814,-328.9531 1099.379,-329.8331 1099.7958,-330.7297 1100.0346,-331.6403 1100.0988,-332.5624 1099.9928,-333.4934 1099.7212,-334.431 1099.2897,-335.3724 1098.7042,-336.3151 1097.971,-337.2565 1097.097,-338.194 1096.0893,-339.1251 1094.9553,-340.0472 1093.7023,-340.9577 1092.3381,-341.8543 1090.8702,-342.7344 1089.3062,-343.5956 1087.6537,-344.4355 1085.92,-345.2519 1084.1123,-346.0425 1082.2375,-346.8052 1080.3022,-347.5378 1078.3126,-348.2383 1076.2749,-348.9049 1074.1945,-349.5357 1072.0766,-350.129 1069.9261,-350.6831 1067.7474,-351.1965 1065.5444,-351.6678 1063.3209,-352.0958 1061.08,-352.4792 1058.8248,-352.8171 1056.5577,-353.1084 1054.2812,-353.3524 1051.9973,-353.5484 1049.7078,-353.6958 1047.4145,-353.7944 1045.119,-353.8437 1042.8227,-353.8437 1040.5272,-353.7944 1038.2339,-353.6958 1035.9444,-353.5484 1033.6605,-353.3524 1031.384,-353.1084 1029.1169,-352.8171 1026.8617,-352.4792 1024.6208,-352.0958 1022.3973,-351.6678 1020.1943,-351.1965 1018.0156,-350.6831 1015.8651,-350.129 1013.7472,-349.5357 1011.6668,-348.9049 1009.6291,-348.2383 1007.6396,-347.5378 1005.7042,-346.8052 1003.8294,-346.0425 1002.0217,-345.2519 1000.288,-344.4355 998.6355,-343.5956 997.0716,-342.7344 995.6037,-341.8543 994.2394,-340.9577 992.9864,-340.0472 991.8524,-339.1251 990.8447,-338.194 989.9707,-337.2565 989.2375,-336.3151 988.652,-335.3724 988.2205,-334.431 987.9489,-333.4934 987.8429,-332.5624 987.9071,-331.6403 988.1459,-330.7297 988.5627,-329.8331 989.1603,-328.9531 989.9407,-328.0919 990.9048,-327.2519 992.0529,-326.4355 993.3843,-325.6449 994.8973,-324.8823 996.5891,-324.1496 998.4562,-323.4491 1000.494,-322.7825 1002.6968,-322.1517 1005.0581,-321.5585 1007.5705,-321.0044 1010.2256,-320.4909 1013.0141,-320.0196 1015.926,-319.5916 1018.9504,-319.2082 1022.076,-318.8704 1025.2905,-318.579 1028.5812,-318.3351 1031.935,-318.1391 1035.3382,-317.9916 1038.777,-317.8931 1042.2372,-317.8437 1045.7045,-317.8437 1049.1647,-317.8931"/>
<text text-anchor="middle" x="1043.9709" y="-332.1437" font-family="Times,serif" font-size="14.00" fill="#000000">Namecheap</text>
</a>
</g>
</g>
<!-- roam -->
<g id="node9" class="node">
<title>roam</title>
<g id="a_node9"><a xlink:href="https://github.com/tilnow/tilnow.github.io/edit/master/roam.md" xlink:title="Roam">
<ellipse fill="none" stroke="#00ff00" cx="1154.9709" cy="-335.8437" rx="32.4945" ry="32.4945"/>
<ellipse fill="none" stroke="#00ff00" cx="1154.9709" cy="-335.8437" rx="36.4942" ry="36.4942"/>
<text text-anchor="middle" x="1154.9709" y="-332.1437" font-family="Times,serif" font-size="14.00" fill="#000000">Roam</text>
</a>
</g>
</g>
<!-- substack -->
<g id="node10" class="node">
<title>substack</title>
<g id="a_node10"><a xlink:href="https://github.com/tilnow/tilnow.github.io/edit/master/substack.md" xlink:title="Substack">
<polygon fill="none" stroke="#00ff00" points="1293.9709,-358.8437 1209.4858,-324.3437 1378.4559,-324.3437 1293.9709,-358.8437"/>
<text text-anchor="middle" x="1293.9709" y="-332.1437" font-family="Times,serif" font-size="14.00" fill="#000000">Substack</text>
</a>
</g>
</g>
<!-- blogs -->
<g id="node11" class="node">
<title>blogs</title>
<g id="a_node11"><a xlink:href="https://github.com/tilnow/tilnow.github.io/edit/master/blogs.md" xlink:title="member blogs">
<polygon fill="none" stroke="#00ff00" points="1519.9709,-358.8437 1396.4928,-324.3437 1643.4489,-324.3437 1519.9709,-358.8437"/>
<text text-anchor="middle" x="1519.9709" y="-332.1437" font-family="Times,serif" font-size="14.00" fill="#000000">member blogs</text>
</a>
</g>
</g>
<!-- websites -->
<g id="node12" class="node">
<title>websites</title>
<g id="a_node12"><a xlink:href="https://github.com/tilnow/tilnow.github.io/edit/master/websites.md" xlink:title="member websites">
<polygon fill="none" stroke="#00ff00" points="1807.9709,-358.8437 1661.1968,-324.3437 1954.7449,-324.3437 1807.9709,-358.8437"/>
<text text-anchor="middle" x="1807.9709" y="-332.1437" font-family="Times,serif" font-size="14.00" fill="#000000">member websites</text>
</a>
</g>
</g>
<!-- twitter -->
<g id="node13" class="node">
<title>twitter</title>
<g id="a_node13"><a xlink:href="https://github.com/tilnow/tilnow.github.io/edit/master/twitter.md" xlink:title="Twitter">
<polygon fill="none" stroke="#00ff00" points="2015.5355,-317.8931 2017.8957,-317.9916 2020.2314,-318.1391 2022.5332,-318.3351 2024.7917,-318.579 2026.9978,-318.8704 2029.143,-319.2082 2031.2188,-319.5916 2033.2173,-320.0196 2035.1311,-320.4909 2036.9533,-321.0044 2038.6776,-321.5585 2040.2983,-322.1517 2041.8101,-322.7825 2043.2087,-323.4491 2044.4901,-324.1496 2045.6513,-324.8823 2046.6896,-325.6449 2047.6034,-326.4355 2048.3914,-327.2519 2049.0531,-328.0919 2049.5887,-328.9531 2049.9988,-329.8331 2050.2849,-330.7297 2050.4488,-331.6403 2050.4929,-332.5624 2050.4201,-333.4934 2050.2337,-334.431 2049.9376,-335.3724 2049.5357,-336.3151 2049.0325,-337.2565 2048.4327,-338.194 2047.741,-339.1251 2046.9627,-340.0472 2046.1028,-340.9577 2045.1664,-341.8543 2044.159,-342.7344 2043.0856,-343.5956 2041.9515,-344.4355 2040.7616,-345.2519 2039.5209,-346.0425 2038.2342,-346.8052 2036.9059,-347.5378 2035.5405,-348.2383 2034.1419,-348.9049 2032.7141,-349.5357 2031.2605,-350.129 2029.7846,-350.6831 2028.2893,-351.1965 2026.7773,-351.6678 2025.2513,-352.0958 2023.7133,-352.4792 2022.1655,-352.8171 2020.6095,-353.1084 2019.0471,-353.3524 2017.4796,-353.5484 2015.9083,-353.6958 2014.3343,-353.7944 2012.7588,-353.8437 2011.1829,-353.8437 2009.6074,-353.7944 2008.0334,-353.6958 2006.4621,-353.5484 2004.8946,-353.3524 2003.3322,-353.1084 2001.7763,-352.8171 2000.2284,-352.4792 1998.6904,-352.0958 1997.1644,-351.6678 1995.6524,-351.1965 1994.1571,-350.6831 1992.6812,-350.129 1991.2276,-349.5357 1989.7998,-348.9049 1988.4013,-348.2383 1987.0358,-347.5378 1985.7075,-346.8052 1984.4208,-346.0425 1983.1801,-345.2519 1981.9902,-344.4355 1980.8561,-343.5956 1979.7827,-342.7344 1978.7753,-341.8543 1977.839,-340.9577 1976.979,-340.0472 1976.2007,-339.1251 1975.5091,-338.194 1974.9092,-337.2565 1974.406,-336.3151 1974.0042,-335.3724 1973.708,-334.431 1973.5217,-333.4934 1973.4489,-332.5624 1973.4929,-331.6403 1973.6568,-330.7297 1973.9429,-329.8331 1974.353,-328.9531 1974.8886,-328.0919 1975.5503,-327.2519 1976.3383,-326.4355 1977.2521,-325.6449 1978.2905,-324.8823 1979.4516,-324.1496 1980.7331,-323.4491 1982.1316,-322.7825 1983.6435,-322.1517 1985.2641,-321.5585 1986.9884,-321.0044 1988.8106,-320.4909 1990.7245,-320.0196 1992.723,-319.5916 1994.7987,-319.2082 1996.9439,-318.8704 1999.1501,-318.579 2001.4086,-318.3351 2003.7103,-318.1391 2006.046,-317.9916 2008.4062,-317.8931 2010.781,-317.8437 2013.1607,-317.8437 2015.5355,-317.8931"/>
<text text-anchor="middle" x="2011.9709" y="-332.1437" font-family="Times,serif" font-size="14.00" fill="#000000">Twitter</text>
</a>
</g>
</g>
<!-- facebook -->
<g id="node14" class="node">
<title>facebook</title>
<g id="a_node14"><a xlink:href="https://github.com/tilnow/tilnow.github.io/edit/master/facebook.md" xlink:title="Facebook">
<polygon fill="none" stroke="#00ff00" points="2121.368,-317.8931 2124.2792,-317.9916 2127.1604,-318.1391 2129.9996,-318.3351 2132.7855,-318.579 2135.5069,-318.8704 2138.153,-319.2082 2140.7135,-319.5916 2143.1787,-320.0196 2145.5394,-320.4909 2147.7872,-321.0044 2149.9141,-321.5585 2151.9132,-322.1517 2153.7781,-322.7825 2155.5032,-323.4491 2157.0839,-324.1496 2158.5162,-324.8823 2159.7971,-325.6449 2160.9242,-326.4355 2161.8962,-327.2519 2162.7125,-328.0919 2163.3731,-328.9531 2163.879,-329.8331 2164.2319,-330.7297 2164.434,-331.6403 2164.4884,-332.5624 2164.3986,-333.4934 2164.1688,-334.431 2163.8035,-335.3724 2163.3077,-336.3151 2162.6871,-337.2565 2161.9471,-338.194 2161.094,-339.1251 2160.1339,-340.0472 2159.0732,-340.9577 2157.9182,-341.8543 2156.6755,-342.7344 2155.3515,-343.5956 2153.9525,-344.4355 2152.4848,-345.2519 2150.9544,-346.0425 2149.3671,-346.8052 2147.7287,-347.5378 2146.0444,-348.2383 2144.3192,-348.9049 2142.558,-349.5357 2140.765,-350.129 2138.9444,-350.6831 2137.0999,-351.1965 2135.2349,-351.6678 2133.3525,-352.0958 2131.4554,-352.4792 2129.5461,-352.8171 2127.6268,-353.1084 2125.6995,-353.3524 2123.766,-353.5484 2121.8277,-353.6958 2119.8862,-353.7944 2117.9429,-353.8437 2115.9988,-353.8437 2114.0555,-353.7944 2112.114,-353.6958 2110.1758,-353.5484 2108.2422,-353.3524 2106.3149,-353.1084 2104.3956,-352.8171 2102.4863,-352.4792 2100.5892,-352.0958 2098.7068,-351.6678 2096.8418,-351.1965 2094.9973,-350.6831 2093.1767,-350.129 2091.3837,-349.5357 2089.6225,-348.9049 2087.8973,-348.2383 2086.213,-347.5378 2084.5746,-346.8052 2082.9874,-346.0425 2081.457,-345.2519 2079.9892,-344.4355 2078.5902,-343.5956 2077.2662,-342.7344 2076.0235,-341.8543 2074.8685,-340.9577 2073.8078,-340.0472 2072.8477,-339.1251 2071.9946,-338.194 2071.2547,-337.2565 2070.634,-336.3151 2070.1383,-335.3724 2069.7729,-334.431 2069.5431,-333.4934 2069.4533,-332.5624 2069.5077,-331.6403 2069.7098,-330.7297 2070.0627,-329.8331 2070.5686,-328.9531 2071.2292,-328.0919 2072.0455,-327.2519 2073.0175,-326.4355 2074.1446,-325.6449 2075.4255,-324.8823 2076.8578,-324.1496 2078.4385,-323.4491 2080.1636,-322.7825 2082.0285,-322.1517 2084.0276,-321.5585 2086.1546,-321.0044 2088.4023,-320.4909 2090.763,-320.0196 2093.2282,-319.5916 2095.7887,-319.2082 2098.4348,-318.8704 2101.1562,-318.579 2103.9421,-318.3351 2106.7813,-318.1391 2109.6625,-317.9916 2112.5737,-317.8931 2115.5031,-317.8437 2118.4386,-317.8437 2121.368,-317.8931"/>
<text text-anchor="middle" x="2116.9709" y="-332.1437" font-family="Times,serif" font-size="14.00" fill="#000000">Facebook</text>
</a>
</g>
</g>
<!-- linkedin -->
<g id="node15" class="node">
<title>linkedin</title>
<g id="a_node15"><a xlink:href="https://github.com/tilnow/tilnow.github.io/edit/master/linkedin.md" xlink:title="Linkedin">
<polygon fill="none" stroke="#00ff00" points="2232.1331,-317.8931 2234.8888,-317.9916 2237.616,-318.1391 2240.3036,-318.3351 2242.9407,-318.579 2245.5167,-318.8704 2248.0214,-319.2082 2250.4451,-319.5916 2252.7786,-320.0196 2255.0133,-320.4909 2257.1409,-321.0044 2259.1543,-321.5585 2261.0466,-322.1517 2262.8119,-322.7825 2264.4448,-323.4491 2265.9411,-324.1496 2267.2969,-324.8823 2268.5093,-325.6449 2269.5762,-326.4355 2270.4963,-327.2519 2271.2689,-328.0919 2271.8943,-328.9531 2272.3732,-329.8331 2272.7072,-330.7297 2272.8986,-331.6403 2272.95,-332.5624 2272.865,-333.4934 2272.6475,-334.431 2272.3017,-335.3724 2271.8324,-336.3151 2271.2449,-337.2565 2270.5445,-338.194 2269.737,-339.1251 2268.8281,-340.0472 2267.8241,-340.9577 2266.7308,-341.8543 2265.5545,-342.7344 2264.3012,-343.5956 2262.9769,-344.4355 2261.5876,-345.2519 2260.139,-346.0425 2258.6365,-346.8052 2257.0856,-347.5378 2255.4913,-348.2383 2253.8583,-348.9049 2252.1911,-349.5357 2250.4939,-350.129 2248.7706,-350.6831 2247.0246,-351.1965 2245.2592,-351.6678 2243.4774,-352.0958 2241.6816,-352.4792 2239.8743,-352.8171 2238.0576,-353.1084 2236.2332,-353.3524 2234.403,-353.5484 2232.5683,-353.6958 2230.7305,-353.7944 2228.8909,-353.8437 2227.0508,-353.8437 2225.2112,-353.7944 2223.3734,-353.6958 2221.5387,-353.5484 2219.7085,-353.3524 2217.8841,-353.1084 2216.0674,-352.8171 2214.2601,-352.4792 2212.4643,-352.0958 2210.6825,-351.6678 2208.9171,-351.1965 2207.1711,-350.6831 2205.4478,-350.129 2203.7506,-349.5357 2202.0834,-348.9049 2200.4504,-348.2383 2198.8561,-347.5378 2197.3052,-346.8052 2195.8028,-346.0425 2194.3541,-345.2519 2192.9648,-344.4355 2191.6405,-343.5956 2190.3872,-342.7344 2189.2109,-341.8543 2188.1177,-340.9577 2187.1136,-340.0472 2186.2047,-339.1251 2185.3972,-338.194 2184.6968,-337.2565 2184.1093,-336.3151 2183.6401,-335.3724 2183.2943,-334.431 2183.0767,-333.4934 2182.9917,-332.5624 2183.0432,-331.6403 2183.2345,-330.7297 2183.5685,-329.8331 2184.0474,-328.9531 2184.6728,-328.0919 2185.4454,-327.2519 2186.3655,-326.4355 2187.4324,-325.6449 2188.6448,-324.8823 2190.0006,-324.1496 2191.4969,-323.4491 2193.1299,-322.7825 2194.8951,-322.1517 2196.7874,-321.5585 2198.8008,-321.0044 2200.9284,-320.4909 2203.1631,-320.0196 2205.4966,-319.5916 2207.9203,-319.2082 2210.425,-318.8704 2213.001,-318.579 2215.6381,-318.3351 2218.3257,-318.1391 2221.0529,-317.9916 2223.8086,-317.8931 2226.5815,-317.8437 2229.3602,-317.8437 2232.1331,-317.8931"/>
<text text-anchor="middle" x="2227.9709" y="-332.1437" font-family="Times,serif" font-size="14.00" fill="#000000">Linkedin</text>
</a>
</g>
</g>
<!-- knack -->
<g id="node16" class="node">
<title>knack</title>
<g id="a_node16"><a xlink:href="https://github.com/tilnow/tilnow.github.io/edit/master/knack.md" xlink:title="Knack">
<ellipse fill="none" stroke="#00ff00" cx="2328.9709" cy="-335.8437" rx="33.6165" ry="33.6165"/>
<ellipse fill="none" stroke="#00ff00" cx="2328.9709" cy="-335.8437" rx="37.5951" ry="37.5951"/>
<text text-anchor="middle" x="2328.9709" y="-332.1437" font-family="Times,serif" font-size="14.00" fill="#000000">Knack</text>
</a>
</g>
</g>
<!-- github -->
<g id="node17" class="node">
<title>github</title>
<g id="a_node17"><a xlink:href="https://github.com/tilnow/tilnow.github.io/edit/master/github.md" xlink:title="github">
<polygon fill="none" stroke="#00ff00" points="2423.2189,-317.8931 2425.3694,-317.9916 2427.4976,-318.1391 2429.5949,-318.3351 2431.6528,-318.579 2433.663,-318.8704 2435.6176,-319.2082 2437.509,-319.5916 2439.33,-320.0196 2441.0738,-320.4909 2442.7342,-321.0044 2444.3053,-321.5585 2445.782,-322.1517 2447.1595,-322.7825 2448.4339,-323.4491 2449.6015,-324.1496 2450.6595,-324.8823 2451.6056,-325.6449 2452.4382,-326.4355 2453.1562,-327.2519 2453.7592,-328.0919 2454.2472,-328.9531 2454.6209,-329.8331 2454.8815,-330.7297 2455.0309,-331.6403 2455.071,-332.5624 2455.0047,-333.4934 2454.8349,-334.431 2454.5651,-335.3724 2454.1989,-336.3151 2453.7404,-337.2565 2453.1938,-338.194 2452.5637,-339.1251 2451.8545,-340.0472 2451.0709,-340.9577 2450.2178,-341.8543 2449.2998,-342.7344 2448.3218,-343.5956 2447.2884,-344.4355 2446.2042,-345.2519 2445.0737,-346.0425 2443.9013,-346.8052 2442.691,-347.5378 2441.4468,-348.2383 2440.1725,-348.9049 2438.8715,-349.5357 2437.5471,-350.129 2436.2022,-350.6831 2434.8398,-351.1965 2433.4621,-351.6678 2432.0716,-352.0958 2430.6702,-352.4792 2429.2599,-352.8171 2427.8422,-353.1084 2426.4185,-353.3524 2424.9902,-353.5484 2423.5585,-353.6958 2422.1244,-353.7944 2420.6889,-353.8437 2419.2529,-353.8437 2417.8173,-353.7944 2416.3832,-353.6958 2414.9515,-353.5484 2413.5232,-353.3524 2412.0995,-353.1084 2410.6818,-352.8171 2409.2715,-352.4792 2407.8701,-352.0958 2406.4796,-351.6678 2405.102,-351.1965 2403.7395,-350.6831 2402.3946,-350.129 2401.0702,-349.5357 2399.7692,-348.9049 2398.4949,-348.2383 2397.2507,-347.5378 2396.0404,-346.8052 2394.868,-346.0425 2393.7375,-345.2519 2392.6533,-344.4355 2391.6199,-343.5956 2390.6419,-342.7344 2389.724,-341.8543 2388.8708,-340.9577 2388.0873,-340.0472 2387.378,-339.1251 2386.7479,-338.194 2386.2013,-337.2565 2385.7428,-336.3151 2385.3767,-335.3724 2385.1068,-334.431 2384.937,-333.4934 2384.8707,-332.5624 2384.9108,-331.6403 2385.0602,-330.7297 2385.3208,-329.8331 2385.6945,-328.9531 2386.1825,-328.0919 2386.7855,-327.2519 2387.5035,-326.4355 2388.3361,-325.6449 2389.2822,-324.8823 2390.3402,-324.1496 2391.5078,-323.4491 2392.7822,-322.7825 2394.1597,-322.1517 2395.6364,-321.5585 2397.2075,-321.0044 2398.8679,-320.4909 2400.6117,-320.0196 2402.4327,-319.5916 2404.3241,-319.2082 2406.2787,-318.8704 2408.2889,-318.579 2410.3468,-318.3351 2412.4441,-318.1391 2414.5723,-317.9916 2416.7228,-317.8931 2418.8867,-317.8437 2421.055,-317.8437 2423.2189,-317.8931"/>
<text text-anchor="middle" x="2419.9709" y="-332.1437" font-family="Times,serif" font-size="14.00" fill="#000000">github</text>
</a>
</g>
</g>
<!-- jekyll -->
<g id="node19" class="node">
<title>jekyll</title>
<g id="a_node19"><a xlink:href="https://github.com/tilnow/tilnow.github.io/edit/master/jekyll.md" xlink:title="jekyll">
<polygon fill="none" stroke="#0000ff" points="2446.9709,-210 2392.9709,-210 2392.9709,-174 2446.9709,-174 2446.9709,-210"/>
<text text-anchor="middle" x="2419.9709" y="-188.3" font-family="Times,serif" font-size="14.00" fill="#000000">jekyll</text>
</a>
</g>
</g>
<!-- github&#45;&gt;jekyll -->
<g id="edge1" class="edge">
<title>github&#45;&gt;jekyll</title>
<g id="a_edge1"><a xlink:href="https://github.com/tilnow/tilnow.github.io/edit/master/mdfiles.md" xlink:title="md files">
<path fill="none" stroke="#ff0000" d="M2419.9709,-317.6258C2419.9709,-293.0912 2419.9709,-249.1853 2419.9709,-220.3233"/>
<polygon fill="#ff0000" stroke="#ff0000" points="2423.471,-220.0699 2419.9709,-210.07 2416.471,-220.07 2423.471,-220.0699"/>
</a>
</g>
<g id="a_edge1&#45;label"><a xlink:href="https://github.com/tilnow/tilnow.github.io/edit/master/mdfiles.md" xlink:title="md files">
<text text-anchor="middle" x="2442.9709" y="-231.8" font-family="Times,serif" font-size="14.00" fill="#000000">md files</text>
</a>
</g>
</g>
<!-- netlify -->
<g id="node18" class="node">
<title>netlify</title>
<g id="a_node18"><a xlink:href="https://github.com/tilnow/tilnow.github.io/edit/master/netlify.md" xlink:title="netlify">
<polygon fill="none" stroke="#00ff00" points="2423.3006,-87.0493 2425.5052,-87.1479 2427.687,-87.2953 2429.8371,-87.4913 2431.9467,-87.7353 2434.0075,-88.0266 2436.0113,-88.3645 2437.9503,-88.7479 2439.8171,-89.1759 2441.6048,-89.6472 2443.3069,-90.1606 2444.9176,-90.7147 2446.4314,-91.308 2447.8437,-91.9388 2449.15,-92.6054 2450.347,-93.3059 2451.4317,-94.0385 2452.4016,-94.8012 2453.2552,-95.5918 2453.9912,-96.4082 2454.6093,-97.2481 2455.1096,-98.1093 2455.4927,-98.9894 2455.7599,-99.886 2455.913,-100.7965 2455.9542,-101.7186 2455.8862,-102.6497 2455.7121,-103.5873 2455.4355,-104.5287 2455.0601,-105.4713 2454.5901,-106.4127 2454.0298,-107.3503 2453.3837,-108.2814 2452.6567,-109.2035 2451.8534,-110.114 2450.9788,-111.0106 2450.0377,-111.8907 2449.0351,-112.7519 2447.9757,-113.5918 2446.8643,-114.4082 2445.7053,-115.1988 2444.5034,-115.9615 2443.2627,-116.6941 2441.9872,-117.3946 2440.6808,-118.0612 2439.3471,-118.692 2437.9893,-119.2853 2436.6106,-119.8394 2435.2139,-120.3528 2433.8016,-120.8241 2432.3761,-121.2521 2430.9395,-121.6355 2429.4936,-121.9734 2428.0402,-122.2647 2426.5808,-122.5087 2425.1165,-122.7047 2423.6488,-122.8521 2422.1786,-122.9507 2420.7069,-123 2419.2348,-123 2417.7631,-122.9507 2416.2929,-122.8521 2414.8252,-122.7047 2413.361,-122.5087 2411.9015,-122.2647 2410.4481,-121.9734 2409.0023,-121.6355 2407.5656,-121.2521 2406.1401,-120.8241 2404.7278,-120.3528 2403.3311,-119.8394 2401.9524,-119.2853 2400.5946,-118.692 2399.2609,-118.0612 2397.9545,-117.3946 2396.679,-116.6941 2395.4383,-115.9615 2394.2364,-115.1988 2393.0775,-114.4082 2391.966,-113.5918 2390.9066,-112.7519 2389.904,-111.8907 2388.9629,-111.0106 2388.0883,-110.114 2387.285,-109.2035 2386.558,-108.2814 2385.9119,-107.3503 2385.3516,-106.4127 2384.8816,-105.4713 2384.5062,-104.5287 2384.2296,-103.5873 2384.0555,-102.6497 2383.9875,-101.7186 2384.0287,-100.7965 2384.1818,-99.886 2384.449,-98.9894 2384.8321,-98.1093 2385.3324,-97.2481 2385.9505,-96.4082 2386.6866,-95.5918 2387.5401,-94.8012 2388.51,-94.0385 2389.5947,-93.3059 2390.7917,-92.6054 2392.0981,-91.9388 2393.5103,-91.308 2395.0241,-90.7147 2396.6348,-90.1606 2398.3369,-89.6472 2400.1246,-89.1759 2401.9914,-88.7479 2403.9304,-88.3645 2405.9342,-88.0266 2407.995,-87.7353 2410.1046,-87.4913 2412.2547,-87.2953 2414.4365,-87.1479 2416.6411,-87.0493 2418.8594,-87 2421.0823,-87 2423.3006,-87.0493"/>
<text text-anchor="middle" x="2419.9709" y="-101.3" font-family="Times,serif" font-size="14.00" fill="#000000">netlify</text>
</a>
</g>
</g>
<!-- web -->
<g id="node20" class="node">
<title>web</title>
<ellipse fill="none" stroke="#000000" cx="2419.9709" cy="-18" rx="27" ry="18"/>
<text text-anchor="middle" x="2419.9709" y="-14.3" font-family="Times,serif" font-size="14.00" fill="#000000">web</text>
</g>
<!-- netlify&#45;&gt;web -->
<g id="edge3" class="edge">
<title>netlify&#45;&gt;web</title>
<g id="a_edge3"><a xlink:href="https://github.com/tilnow/tilnow.github.io/edit/master/website.md" xlink:title="our website">
<path fill="none" stroke="#ff0000" d="M2419.9709,-86.9735C2419.9709,-75.1918 2419.9709,-59.5607 2419.9709,-46.1581"/>
<polygon fill="#ff0000" stroke="#ff0000" points="2423.471,-46.0033 2419.9709,-36.0034 2416.471,-46.0034 2423.471,-46.0033"/>
</a>
</g>
<g id="a_edge3&#45;label"><a xlink:href="https://github.com/tilnow/tilnow.github.io/edit/master/website.md" xlink:title="our website">
<text text-anchor="middle" x="2451.9709" y="-57.8" font-family="Times,serif" font-size="14.00" fill="#000000">our website</text>
</a>
</g>
</g>
<!-- jekyll&#45;&gt;netlify -->
<g id="edge2" class="edge">
<title>jekyll&#45;&gt;netlify</title>
<g id="a_edge2"><a xlink:href="https://github.com/tilnow/tilnow.github.io/edit/master/rendered website.md" xlink:title="rendered website">
<path fill="none" stroke="#ff0000" d="M2419.9709,-173.9735C2419.9709,-162.1918 2419.9709,-146.5607 2419.9709,-133.1581"/>
<polygon fill="#ff0000" stroke="#ff0000" points="2423.471,-133.0033 2419.9709,-123.0034 2416.471,-133.0034 2423.471,-133.0033"/>
</a>
</g>
<g id="a_edge2&#45;label"><a xlink:href="https://github.com/tilnow/tilnow.github.io/edit/master/rendered website.md" xlink:title="rendered website">
<text text-anchor="middle" x="2466.4709" y="-144.8" font-family="Times,serif" font-size="14.00" fill="#000000">rendered website</text>
</a>
</g>
</g>
</g>
</svg>
