<?xml version="1.0" encoding="UTF-8" standalone="no"?>
<!DOCTYPE svg PUBLIC "-//W3C//DTD SVG 1.1//EN"
 "http://www.w3.org/Graphics/SVG/1.1/DTD/svg11.dtd">
<!-- Generated by graphviz version 2.40.1 (20161225.0304)
 -->
<!-- Title: G Pages: 1 -->
<svg width="1620pt" height="947pt"
 viewBox="0.00 0.00 1620.30 946.92" xmlns="http://www.w3.org/2000/svg" xmlns:xlink="http://www.w3.org/1999/xlink">
<g id="graph0" class="graph" transform="scale(1 1) rotate(0) translate(4 942.9242)">
<title>G</title>
<polygon fill="#ffffff" stroke="transparent" points="-4,4 -4,-942.9242 1616.2953,-942.9242 1616.2953,4 -4,4"/>
<text text-anchor="middle" x="806.1476" y="-923.7242" font-family="Times,serif" font-size="14.00" fill="#000000">map of yak collective IT infrastructure (work in progress)</text>
<g id="clust1" class="cluster">
<title>cluster_4</title>
<polygon fill="none" stroke="#000000" points="43.2953,-516.0019 43.2953,-709.8888 375.2953,-709.8888 375.2953,-516.0019 43.2953,-516.0019"/>
<text text-anchor="middle" x="209.2953" y="-694.6888" font-family="Times,serif" font-size="14.00" fill="#000000">map of yak collective IT infrastructure (work in progress)</text>
</g>
<g id="clust2" class="cluster">
<title>cluster_0</title>
<polygon fill="none" stroke="#000000" points="707.2953,-797.1841 707.2953,-872.1841 902.2953,-872.1841 902.2953,-797.1841 707.2953,-797.1841"/>
<text text-anchor="middle" x="804.7953" y="-856.9841" font-family="Times,serif" font-size="14.00" fill="#000000">not sure what connection is (yet)</text>
</g>
<g id="clust3" class="cluster">
<title>cluster_1</title>
<polygon fill="none" stroke="#000000" points="910.2953,-788.3048 910.2953,-896.0634 1314.2953,-896.0634 1314.2953,-788.3048 910.2953,-788.3048"/>
<text text-anchor="middle" x="1112.2953" y="-880.8634" font-family="Times,serif" font-size="14.00" fill="#000000">unconnected and manually managed</text>
<text text-anchor="middle" x="1112.2953" y="-865.8634" font-family="Times,serif" font-size="14.00" fill="#000000">not by members</text>
</g>
<g id="clust4" class="cluster">
<title>cluster_2</title>
<polygon fill="none" stroke="#000000" points="1322.2953,-777.3871 1322.2953,-891.9811 1604.2953,-891.9811 1604.2953,-777.3871 1322.2953,-777.3871"/>
<text text-anchor="middle" x="1463.2953" y="-876.7811" font-family="Times,serif" font-size="14.00" fill="#000000">in next version or two should be connected</text>
</g>
<g id="clust5" class="cluster">
<title>cluster_3</title>
<polygon fill="none" stroke="#000000" points="125.2953,-761.444 125.2953,-907.9242 699.2953,-907.9242 699.2953,-761.444 125.2953,-761.444"/>
<text text-anchor="middle" x="412.2953" y="-892.7242" font-family="Times,serif" font-size="14.00" fill="#000000">members&#39; web presence</text>
</g>
<!-- calandar -->
<g id="node1" class="node">
<title>calandar</title>
<g id="a_node1"><a xlink:href="https://github.com/tilnow/tilnow.github.io/edit/master/calandar.md" xlink:title="google\ncalandar">
<ellipse fill="none" stroke="#00ff00" cx="466.2953" cy="-601.4453" rx="43.6951" ry="43.6951"/>
<ellipse fill="none" stroke="#00ff00" cx="466.2953" cy="-601.4453" rx="47.6818" ry="47.6818"/>
<text text-anchor="middle" x="466.2953" y="-605.2453" font-family="Times,serif" font-size="14.00" fill="#000000">google</text>
<text text-anchor="middle" x="466.2953" y="-590.2453" font-family="Times,serif" font-size="14.00" fill="#000000">calandar</text>
</a>
</g>
</g>
<!-- carl -->
<g id="node10" class="node">
<title>carl</title>
<g id="a_node10"><a xlink:href="https://github.com/tilnow/tilnow.github.io/edit/master/carl.md" xlink:title="Carl">
<polygon fill="none" stroke="#00ff00" points="468.9778,-380.8969 470.7539,-380.9954 472.5116,-381.1429 474.2437,-381.3389 475.9433,-381.5829 477.6035,-381.8742 479.2178,-382.212 480.7799,-382.5954 482.2838,-383.0234 483.724,-383.4947 485.0953,-384.0082 486.3929,-384.5623 487.6125,-385.1555 488.7502,-385.7863 489.8027,-386.4529 490.767,-387.1535 491.6408,-387.8861 492.4222,-388.6487 493.1098,-389.4393 493.7028,-390.2557 494.2008,-391.0957 494.6038,-391.9569 494.9125,-392.8369 495.1277,-393.7335 495.2511,-394.6441 495.2842,-395.5662 495.2295,-396.4972 495.0892,-397.4348 494.8664,-398.3762 494.5639,-399.3189 494.1853,-400.2603 493.7339,-401.1978 493.2134,-402.1289 492.6277,-403.051 491.9806,-403.9616 491.2759,-404.8581 490.5178,-405.7382 489.7101,-406.5994 488.8566,-407.4393 487.9612,-408.2557 487.0275,-409.0463 486.0592,-409.809 485.0597,-410.5416 484.0321,-411.2422 482.9796,-411.9087 481.9052,-412.5395 480.8113,-413.1328 479.7006,-413.6869 478.5754,-414.2003 477.4376,-414.6717 476.2892,-415.0996 475.1318,-415.4831 473.967,-415.8209 472.7961,-416.1122 471.6203,-416.3562 470.4407,-416.5522 469.2583,-416.6996 468.0739,-416.7982 466.8883,-416.8475 465.7023,-416.8475 464.5167,-416.7982 463.3323,-416.6996 462.1498,-416.5522 460.9702,-416.3562 459.7944,-416.1122 458.6235,-415.8209 457.4587,-415.4831 456.3014,-415.0996 455.1529,-414.6717 454.0152,-414.2003 452.8899,-413.6869 451.7792,-413.1328 450.6854,-412.5395 449.6109,-411.9087 448.5584,-411.2422 447.5309,-410.5416 446.5313,-409.809 445.563,-409.0463 444.6294,-408.2557 443.734,-407.4393 442.8805,-406.5994 442.0727,-405.7382 441.3146,-404.8581 440.61,-403.9616 439.9629,-403.051 439.3771,-402.1289 438.8567,-401.1978 438.4053,-400.2603 438.0266,-399.3189 437.7242,-398.3762 437.5013,-397.4348 437.3611,-396.4972 437.3063,-395.5662 437.3395,-394.6441 437.4628,-393.7335 437.6781,-392.8369 437.9867,-391.9569 438.3898,-391.0957 438.8877,-390.2557 439.4807,-389.4393 440.1684,-388.6487 440.9498,-387.8861 441.8236,-387.1535 442.7879,-386.4529 443.8403,-385.7863 444.9781,-385.1555 446.1976,-384.5623 447.4952,-384.0082 448.8665,-383.4947 450.3067,-383.0234 451.8107,-382.5954 453.3727,-382.212 454.987,-381.8742 456.6472,-381.5829 458.3468,-381.3389 460.079,-381.1429 461.8367,-380.9954 463.6127,-380.8969 465.3999,-380.8475 467.1907,-380.8475 468.9778,-380.8969"/>
<text text-anchor="middle" x="466.2953" y="-395.1475" font-family="Times,serif" font-size="14.00" fill="#000000">Carl</text>
</a>
</g>
</g>
<!-- calandar&#45;&gt;carl -->
<g id="edge17" class="edge">
<title>calandar&#45;&gt;carl</title>
<g id="a_edge17"><a xlink:href="https://github.com/tilnow/tilnow.github.io/edit/master/calbot.md" xlink:title="calandar yak">
<path fill="none" stroke="#000000" d="M466.2953,-553.4325C466.2953,-514.1141 466.2953,-459.8231 466.2953,-427.1466"/>
<polygon fill="#000000" stroke="#000000" points="469.7954,-426.9464 466.2953,-416.9464 462.7954,-426.9465 469.7954,-426.9464"/>
</a>
</g>
<g id="a_edge17&#45;label"><a xlink:href="https://github.com/tilnow/tilnow.github.io/edit/master/calbot.md" xlink:title="calandar yak">
<text text-anchor="middle" x="501.2953" y="-487.3019" font-family="Times,serif" font-size="14.00" fill="#000000">calandar yak</text>
</a>
</g>
</g>
<!-- docs -->
<g id="node2" class="node">
<title>docs</title>
<g id="a_node2"><a xlink:href="https://github.com/tilnow/tilnow.github.io/edit/master/docs.md" xlink:title="google docs">
<ellipse fill="none" stroke="#00ff00" cx="57.2953" cy="-823.1841" rx="53.1055" ry="53.1055"/>
<ellipse fill="none" stroke="#00ff00" cx="57.2953" cy="-823.1841" rx="57.0913" ry="57.0913"/>
<text text-anchor="middle" x="57.2953" y="-819.4841" font-family="Times,serif" font-size="14.00" fill="#000000">google docs</text>
</a>
</g>
</g>
<!-- website -->
<g id="node15" class="node">
<title>website</title>
<g id="a_node15"><a xlink:href="https://github.com/tilnow/tilnow.github.io/edit/master/website.md" xlink:title="Yakcollective.org">
<ellipse fill="none" stroke="#00ff00" cx="128.2953" cy="-601.4453" rx="73.3899" ry="73.3899"/>
<ellipse fill="none" stroke="#00ff00" cx="128.2953" cy="-601.4453" rx="77.387" ry="77.387"/>
<text text-anchor="middle" x="128.2953" y="-597.7453" font-family="Times,serif" font-size="14.00" fill="#000000">Yakcollective.org</text>
</a>
</g>
</g>
<!-- docs&#45;&gt;website -->
<g id="edge16" class="edge">
<title>docs&#45;&gt;website</title>
<g id="a_edge16"><a xlink:href="https://github.com/tilnow/tilnow.github.io/edit/master/hostproj.md" xlink:title="host\nprojects">
<path fill="none" stroke="#000000" d="M74.8458,-768.3723C82.8905,-743.2481 92.604,-712.912 101.5316,-685.0306"/>
<polygon fill="#000000" stroke="#000000" points="104.9363,-685.8746 104.6525,-675.2835 98.2697,-683.7399 104.9363,-685.8746"/>
</a>
</g>
<g id="a_edge16&#45;label"><a xlink:href="https://github.com/tilnow/tilnow.github.io/edit/master/hostproj.md" xlink:title="host\nprojects">
<text text-anchor="middle" x="111.7953" y="-736.6888" font-family="Times,serif" font-size="14.00" fill="#000000">host</text>
<text text-anchor="middle" x="111.7953" y="-721.6888" font-family="Times,serif" font-size="14.00" fill="#000000">projects</text>
</a>
</g>
</g>
<!-- forms -->
<g id="node3" class="node">
<title>forms</title>
<g id="a_node3"><a xlink:href="https://github.com/tilnow/tilnow.github.io/edit/master/forms.md" xlink:title="registration\nform">
<ellipse fill="none" stroke="#00ff00" cx="163.2953" cy="-398.8475" rx="55.2986" ry="55.2986"/>
<ellipse fill="none" stroke="#00ff00" cx="163.2953" cy="-398.8475" rx="59.3091" ry="59.3091"/>
<text text-anchor="middle" x="163.2953" y="-402.6475" font-family="Times,serif" font-size="14.00" fill="#000000">registration</text>
<text text-anchor="middle" x="163.2953" y="-387.6475" font-family="Times,serif" font-size="14.00" fill="#000000">form</text>
</a>
</g>
</g>
<!-- discord -->
<g id="node11" class="node">
<title>discord</title>
<g id="a_node11"><a xlink:href="https://github.com/tilnow/tilnow.github.io/edit/master/discord.md" xlink:title="Discord">
<ellipse fill="none" stroke="#00ff00" cx="413.2953" cy="-231.3466" rx="38.2082" ry="38.2082"/>
<ellipse fill="none" stroke="#00ff00" cx="413.2953" cy="-231.3466" rx="42.1937" ry="42.1937"/>
<text text-anchor="middle" x="413.2953" y="-227.6466" font-family="Times,serif" font-size="14.00" fill="#000000">Discord</text>
</a>
</g>
</g>
<!-- forms&#45;&gt;discord -->
<g id="edge10" class="edge">
<title>forms&#45;&gt;discord</title>
<g id="a_edge10"><a xlink:href="https://github.com/tilnow/tilnow.github.io/edit/master/invite.md" xlink:title="invite">
<path fill="none" stroke="#000000" d="M159.1195,-339.7914C160.9782,-322.1182 166.4844,-304.1503 179.2953,-291.6932 203.2064,-268.4423 296.3477,-283.269 328.2953,-273.6932 341.5093,-269.7325 355.1658,-263.8371 367.5639,-257.6948"/>
<polygon fill="#000000" stroke="#000000" points="369.4672,-260.6523 376.7713,-252.9776 366.2754,-254.4224 369.4672,-260.6523"/>
</a>
</g>
<g id="a_edge10&#45;label"><a xlink:href="https://github.com/tilnow/tilnow.github.io/edit/master/invite.md" xlink:title="invite">
<text text-anchor="middle" x="194.7953" y="-302.9932" font-family="Times,serif" font-size="14.00" fill="#000000">invite</text>
</a>
</g>
</g>
<!-- ifttt -->
<g id="node4" class="node">
<title>ifttt</title>
<g id="a_node4"><a xlink:href="https://github.com/tilnow/tilnow.github.io/edit/master/ifttt.md" xlink:title="IFTT">
<polygon fill="none" stroke="#00ff00" points="58.1911,-380.8969 60.1084,-380.9954 62.0058,-381.1429 63.8757,-381.3389 65.7105,-381.5829 67.5027,-381.8742 69.2453,-382.212 70.9316,-382.5954 72.5551,-383.0234 74.1098,-383.4947 75.5902,-384.0082 76.9909,-384.5623 78.3075,-385.1555 79.5357,-385.7863 80.6718,-386.4529 81.7128,-387.1535 82.6561,-387.8861 83.4996,-388.6487 84.2419,-389.4393 84.8821,-390.2557 85.4196,-391.0957 85.8547,-391.9569 86.1879,-392.8369 86.4203,-393.7335 86.5534,-394.6441 86.5892,-395.5662 86.5301,-396.4972 86.3787,-397.4348 86.1381,-398.3762 85.8117,-399.3189 85.4029,-400.2603 84.9156,-401.1978 84.3538,-402.1289 83.7215,-403.051 83.0229,-403.9616 82.2622,-404.8581 81.4438,-405.7382 80.5719,-406.5994 79.6505,-407.4393 78.6839,-408.2557 77.676,-409.0463 76.6307,-409.809 75.5517,-410.5416 74.4424,-411.2422 73.3063,-411.9087 72.1464,-412.5395 70.9656,-413.1328 69.7666,-413.6869 68.5518,-414.2003 67.3236,-414.6717 66.0838,-415.0996 64.8344,-415.4831 63.577,-415.8209 62.313,-416.1122 61.0438,-416.3562 59.7704,-416.5522 58.4939,-416.6996 57.2153,-416.7982 55.9354,-416.8475 54.6551,-416.8475 53.3753,-416.7982 52.0967,-416.6996 50.8202,-416.5522 49.5468,-416.3562 48.2775,-416.1122 47.0135,-415.8209 45.7561,-415.4831 44.5067,-415.0996 43.267,-414.6717 42.0387,-414.2003 40.824,-413.6869 39.625,-413.1328 38.4442,-412.5395 37.2843,-411.9087 36.1481,-411.2422 35.0389,-410.5416 33.9598,-409.809 32.9145,-409.0463 31.9066,-408.2557 30.94,-407.4393 30.0187,-406.5994 29.1467,-405.7382 28.3283,-404.8581 27.5677,-403.9616 26.8691,-403.051 26.2368,-402.1289 25.6749,-401.1978 25.1876,-400.2603 24.7789,-399.3189 24.4524,-398.3762 24.2118,-397.4348 24.0604,-396.4972 24.0013,-395.5662 24.0371,-394.6441 24.1702,-393.7335 24.4026,-392.8369 24.7358,-391.9569 25.1709,-391.0957 25.7085,-390.2557 26.3486,-389.4393 27.0909,-388.6487 27.9345,-387.8861 28.8777,-387.1535 29.9187,-386.4529 31.0549,-385.7863 32.283,-385.1555 33.5996,-384.5623 35.0004,-384.0082 36.4807,-383.4947 38.0354,-383.0234 39.6589,-382.5954 41.3452,-382.212 43.0879,-381.8742 44.8801,-381.5829 46.7148,-381.3389 48.5847,-381.1429 50.4822,-380.9954 52.3994,-380.8969 54.3287,-380.8475 56.2619,-380.8475 58.1911,-380.8969"/>
<text text-anchor="middle" x="55.2953" y="-395.1475" font-family="Times,serif" font-size="14.00" fill="#000000">IFTT</text>
</a>
</g>
</g>
<!-- twitter -->
<g id="node12" class="node">
<title>twitter</title>
<g id="a_node12"><a xlink:href="https://github.com/tilnow/tilnow.github.io/edit/master/twitter.md" xlink:title="Twitter">
<polygon fill="none" stroke="#00ff00" points="58.86,-213.3959 61.2201,-213.4945 63.5558,-213.6419 65.8576,-213.8379 68.1161,-214.0819 70.3222,-214.3732 72.4674,-214.7111 74.5432,-215.0945 76.5417,-215.5225 78.4555,-215.9938 80.2777,-216.5072 82.002,-217.0613 83.6227,-217.6546 85.1345,-218.2854 86.5331,-218.952 87.8145,-219.6525 88.9757,-220.3851 90.014,-221.1478 90.9278,-221.9384 91.7158,-222.7548 92.3775,-223.5947 92.9131,-224.4559 93.3232,-225.336 93.6093,-226.2326 93.7732,-227.1431 93.8173,-228.0652 93.7445,-228.9963 93.5581,-229.9338 93.262,-230.8753 92.8601,-231.8179 92.3569,-232.7593 91.7571,-233.6969 91.0655,-234.628 90.2871,-235.5501 89.4272,-236.4606 88.4909,-237.3572 87.4834,-238.2373 86.41,-239.0985 85.2759,-239.9384 84.086,-240.7548 82.8453,-241.5454 81.5586,-242.3081 80.2303,-243.0407 78.8649,-243.7412 77.4663,-244.4078 76.0385,-245.0386 74.585,-245.6319 73.109,-246.186 71.6137,-246.6994 70.1018,-247.1707 68.5757,-247.5987 67.0377,-247.9821 65.4899,-248.32 63.9339,-248.6113 62.3715,-248.8553 60.804,-249.0513 59.2327,-249.1987 57.6587,-249.2973 56.0833,-249.3466 54.5073,-249.3466 52.9318,-249.2973 51.3579,-249.1987 49.7866,-249.0513 48.219,-248.8553 46.6566,-248.6113 45.1007,-248.32 43.5528,-247.9821 42.0149,-247.5987 40.4888,-247.1707 38.9768,-246.6994 37.4815,-246.186 36.0056,-245.6319 34.5521,-245.0386 33.1242,-244.4078 31.7257,-243.7412 30.3602,-243.0407 29.0319,-242.3081 27.7452,-241.5454 26.5045,-240.7548 25.3147,-239.9384 24.1805,-239.0985 23.1071,-238.2373 22.0997,-237.3572 21.1634,-236.4606 20.3034,-235.5501 19.5251,-234.628 18.8335,-233.6969 18.2336,-232.7593 17.7304,-231.8179 17.3286,-230.8753 17.0324,-229.9338 16.8461,-228.9963 16.7733,-228.0652 16.8174,-227.1431 16.9812,-226.2326 17.2673,-225.336 17.6775,-224.4559 18.213,-223.5947 18.8747,-222.7548 19.6627,-221.9384 20.5765,-221.1478 21.6149,-220.3851 22.776,-219.6525 24.0575,-218.952 25.456,-218.2854 26.9679,-217.6546 28.5885,-217.0613 30.3128,-216.5072 32.1351,-215.9938 34.0489,-215.5225 36.0474,-215.0945 38.1231,-214.7111 40.2683,-214.3732 42.4745,-214.0819 44.733,-213.8379 47.0347,-213.6419 49.3705,-213.4945 51.7306,-213.3959 54.1054,-213.3466 56.4851,-213.3466 58.86,-213.3959"/>
<text text-anchor="middle" x="55.2953" y="-227.6466" font-family="Times,serif" font-size="14.00" fill="#000000">Twitter</text>
</a>
</g>
</g>
<!-- ifttt&#45;&gt;twitter -->
<g id="edge2" class="edge">
<title>ifttt&#45;&gt;twitter</title>
<g id="a_edge2"><a xlink:href="https://github.com/tilnow/tilnow.github.io/edit/master/feedupdates.md" xlink:title="feedupdates">
<path fill="none" stroke="#ff0000" d="M55.2953,-380.6031C55.2953,-351.5294 55.2953,-294.4546 55.2953,-259.9236"/>
<polygon fill="#ff0000" stroke="#ff0000" points="58.7954,-259.5685 55.2953,-249.5685 51.7954,-259.5685 58.7954,-259.5685"/>
</a>
</g>
<g id="a_edge2&#45;label"><a xlink:href="https://github.com/tilnow/tilnow.github.io/edit/master/feedupdates.md" xlink:title="feedupdates">
<text text-anchor="middle" x="87.7953" y="-302.9932" font-family="Times,serif" font-size="14.00" fill="#000000">feedupdates</text>
</a>
</g>
</g>
<!-- dns -->
<g id="node5" class="node">
<title>dns</title>
<g id="a_node5"><a xlink:href="https://github.com/tilnow/tilnow.github.io/edit/master/dns.md" xlink:title="Namecheap">
<polygon fill="none" stroke="#00ff00" points="268.4892,-213.3959 271.9279,-213.4945 275.3312,-213.6419 278.6849,-213.8379 281.9756,-214.0819 285.1901,-214.3732 288.3157,-214.7111 291.3402,-215.0945 294.2521,-215.5225 297.0406,-215.9938 299.6956,-216.5072 302.208,-217.0613 304.5693,-217.6546 306.7722,-218.2854 308.8099,-218.952 310.677,-219.6525 312.3689,-220.3851 313.8818,-221.1478 315.2132,-221.9384 316.3613,-222.7548 317.3255,-223.5947 318.1058,-224.4559 318.7034,-225.336 319.1202,-226.2326 319.359,-227.1431 319.4232,-228.0652 319.3172,-228.9963 319.0457,-229.9338 318.6141,-230.8753 318.0286,-231.8179 317.2954,-232.7593 316.4215,-233.6969 315.4138,-234.628 314.2797,-235.5501 313.0267,-236.4606 311.6625,-237.3572 310.1946,-238.2373 308.6306,-239.0985 306.9781,-239.9384 305.2445,-240.7548 303.4367,-241.5454 301.5619,-242.3081 299.6266,-243.0407 297.6371,-243.7412 295.5993,-244.4078 293.5189,-245.0386 291.401,-245.6319 289.2506,-246.186 287.0718,-246.6994 284.8689,-247.1707 282.6453,-247.5987 280.4044,-247.9821 278.1492,-248.32 275.8821,-248.6113 273.6056,-248.8553 271.3217,-249.0513 269.0322,-249.1987 266.7389,-249.2973 264.4434,-249.3466 262.1471,-249.3466 259.8516,-249.2973 257.5583,-249.1987 255.2689,-249.0513 252.9849,-248.8553 250.7084,-248.6113 248.4414,-248.32 246.1861,-247.9821 243.9452,-247.5987 241.7217,-247.1707 239.5187,-246.6994 237.34,-246.186 235.1895,-245.6319 233.0716,-245.0386 230.9912,-244.4078 228.9535,-243.7412 226.964,-243.0407 225.0286,-242.3081 223.1538,-241.5454 221.3461,-240.7548 219.6124,-239.9384 217.9599,-239.0985 216.396,-238.2373 214.9281,-237.3572 213.5638,-236.4606 212.3109,-235.5501 211.1768,-234.628 210.1691,-233.6969 209.2951,-232.7593 208.5619,-231.8179 207.9764,-230.8753 207.5449,-229.9338 207.2734,-228.9963 207.1673,-228.0652 207.2315,-227.1431 207.4703,-226.2326 207.8871,-225.336 208.4847,-224.4559 209.2651,-223.5947 210.2292,-222.7548 211.3773,-221.9384 212.7087,-221.1478 214.2217,-220.3851 215.9135,-219.6525 217.7806,-218.952 219.8184,-218.2854 222.0212,-217.6546 224.3825,-217.0613 226.8949,-216.5072 229.55,-215.9938 232.3385,-215.5225 235.2504,-215.0945 238.2749,-214.7111 241.4004,-214.3732 244.6149,-214.0819 247.9056,-213.8379 251.2594,-213.6419 254.6626,-213.4945 258.1014,-213.3959 261.5616,-213.3466 265.029,-213.3466 268.4892,-213.3959"/>
<text text-anchor="middle" x="263.2953" y="-227.6466" font-family="Times,serif" font-size="14.00" fill="#000000">Namecheap</text>
</a>
</g>
</g>
<!-- netlify -->
<g id="node7" class="node">
<title>netlify</title>
<g id="a_node7"><a xlink:href="https://github.com/tilnow/tilnow.github.io/edit/master/netlify.md" xlink:title="Netlify">
<polygon fill="none" stroke="#00ff00" points="229.8243,-87.0493 232.1608,-87.1479 234.4731,-87.2953 236.7518,-87.4913 238.9877,-87.7353 241.1718,-88.0266 243.2955,-88.3645 245.3505,-88.7479 247.329,-89.1759 249.2236,-89.6472 251.0276,-90.1606 252.7347,-90.7147 254.3391,-91.308 255.8358,-91.9388 257.2203,-92.6054 258.489,-93.3059 259.6385,-94.0385 260.6665,-94.8012 261.5711,-95.5918 262.3512,-96.4082 263.0063,-97.2481 263.5365,-98.1093 263.9425,-98.9894 264.2257,-99.886 264.388,-100.7965 264.4316,-101.7186 264.3596,-102.6497 264.1751,-103.5873 263.8819,-104.5287 263.484,-105.4713 262.9859,-106.4127 262.3921,-107.3503 261.7074,-108.2814 260.9368,-109.2035 260.0855,-110.114 259.1585,-111.0106 258.1612,-111.8907 257.0985,-112.7519 255.9757,-113.5918 254.7978,-114.4082 253.5695,-115.1988 252.2957,-115.9615 250.9807,-116.6941 249.6289,-117.3946 248.2444,-118.0612 246.8308,-118.692 245.3918,-119.2853 243.9307,-119.8394 242.4503,-120.3528 240.9535,-120.8241 239.4427,-121.2521 237.9202,-121.6355 236.3878,-121.9734 234.8475,-122.2647 233.3007,-122.5087 231.7488,-122.7047 230.1933,-122.8521 228.6351,-122.9507 227.0754,-123 225.5152,-123 223.9555,-122.9507 222.3973,-122.8521 220.8417,-122.7047 219.2899,-122.5087 217.7431,-122.2647 216.2027,-121.9734 214.6704,-121.6355 213.1478,-121.2521 211.637,-120.8241 210.1402,-120.3528 208.6599,-119.8394 207.1987,-119.2853 205.7597,-118.692 204.3462,-118.0612 202.9616,-117.3946 201.6098,-116.6941 200.2949,-115.9615 199.021,-115.1988 197.7928,-114.4082 196.6148,-113.5918 195.492,-112.7519 194.4294,-111.8907 193.432,-111.0106 192.5051,-110.114 191.6537,-109.2035 190.8832,-108.2814 190.1985,-107.3503 189.6047,-106.4127 189.1065,-105.4713 188.7087,-104.5287 188.4155,-103.5873 188.231,-102.6497 188.1589,-101.7186 188.2026,-100.7965 188.3648,-99.886 188.648,-98.9894 189.0541,-98.1093 189.5843,-97.2481 190.2393,-96.4082 191.0195,-95.5918 191.9241,-94.8012 192.952,-94.0385 194.1016,-93.3059 195.3702,-92.6054 196.7548,-91.9388 198.2515,-91.308 199.8559,-90.7147 201.5629,-90.1606 203.3669,-89.6472 205.2616,-89.1759 207.2401,-88.7479 209.2951,-88.3645 211.4187,-88.0266 213.6028,-87.7353 215.8387,-87.4913 218.1174,-87.2953 220.4298,-87.1479 222.7663,-87.0493 225.1173,-87 227.4732,-87 229.8243,-87.0493"/>
<text text-anchor="middle" x="226.2953" y="-101.3" font-family="Times,serif" font-size="14.00" fill="#000000">Netlify</text>
</a>
</g>
</g>
<!-- dns&#45;&gt;netlify -->
<g id="edge8" class="edge">
<title>dns&#45;&gt;netlify</title>
<g id="a_edge8"><a xlink:href="https://github.com/tilnow/tilnow.github.io/edit/master/cname.md" xlink:title="CNAME">
<path fill="none" stroke="#ff0000" d="M257.9941,-213.2442C251.8396,-192.228 241.6186,-157.3258 234.4509,-132.8495"/>
<polygon fill="#ff0000" stroke="#ff0000" points="237.7561,-131.6821 231.5866,-123.0688 231.0382,-133.6494 237.7561,-131.6821"/>
</a>
</g>
<g id="a_edge8&#45;label"><a xlink:href="https://github.com/tilnow/tilnow.github.io/edit/master/cname.md" xlink:title="CNAME">
<text text-anchor="middle" x="269.2953" y="-152.3" font-family="Times,serif" font-size="14.00" fill="#000000">CNAME</text>
</a>
</g>
</g>
<!-- github -->
<g id="node6" class="node">
<title>github</title>
<g id="a_node6"><a xlink:href="https://github.com/tilnow/tilnow.github.io/edit/master/github.md" xlink:title="GitHub">
<polygon fill="none" stroke="#00ff00" points="283.9417,-380.8969 286.3559,-380.9954 288.7451,-381.1429 291.0996,-381.3389 293.4099,-381.5829 295.6667,-381.8742 297.861,-382.212 299.9843,-382.5954 302.0286,-383.0234 303.9863,-383.4947 305.8503,-384.0082 307.6141,-384.5623 309.2719,-385.1555 310.8184,-385.7863 312.249,-386.4529 313.5598,-387.1535 314.7476,-387.8861 315.8098,-388.6487 316.7445,-389.4393 317.5505,-390.2557 318.2274,-391.0957 318.7752,-391.9569 319.1948,-392.8369 319.4874,-393.7335 319.655,-394.6441 319.7001,-395.5662 319.6257,-396.4972 319.4351,-397.4348 319.1321,-398.3762 318.721,-399.3189 318.2063,-400.2603 317.5927,-401.1978 316.8853,-402.1289 316.0891,-403.051 315.2094,-403.9616 314.2517,-404.8581 313.2211,-405.7382 312.1231,-406.5994 310.963,-407.4393 309.7459,-408.2557 308.4768,-409.0463 307.1605,-409.809 305.8018,-410.5416 304.4051,-411.2422 302.9745,-411.9087 301.5139,-412.5395 300.027,-413.1328 298.5173,-413.6869 296.9877,-414.2003 295.4411,-414.6717 293.8801,-415.0996 292.3068,-415.4831 290.7235,-415.8209 289.1319,-416.1122 287.5337,-416.3562 285.9302,-416.5522 284.3229,-416.6996 282.7129,-416.7982 281.1013,-416.8475 279.4892,-416.8475 277.8776,-416.7982 276.2676,-416.6996 274.6603,-416.5522 273.0569,-416.3562 271.4586,-416.1122 269.867,-415.8209 268.2837,-415.4831 266.7105,-415.0996 265.1494,-414.6717 263.6028,-414.2003 262.0733,-413.6869 260.5635,-413.1328 259.0766,-412.5395 257.6161,-411.9087 256.1855,-411.2422 254.7887,-410.5416 253.43,-409.809 252.1138,-409.0463 250.8447,-408.2557 249.6275,-407.4393 248.4674,-406.5994 247.3694,-405.7382 246.3389,-404.8581 245.3811,-403.9616 244.5015,-403.051 243.7053,-402.1289 242.9978,-401.1978 242.3842,-400.2603 241.8695,-399.3189 241.4584,-398.3762 241.1555,-397.4348 240.9649,-396.4972 240.8904,-395.5662 240.9355,-394.6441 241.1031,-393.7335 241.3958,-392.8369 241.8153,-391.9569 242.3631,-391.0957 243.04,-390.2557 243.8461,-389.4393 244.7808,-388.6487 245.843,-387.8861 247.0307,-387.1535 248.3415,-386.4529 249.7721,-385.7863 251.3186,-385.1555 252.9764,-384.5623 254.7403,-384.0082 256.6043,-383.4947 258.5619,-383.0234 260.6062,-382.5954 262.7296,-382.212 264.9239,-381.8742 267.1806,-381.5829 269.4909,-381.3389 271.8454,-381.1429 274.2347,-380.9954 276.6489,-380.8969 279.0781,-380.8475 281.5124,-380.8475 283.9417,-380.8969"/>
<text text-anchor="middle" x="280.2953" y="-395.1475" font-family="Times,serif" font-size="14.00" fill="#000000">GitHub</text>
</a>
</g>
</g>
<!-- jekyll -->
<g id="node8" class="node">
<title>jekyll</title>
<g id="a_node8"><a xlink:href="https://github.com/tilnow/tilnow.github.io/edit/master/jekyll.md" xlink:title="Jekyll">
<polygon fill="none" stroke="#0000ff" points="189.2953,-249.3466 135.2953,-249.3466 135.2953,-213.3466 189.2953,-213.3466 189.2953,-249.3466"/>
<text text-anchor="middle" x="162.2953" y="-227.6466" font-family="Times,serif" font-size="14.00" fill="#000000">Jekyll</text>
</a>
</g>
</g>
<!-- github&#45;&gt;jekyll -->
<g id="edge19" class="edge">
<title>github&#45;&gt;jekyll</title>
<g id="a_edge19"><a xlink:href="https://github.com/tilnow/tilnow.github.io/edit/master/mdfiles.md" xlink:title="md files\nand others">
<path fill="none" stroke="#ff0000" d="M270.6716,-381.1687C258.547,-359.4135 236.5879,-321.6753 214.2953,-291.6932 207.9087,-283.1037 205.3177,-281.7712 198.2953,-273.6932 193.7015,-268.4089 188.8196,-262.718 184.182,-257.2756"/>
<polygon fill="#ff0000" stroke="#ff0000" points="186.7659,-254.9112 177.6241,-249.5559 181.4309,-259.4432 186.7659,-254.9112"/>
</a>
</g>
<g id="a_edge19&#45;label"><a xlink:href="https://github.com/tilnow/tilnow.github.io/edit/master/mdfiles.md" xlink:title="md files\nand others">
<text text-anchor="middle" x="261.7953" y="-310.4932" font-family="Times,serif" font-size="14.00" fill="#000000">md files</text>
<text text-anchor="middle" x="261.7953" y="-295.4932" font-family="Times,serif" font-size="14.00" fill="#000000">and others</text>
</a>
</g>
</g>
<!-- internet -->
<g id="node9" class="node">
<title>internet</title>
<g id="a_node9"><a xlink:href="https://github.com/tilnow/tilnow.github.io/edit/master/internet.md" xlink:title="Internet">
<polygon fill="none" stroke="#00ff00" points="230.0591,-.0493 232.5511,-.1479 235.0173,-.2953 237.4476,-.4913 239.8323,-.7353 242.1617,-1.0266 244.4267,-1.3645 246.6185,-1.7479 248.7286,-2.1759 250.7493,-2.6472 252.6734,-3.1606 254.494,-3.7147 256.2052,-4.308 257.8015,-4.9388 259.2782,-5.6054 260.6312,-6.3059 261.8573,-7.0385 262.9536,-7.8012 263.9184,-8.5918 264.7505,-9.4082 265.4491,-10.2481 266.0146,-11.1093 266.4477,-11.9894 266.7497,-12.886 266.9228,-13.7965 266.9693,-14.7186 266.8925,-15.6497 266.6957,-16.5873 266.383,-17.5287 265.9587,-18.4713 265.4274,-19.4127 264.794,-20.3503 264.0638,-21.2814 263.242,-22.2035 262.334,-23.114 261.3454,-24.0106 260.2816,-24.8907 259.1483,-25.7519 257.9508,-26.5918 256.6944,-27.4082 255.3844,-28.1988 254.0258,-28.9615 252.6233,-29.6941 251.1816,-30.3946 249.7049,-31.0612 248.1973,-31.692 246.6626,-32.2853 245.1042,-32.8394 243.5253,-33.3528 241.9289,-33.8241 240.3176,-34.2521 238.6937,-34.6355 237.0594,-34.9734 235.4165,-35.2647 233.7668,-35.5087 232.1117,-35.7047 230.4526,-35.8521 228.7908,-35.9507 227.1273,-36 225.4633,-36 223.7998,-35.9507 222.1379,-35.8521 220.4788,-35.7047 218.8237,-35.5087 217.174,-35.2647 215.5311,-34.9734 213.8968,-34.6355 212.2729,-34.2521 210.6616,-33.8241 209.0652,-33.3528 207.4864,-32.8394 205.928,-32.2853 204.3932,-31.692 202.8856,-31.0612 201.4089,-30.3946 199.9672,-29.6941 198.5647,-28.9615 197.2061,-28.1988 195.8961,-27.4082 194.6398,-26.5918 193.4423,-25.7519 192.3089,-24.8907 191.2452,-24.0106 190.2566,-23.114 189.3486,-22.2035 188.5267,-21.2814 187.7965,-20.3503 187.1632,-19.4127 186.6319,-18.4713 186.2075,-17.5287 185.8948,-16.5873 185.6981,-15.6497 185.6212,-14.7186 185.6678,-13.7965 185.8408,-12.886 186.1428,-11.9894 186.5759,-11.1093 187.1414,-10.2481 187.8401,-9.4082 188.6721,-8.5918 189.6369,-7.8012 190.7333,-7.0385 191.9593,-6.3059 193.3123,-5.6054 194.789,-4.9388 196.3853,-4.308 198.0965,-3.7147 199.9172,-3.1606 201.8412,-2.6472 203.8619,-2.1759 205.9721,-1.7479 208.1638,-1.3645 210.4288,-1.0266 212.7582,-.7353 215.1429,-.4913 217.5733,-.2953 220.0395,-.1479 222.5314,-.0493 225.0389,0 227.5516,0 230.0591,-.0493"/>
<text text-anchor="middle" x="226.2953" y="-14.3" font-family="Times,serif" font-size="14.00" fill="#000000">Internet</text>
</a>
</g>
</g>
<!-- netlify&#45;&gt;internet -->
<g id="edge21" class="edge">
<title>netlify&#45;&gt;internet</title>
<g id="a_edge21"><a xlink:href="https://github.com/tilnow/tilnow.github.io/edit/master/deploy.md" xlink:title="Deploy">
<path fill="none" stroke="#ff0000" d="M226.2953,-86.9735C226.2953,-75.1918 226.2953,-59.5607 226.2953,-46.1581"/>
<polygon fill="#ff0000" stroke="#ff0000" points="229.7954,-46.0033 226.2953,-36.0034 222.7954,-46.0034 229.7954,-46.0033"/>
</a>
</g>
<g id="a_edge21&#45;label"><a xlink:href="https://github.com/tilnow/tilnow.github.io/edit/master/deploy.md" xlink:title="Deploy">
<text text-anchor="middle" x="246.2953" y="-57.8" font-family="Times,serif" font-size="14.00" fill="#000000">Deploy</text>
</a>
</g>
</g>
<!-- jekyll&#45;&gt;netlify -->
<g id="edge20" class="edge">
<title>jekyll&#45;&gt;netlify</title>
<g id="a_edge20"><a xlink:href="https://github.com/tilnow/tilnow.github.io/edit/master/rendered website.md" xlink:title="Rendered\nwebsite">
<path fill="none" stroke="#ff0000" d="M162.286,-213.0296C163.0702,-193.7582 166.6313,-163.2015 180.2953,-141 184.2419,-134.5874 189.7688,-128.8663 195.6273,-123.9748"/>
<polygon fill="#ff0000" stroke="#ff0000" points="197.8635,-126.6714 203.7045,-117.832 193.6261,-121.0996 197.8635,-126.6714"/>
</a>
</g>
<g id="a_edge20&#45;label"><a xlink:href="https://github.com/tilnow/tilnow.github.io/edit/master/rendered website.md" xlink:title="Rendered\nwebsite">
<text text-anchor="middle" x="206.2953" y="-159.8" font-family="Times,serif" font-size="14.00" fill="#000000">Rendered</text>
<text text-anchor="middle" x="206.2953" y="-144.8" font-family="Times,serif" font-size="14.00" fill="#000000">website</text>
</a>
</g>
</g>
<!-- carl&#45;&gt;discord -->
<g id="edge18" class="edge">
<title>carl&#45;&gt;discord</title>
<g id="a_edge18"><a xlink:href="https://github.com/tilnow/tilnow.github.io/edit/master/reminders.md" xlink:title="reminders">
<path fill="none" stroke="#ff0000" d="M460.6233,-380.922C453.186,-357.4171 439.8359,-315.2253 429.2062,-281.6315"/>
<polygon fill="#ff0000" stroke="#ff0000" points="432.5,-280.4389 426.1462,-271.9607 425.8261,-282.5507 432.5,-280.4389"/>
</a>
</g>
<g id="a_edge18&#45;label"><a xlink:href="https://github.com/tilnow/tilnow.github.io/edit/master/reminders.md" xlink:title="reminders">
<text text-anchor="middle" x="468.7953" y="-302.9932" font-family="Times,serif" font-size="14.00" fill="#000000">reminders</text>
</a>
</g>
</g>
<!-- welcomer -->
<g id="node13" class="node">
<title>welcomer</title>
<g id="a_node13"><a xlink:href="https://github.com/tilnow/tilnow.github.io/edit/master/welcomer.md" xlink:title="welcome bot">
<polygon fill="none" stroke="#0000ff" points="570.7953,-123 483.7953,-123 483.7953,-87 570.7953,-87 570.7953,-123"/>
<text text-anchor="middle" x="527.2953" y="-101.3" font-family="Times,serif" font-size="14.00" fill="#000000">welcome bot</text>
</a>
</g>
</g>
<!-- discord&#45;&gt;welcomer -->
<g id="edge11" class="edge">
<title>discord&#45;&gt;welcomer</title>
<g id="a_edge11"><a xlink:href="https://github.com/tilnow/tilnow.github.io/edit/master/newby.md" xlink:title="newby">
<path fill="none" stroke="#ff0000" d="M454.7581,-221.9087C498.7189,-210.9633 563.7906,-191.7492 578.2953,-171 585.9344,-160.072 584.4295,-152.8385 578.2953,-141 576.191,-136.9389 573.3945,-133.2384 570.1911,-129.89"/>
<polygon fill="#ff0000" stroke="#ff0000" points="572.4213,-127.1888 562.6394,-123.1188 567.7482,-132.4005 572.4213,-127.1888"/>
</a>
</g>
<g id="a_edge11&#45;label"><a xlink:href="https://github.com/tilnow/tilnow.github.io/edit/master/newby.md" xlink:title="newby">
<text text-anchor="middle" x="601.7953" y="-152.3" font-family="Times,serif" font-size="14.00" fill="#000000">newby</text>
</a>
</g>
</g>
<!-- yakyak -->
<g id="node14" class="node">
<title>yakyak</title>
<g id="a_node14"><a xlink:href="https://github.com/tilnow/tilnow.github.io/edit/master/yakyak.md" xlink:title="yakyak carl&#45;bot">
<polygon fill="none" stroke="#0000ff" points="406.7953,-123 305.7953,-123 305.7953,-87 406.7953,-87 406.7953,-123"/>
<text text-anchor="middle" x="356.2953" y="-101.3" font-family="Times,serif" font-size="14.00" fill="#000000">yakyak carl&#45;bot</text>
</a>
</g>
</g>
<!-- discord&#45;&gt;yakyak -->
<g id="edge13" class="edge">
<title>discord&#45;&gt;yakyak</title>
<g id="a_edge13"><a xlink:href="https://github.com/tilnow/tilnow.github.io/edit/master/newby.md" xlink:title="newby">
<path fill="none" stroke="#ff0000" d="M394.6149,-193.1643C391.1239,-185.8363 387.5515,-178.2023 384.2953,-171 378.6069,-158.4179 372.5904,-144.3464 367.5985,-132.4393"/>
<polygon fill="#ff0000" stroke="#ff0000" points="370.7533,-130.9107 363.6759,-123.0265 364.2919,-133.6034 370.7533,-130.9107"/>
</a>
</g>
<g id="a_edge13&#45;label"><a xlink:href="https://github.com/tilnow/tilnow.github.io/edit/master/newby.md" xlink:title="newby">
<text text-anchor="middle" x="402.7953" y="-152.3" font-family="Times,serif" font-size="14.00" fill="#000000">newby</text>
</a>
</g>
</g>
<!-- welcomer&#45;&gt;discord -->
<g id="edge12" class="edge">
<title>welcomer&#45;&gt;discord</title>
<g id="a_edge12"><a xlink:href="https://github.com/tilnow/tilnow.github.io/edit/master/welcoming.md" xlink:title="welcoming">
<path fill="none" stroke="#000000" d="M483.4116,-116.2944C469.3548,-121.7709 454.7428,-129.696 444.2953,-141 434.4231,-151.6815 427.6766,-165.6493 423.073,-179.3976"/>
<polygon fill="#000000" stroke="#000000" points="419.6173,-178.7351 420.0854,-189.3196 426.3201,-180.7534 419.6173,-178.7351"/>
</a>
</g>
<g id="a_edge12&#45;label"><a xlink:href="https://github.com/tilnow/tilnow.github.io/edit/master/welcoming.md" xlink:title="welcoming">
<text text-anchor="middle" x="474.7953" y="-152.3" font-family="Times,serif" font-size="14.00" fill="#000000">welcoming</text>
</a>
</g>
</g>
<!-- welcomer&#45;&gt;discord -->
<g id="edge15" class="edge">
<title>welcomer&#45;&gt;discord</title>
<g id="a_edge15"><a xlink:href="https://github.com/tilnow/tilnow.github.io/edit/master/welcoming.md" xlink:title="welcome\nnew user">
<path fill="none" stroke="#000000" d="M524.6164,-123.0543C521.7714,-137.2569 516.1249,-156.9304 505.2953,-171 493.5968,-186.1984 476.9225,-198.7579 460.9751,-208.4106"/>
<polygon fill="#000000" stroke="#000000" points="459.1292,-205.4349 452.2264,-213.4725 462.6349,-211.4939 459.1292,-205.4349"/>
</a>
</g>
<g id="a_edge15&#45;label"><a xlink:href="https://github.com/tilnow/tilnow.github.io/edit/master/welcoming.md" xlink:title="welcome\nnew user">
<text text-anchor="middle" x="544.2953" y="-159.8" font-family="Times,serif" font-size="14.00" fill="#000000">welcome</text>
<text text-anchor="middle" x="544.2953" y="-144.8" font-family="Times,serif" font-size="14.00" fill="#000000">new user</text>
</a>
</g>
</g>
<!-- yakyak&#45;&gt;discord -->
<g id="edge14" class="edge">
<title>yakyak&#45;&gt;discord</title>
<g id="a_edge14"><a xlink:href="https://github.com/tilnow/tilnow.github.io/edit/master/prune.md" xlink:title="prune">
<path fill="none" stroke="#000000" d="M343.6648,-123.2276C335.9202,-136.8161 328.8015,-155.6059 336.2953,-171 343.0601,-184.8967 354.7452,-196.539 366.9977,-205.7736"/>
<polygon fill="#000000" stroke="#000000" points="365.3276,-208.8786 375.5173,-211.7803 369.3612,-203.1575 365.3276,-208.8786"/>
</a>
</g>
<g id="a_edge14&#45;label"><a xlink:href="https://github.com/tilnow/tilnow.github.io/edit/master/prune.md" xlink:title="prune">
<text text-anchor="middle" x="351.7953" y="-152.3" font-family="Times,serif" font-size="14.00" fill="#000000">prune</text>
</a>
</g>
</g>
<!-- website&#45;&gt;forms -->
<g id="edge9" class="edge">
<title>website&#45;&gt;forms</title>
<g id="a_edge9"><a xlink:href="https://github.com/tilnow/tilnow.github.io/edit/master/newuserdata.md" xlink:title="minimal\nuser data">
<path fill="none" stroke="#ff0000" d="M141.5273,-524.8518C144.794,-505.9425 148.272,-485.8101 151.4671,-467.3149"/>
<polygon fill="#ff0000" stroke="#ff0000" points="154.9565,-467.6762 153.21,-457.2263 148.0586,-466.4845 154.9565,-467.6762"/>
</a>
</g>
<g id="a_edge9&#45;label"><a xlink:href="https://github.com/tilnow/tilnow.github.io/edit/master/newuserdata.md" xlink:title="minimal\nuser data">
<text text-anchor="middle" x="173.7953" y="-494.8019" font-family="Times,serif" font-size="14.00" fill="#000000">minimal</text>
<text text-anchor="middle" x="173.7953" y="-479.8019" font-family="Times,serif" font-size="14.00" fill="#000000">user data</text>
</a>
</g>
</g>
<!-- website&#45;&gt;ifttt -->
<g id="edge1" class="edge">
<title>website&#45;&gt;ifttt</title>
<g id="a_edge1"><a xlink:href="https://github.com/tilnow/tilnow.github.io/edit/master/feedupdates.md" xlink:title="feedupdates">
<path fill="none" stroke="#ff0000" d="M88.7186,-534.8541C84.0654,-525.3751 79.7528,-515.587 76.2953,-506.0019 66.9531,-480.1031 61.452,-449.1022 58.4406,-427.1238"/>
<polygon fill="#ff0000" stroke="#ff0000" points="61.9014,-426.594 57.1563,-417.1211 54.9584,-427.4854 61.9014,-426.594"/>
</a>
</g>
<g id="a_edge1&#45;label"><a xlink:href="https://github.com/tilnow/tilnow.github.io/edit/master/feedupdates.md" xlink:title="feedupdates">
<text text-anchor="middle" x="108.7953" y="-487.3019" font-family="Times,serif" font-size="14.00" fill="#000000">feedupdates</text>
</a>
</g>
</g>
<!-- netlifyrt -->
<g id="node16" class="node">
<title>netlifyrt</title>
<g id="a_node16"><a xlink:href="https://github.com/tilnow/tilnow.github.io/edit/master/netlifyrt.md" xlink:title="netlify\nbackending">
<polygon fill="none" stroke="#00ff00" points="313.7991,-574.7596 317.4432,-574.9061 321.0495,-575.1253 324.6034,-575.4167 328.0905,-575.7794 331.4969,-576.2125 334.809,-576.7147 338.0139,-577.2847 341.0996,-577.9209 344.0545,-578.6217 346.8681,-579.3849 349.5304,-580.2087 352.0327,-581.0906 354.3669,-582.0283 356.5263,-583.0193 358.5048,-584.0607 360.2977,-585.1499 361.9009,-586.2836 363.3118,-587.459 364.5284,-588.6726 365.5501,-589.9213 366.377,-591.2016 367.0103,-592.5099 367.452,-593.8427 367.705,-595.1964 367.7731,-596.5672 367.6607,-597.9514 367.373,-599.3451 366.9157,-600.7446 366.2952,-602.146 365.5183,-603.5455 364.5921,-604.9393 363.5243,-606.3235 362.3225,-607.6943 360.9948,-609.0479 359.5491,-610.3808 357.9936,-611.6891 356.3363,-612.9694 354.5852,-614.218 352.7481,-615.4317 350.8325,-616.607 348.8457,-617.7408 346.7949,-618.8299 344.6866,-619.8714 342.5273,-620.8623 340.3227,-621.8001 338.0785,-622.682 335.7996,-623.5058 333.4908,-624.269 331.1564,-624.9697 328.8002,-625.606 326.4256,-626.176 324.0357,-626.6782 321.6333,-627.1113 319.2209,-627.474 316.8007,-627.7653 314.3746,-627.9846 311.9445,-628.1311 309.5119,-628.2044 307.0786,-628.2044 304.6461,-628.1311 302.2159,-627.9846 299.7898,-627.7653 297.3696,-627.474 294.9572,-627.1113 292.5548,-626.6782 290.165,-626.176 287.7904,-625.606 285.4341,-624.9697 283.0997,-624.269 280.7909,-623.5058 278.5121,-622.682 276.2678,-621.8001 274.0633,-620.8623 271.9039,-619.8714 269.7956,-618.8299 267.7448,-617.7408 265.7581,-616.607 263.8425,-615.4317 262.0053,-614.218 260.2542,-612.9694 258.5969,-611.6891 257.0414,-610.3808 255.5958,-609.0479 254.268,-607.6943 253.0662,-606.3235 251.9984,-604.9393 251.0723,-603.5455 250.2953,-602.146 249.6749,-600.7446 249.2176,-599.3451 248.9299,-597.9514 248.8175,-596.5672 248.8855,-595.1964 249.1386,-593.8427 249.5803,-592.5099 250.2135,-591.2016 251.0404,-589.9213 252.0621,-588.6726 253.2788,-587.459 254.6896,-586.2836 256.2929,-585.1499 258.0857,-584.0607 260.0642,-583.0193 262.2236,-582.0283 264.5579,-581.0906 267.0602,-580.2087 269.7225,-579.3849 272.536,-578.6217 275.4909,-577.9209 278.5766,-577.2847 281.7816,-576.7147 285.0937,-576.2125 288.5,-575.7794 291.9871,-575.4167 295.5411,-575.1253 299.1474,-574.9061 302.7914,-574.7596 306.4581,-574.6863 310.1324,-574.6863 313.7991,-574.7596"/>
<text text-anchor="middle" x="308.2953" y="-605.2453" font-family="Times,serif" font-size="14.00" fill="#000000">netlify</text>
<text text-anchor="middle" x="308.2953" y="-590.2453" font-family="Times,serif" font-size="14.00" fill="#000000">backending</text>
</a>
</g>
</g>
<!-- netlifyrt&#45;&gt;github -->
<g id="edge6" class="edge">
<title>netlifyrt&#45;&gt;github</title>
<g id="a_edge6"><a xlink:href="https://github.com/tilnow/tilnow.github.io/edit/master/create_post.md" xlink:title="create_post">
<path fill="none" stroke="#000000" d="M298.6615,-574.7073C292.3627,-555.7974 284.6949,-529.6954 281.2953,-506.0019 277.4978,-479.5355 277.649,-449.0136 278.5121,-427.3313"/>
<polygon fill="#000000" stroke="#000000" points="282.0167,-427.3154 278.9949,-417.1607 275.0246,-426.9834 282.0167,-427.3154"/>
</a>
</g>
<g id="a_edge6&#45;label"><a xlink:href="https://github.com/tilnow/tilnow.github.io/edit/master/create_post.md" xlink:title="create_post">
<text text-anchor="middle" x="312.2953" y="-487.3019" font-family="Times,serif" font-size="14.00" fill="#000000">create_post</text>
</a>
</g>
</g>
<!-- netlifyrt&#45;&gt;discord -->
<g id="edge7" class="edge">
<title>netlifyrt&#45;&gt;discord</title>
<g id="a_edge7"><a xlink:href="https://github.com/tilnow/tilnow.github.io/edit/master/create_post.md" xlink:title="create_post">
<path fill="none" stroke="#000000" d="M319.8244,-574.7757C327.5496,-555.8973 337.3578,-529.8047 343.2953,-506.0019 361.3549,-433.6018 346.1507,-411.541 366.2953,-339.6932 372.1197,-318.9197 381.0965,-296.9188 389.6502,-278.2089"/>
<polygon fill="#000000" stroke="#000000" points="392.8765,-279.5716 393.9321,-269.0295 386.5328,-276.6124 392.8765,-279.5716"/>
</a>
</g>
<g id="a_edge7&#45;label"><a xlink:href="https://github.com/tilnow/tilnow.github.io/edit/master/create_post.md" xlink:title="create_post">
<text text-anchor="middle" x="397.2953" y="-395.1475" font-family="Times,serif" font-size="14.00" fill="#000000">create_post</text>
</a>
</g>
</g>
<!-- zapier -->
<g id="node17" class="node">
<title>zapier</title>
<g id="a_node17"><a xlink:href="https://github.com/tilnow/tilnow.github.io/edit/master/zapier.md" xlink:title="Zapier">
<polygon fill="none" stroke="#00ff00" points="807.625,-805.2334 809.8296,-805.332 812.0114,-805.4794 814.1615,-805.6754 816.2712,-805.9194 818.332,-806.2107 820.3357,-806.5486 822.2747,-806.932 824.1415,-807.36 825.9292,-807.8313 827.6313,-808.3447 829.242,-808.8988 830.7559,-809.4921 832.1681,-810.1229 833.4745,-810.7895 834.6715,-811.49 835.7561,-812.2226 836.726,-812.9853 837.5796,-813.7759 838.3156,-814.5923 838.9337,-815.4322 839.434,-816.2934 839.8171,-817.1735 840.0844,-818.0701 840.2374,-818.9806 840.2786,-819.9027 840.2106,-820.8338 840.0366,-821.7713 839.7599,-822.7127 839.3845,-823.6554 838.9145,-824.5968 838.3542,-825.5344 837.7082,-826.4655 836.9811,-827.3875 836.1778,-828.2981 835.3032,-829.1947 834.3622,-830.0748 833.3595,-830.9359 832.3001,-831.7759 831.1887,-832.5923 830.0298,-833.3829 828.8278,-834.1456 827.5871,-834.8782 826.3116,-835.5787 825.0052,-836.2453 823.6715,-836.8761 822.3137,-837.4693 820.9351,-838.0234 819.5383,-838.5369 818.126,-839.0082 816.7005,-839.4362 815.2639,-839.8196 813.818,-840.1575 812.3646,-840.4488 810.9052,-840.6927 809.441,-840.8887 807.9732,-841.0362 806.503,-841.1348 805.0313,-841.1841 803.5592,-841.1841 802.0876,-841.1348 800.6173,-841.0362 799.1496,-840.8887 797.6854,-840.6927 796.2259,-840.4488 794.7725,-840.1575 793.3267,-839.8196 791.8901,-839.4362 790.4646,-839.0082 789.0523,-838.5369 787.6555,-838.0234 786.2768,-837.4693 784.9191,-836.8761 783.5853,-836.2453 782.2789,-835.5787 781.0035,-834.8782 779.7627,-834.1456 778.5608,-833.3829 777.4019,-832.5923 776.2904,-831.7759 775.231,-830.9359 774.2284,-830.0748 773.2873,-829.1947 772.4127,-828.2981 771.6094,-827.3875 770.8824,-826.4655 770.2364,-825.5344 769.676,-824.5968 769.206,-823.6554 768.8306,-822.7127 768.554,-821.7713 768.3799,-820.8338 768.3119,-819.9027 768.3531,-818.9806 768.5062,-818.0701 768.7734,-817.1735 769.1565,-816.2934 769.6568,-815.4322 770.2749,-814.5923 771.011,-813.7759 771.8645,-812.9853 772.8345,-812.2226 773.9191,-811.49 775.1161,-810.7895 776.4225,-810.1229 777.8347,-809.4921 779.3485,-808.8988 780.9592,-808.3447 782.6613,-807.8313 784.449,-807.36 786.3158,-806.932 788.2548,-806.5486 790.2586,-806.2107 792.3194,-805.9194 794.429,-805.6754 796.5791,-805.4794 798.7609,-805.332 800.9655,-805.2334 803.1838,-805.1841 805.4067,-805.1841 807.625,-805.2334"/>
<text text-anchor="middle" x="804.2953" y="-819.4841" font-family="Times,serif" font-size="14.00" fill="#000000">Zapier</text>
</a>
</g>
</g>
<!-- gmail -->
<g id="node18" class="node">
<title>gmail</title>
<g id="a_node18"><a xlink:href="https://github.com/tilnow/tilnow.github.io/edit/master/gmail.md" xlink:title="yakcollective.org\n@gmail.com">
<polygon fill="none" stroke="#00ff00" points="1230.9449,-796.4984 1236.0095,-796.6448 1241.0218,-796.8641 1245.9613,-797.1554 1250.8078,-797.5182 1255.5422,-797.9512 1260.1455,-798.4535 1264.6,-799.0235 1268.8886,-799.6597 1272.9955,-800.3604 1276.9059,-801.1237 1280.6062,-801.9474 1284.084,-802.8294 1287.3283,-803.7671 1290.3295,-804.758 1293.0794,-805.7995 1295.5712,-806.8886 1297.7994,-808.0224 1299.7603,-809.1977 1301.4513,-810.4114 1302.8713,-811.6601 1304.0206,-812.9403 1304.9007,-814.2487 1305.5146,-815.5815 1305.8663,-816.9352 1305.9609,-818.306 1305.8047,-819.6901 1305.4048,-821.0839 1304.7693,-822.4834 1303.9069,-823.8848 1302.8271,-825.2843 1301.5399,-826.678 1300.0557,-828.0622 1298.3854,-829.433 1296.54,-830.7867 1294.5308,-832.1195 1292.3689,-833.4279 1290.0655,-834.7081 1287.6317,-835.9568 1285.0783,-837.1705 1282.4159,-838.3458 1279.6546,-839.4796 1276.8042,-840.5687 1273.8741,-841.6101 1270.8729,-842.6011 1267.8088,-843.5388 1264.6896,-844.4208 1261.5224,-845.2445 1258.3135,-846.0078 1255.069,-846.7085 1251.7941,-847.3447 1248.4938,-847.9147 1245.1722,-848.417 1241.8333,-848.85 1238.4804,-849.2127 1235.1166,-849.5041 1231.7447,-849.7233 1228.3671,-849.8698 1224.9863,-849.9432 1221.6043,-849.9432 1218.2234,-849.8698 1214.8459,-849.7233 1211.4739,-849.5041 1208.1102,-849.2127 1204.7573,-848.85 1201.4183,-848.417 1198.0968,-847.9147 1194.7964,-847.3447 1191.5216,-846.7085 1188.277,-846.0078 1185.0682,-845.2445 1181.9009,-844.4208 1178.7817,-843.5388 1175.7177,-842.6011 1172.7165,-841.6101 1169.7863,-840.5687 1166.9359,-839.4796 1164.1747,-838.3458 1161.5123,-837.1705 1158.9589,-835.9568 1156.5251,-834.7081 1154.2217,-833.4279 1152.0598,-832.1195 1150.0505,-830.7867 1148.2051,-829.433 1146.5348,-828.0622 1145.0507,-826.678 1143.7635,-825.2843 1142.6837,-823.8848 1141.8213,-822.4834 1141.1857,-821.0839 1140.7859,-819.6901 1140.6296,-818.306 1140.7243,-816.9352 1141.0759,-815.5815 1141.6898,-814.2487 1142.57,-812.9403 1143.7192,-811.6601 1145.1392,-810.4114 1146.8302,-809.1977 1148.7911,-808.0224 1151.0194,-806.8886 1153.5111,-805.7995 1156.261,-804.758 1159.2623,-803.7671 1162.5066,-802.8294 1165.9844,-801.9474 1169.6846,-801.1237 1173.595,-800.3604 1177.7019,-799.6597 1181.9906,-799.0235 1186.445,-798.4535 1191.0484,-797.9512 1195.7827,-797.5182 1200.6293,-797.1554 1205.5687,-796.8641 1210.581,-796.6448 1215.6457,-796.4984 1220.7419,-796.425 1225.8486,-796.425 1230.9449,-796.4984"/>
<text text-anchor="middle" x="1223.2953" y="-826.9841" font-family="Times,serif" font-size="14.00" fill="#000000">yakcollective.org</text>
<text text-anchor="middle" x="1223.2953" y="-811.9841" font-family="Times,serif" font-size="14.00" fill="#000000">@gmail.com</text>
</a>
</g>
</g>
<!-- facebook -->
<g id="node19" class="node">
<title>facebook</title>
<g id="a_node19"><a xlink:href="https://github.com/tilnow/tilnow.github.io/edit/master/facebook.md" xlink:title="Facebook">
<polygon fill="none" stroke="#00ff00" points="1078.6924,-805.2334 1081.6036,-805.332 1084.4848,-805.4794 1087.3241,-805.6754 1090.11,-805.9194 1092.8313,-806.2107 1095.4774,-806.5486 1098.0379,-806.932 1100.5031,-807.36 1102.8638,-807.8313 1105.1116,-808.3447 1107.2385,-808.8988 1109.2376,-809.4921 1111.1025,-810.1229 1112.8277,-810.7895 1114.4083,-811.49 1115.8406,-812.2226 1117.1215,-812.9853 1118.2486,-813.7759 1119.2207,-814.5923 1120.0369,-815.4322 1120.6975,-816.2934 1121.2034,-817.1735 1121.5563,-818.0701 1121.7585,-818.9806 1121.8129,-819.9027 1121.7231,-820.8338 1121.4932,-821.7713 1121.1279,-822.7127 1120.6322,-823.6554 1120.0115,-824.5968 1119.2716,-825.5344 1118.4184,-826.4655 1117.4583,-827.3875 1116.3976,-828.2981 1115.2426,-829.1947 1113.9999,-830.0748 1112.6759,-830.9359 1111.2769,-831.7759 1109.8092,-832.5923 1108.2788,-833.3829 1106.6916,-834.1456 1105.0531,-834.8782 1103.3688,-835.5787 1101.6437,-836.2453 1099.8824,-836.8761 1098.0894,-837.4693 1096.2688,-838.0234 1094.4243,-838.5369 1092.5593,-839.0082 1090.6769,-839.4362 1088.7798,-839.8196 1086.8705,-840.1575 1084.9512,-840.4488 1083.0239,-840.6927 1081.0904,-840.8887 1079.1521,-841.0362 1077.2107,-841.1348 1075.2673,-841.1841 1073.3233,-841.1841 1071.3799,-841.1348 1069.4384,-841.0362 1067.5002,-840.8887 1065.5666,-840.6927 1063.6393,-840.4488 1061.72,-840.1575 1059.8108,-839.8196 1057.9136,-839.4362 1056.0312,-839.0082 1054.1662,-838.5369 1052.3217,-838.0234 1050.5011,-837.4693 1048.7081,-836.8761 1046.9469,-836.2453 1045.2217,-835.5787 1043.5374,-834.8782 1041.899,-834.1456 1040.3118,-833.3829 1038.7814,-832.5923 1037.3136,-831.7759 1035.9147,-830.9359 1034.5906,-830.0748 1033.3479,-829.1947 1032.193,-828.2981 1031.1322,-827.3875 1030.1721,-826.4655 1029.319,-825.5344 1028.5791,-824.5968 1027.9584,-823.6554 1027.4627,-822.7127 1027.0974,-821.7713 1026.8675,-820.8338 1026.7777,-819.9027 1026.8321,-818.9806 1027.0342,-818.0701 1027.3871,-817.1735 1027.893,-816.2934 1028.5537,-815.4322 1029.3699,-814.5923 1030.3419,-813.7759 1031.469,-812.9853 1032.7499,-812.2226 1034.1822,-811.49 1035.7629,-810.7895 1037.488,-810.1229 1039.3529,-809.4921 1041.352,-808.8988 1043.479,-808.3447 1045.7267,-807.8313 1048.0875,-807.36 1050.5526,-806.932 1053.1131,-806.5486 1055.7592,-806.2107 1058.4806,-805.9194 1061.2665,-805.6754 1064.1058,-805.4794 1066.9869,-805.332 1069.8982,-805.2334 1072.8275,-805.1841 1075.763,-805.1841 1078.6924,-805.2334"/>
<text text-anchor="middle" x="1074.2953" y="-819.4841" font-family="Times,serif" font-size="14.00" fill="#000000">Facebook</text>
</a>
</g>
</g>
<!-- linkedin -->
<g id="node20" class="node">
<title>linkedin</title>
<g id="a_node20"><a xlink:href="https://github.com/tilnow/tilnow.github.io/edit/master/linkedin.md" xlink:title="Linkedin">
<polygon fill="none" stroke="#00ff00" points="967.4575,-805.2334 970.2132,-805.332 972.9405,-805.4794 975.6281,-805.6754 978.2651,-805.9194 980.8411,-806.2107 983.3458,-806.5486 985.7696,-806.932 988.1031,-807.36 990.3377,-807.8313 992.4654,-808.3447 994.4787,-808.8988 996.371,-809.4921 998.1363,-810.1229 999.7693,-810.7895 1001.2655,-811.49 1002.6213,-812.2226 1003.8337,-812.9853 1004.9007,-813.7759 1005.8207,-814.5923 1006.5934,-815.4322 1007.2187,-816.2934 1007.6976,-817.1735 1008.0316,-818.0701 1008.223,-818.9806 1008.2745,-819.9027 1008.1895,-820.8338 1007.9719,-821.7713 1007.6261,-822.7127 1007.1568,-823.6554 1006.5693,-824.5968 1005.8689,-825.5344 1005.0614,-826.4655 1004.1526,-827.3875 1003.1485,-828.2981 1002.0552,-829.1947 1000.8789,-830.0748 999.6256,-830.9359 998.3013,-831.7759 996.912,-832.5923 995.4634,-833.3829 993.9609,-834.1456 992.41,-834.8782 990.8157,-835.5787 989.1827,-836.2453 987.5155,-836.8761 985.8184,-837.4693 984.095,-838.0234 982.349,-838.5369 980.5837,-839.0082 978.8018,-839.4362 977.006,-839.8196 975.1987,-840.1575 973.382,-840.4488 971.5576,-840.6927 969.7274,-840.8887 967.8927,-841.0362 966.0549,-841.1348 964.2154,-841.1841 962.3752,-841.1841 960.5356,-841.1348 958.6979,-841.0362 956.8632,-840.8887 955.0329,-840.6927 953.2086,-840.4488 951.3918,-840.1575 949.5845,-839.8196 947.7888,-839.4362 946.0069,-839.0082 944.2415,-838.5369 942.4955,-838.0234 940.7722,-837.4693 939.075,-836.8761 937.4078,-836.2453 935.7749,-835.5787 934.1805,-834.8782 932.6296,-834.1456 931.1272,-833.3829 929.6785,-832.5923 928.2892,-831.7759 926.965,-830.9359 925.7117,-830.0748 924.5353,-829.1947 923.4421,-828.2981 922.438,-827.3875 921.5292,-826.4655 920.7216,-825.5344 920.0212,-824.5968 919.4337,-823.6554 918.9645,-822.7127 918.6187,-821.7713 918.4011,-820.8338 918.3161,-819.9027 918.3676,-818.9806 918.5589,-818.0701 918.8929,-817.1735 919.3718,-816.2934 919.9972,-815.4322 920.7698,-814.5923 921.6899,-813.7759 922.7568,-812.9853 923.9693,-812.2226 925.325,-811.49 926.8213,-810.7895 928.4543,-810.1229 930.2195,-809.4921 932.1118,-808.8988 934.1252,-808.3447 936.2529,-807.8313 938.4875,-807.36 940.821,-806.932 943.2447,-806.5486 945.7494,-806.2107 948.3254,-805.9194 950.9625,-805.6754 953.6501,-805.4794 956.3773,-805.332 959.1331,-805.2334 961.906,-805.1841 964.6846,-805.1841 967.4575,-805.2334"/>
<text text-anchor="middle" x="963.2953" y="-819.4841" font-family="Times,serif" font-size="14.00" fill="#000000">Linkedin</text>
</a>
</g>
</g>
<!-- knack -->
<g id="node21" class="node">
<title>knack</title>
<g id="a_node21"><a xlink:href="https://github.com/tilnow/tilnow.github.io/edit/master/knack.md" xlink:title="Knack">
<ellipse fill="none" stroke="#00ff00" cx="1558.2953" cy="-823.1841" rx="33.6165" ry="33.6165"/>
<ellipse fill="none" stroke="#00ff00" cx="1558.2953" cy="-823.1841" rx="37.5951" ry="37.5951"/>
<text text-anchor="middle" x="1558.2953" y="-819.4841" font-family="Times,serif" font-size="14.00" fill="#000000">Knack</text>
</a>
</g>
</g>
<!-- roam -->
<g id="node22" class="node">
<title>roam</title>
<g id="a_node22"><a xlink:href="https://github.com/tilnow/tilnow.github.io/edit/master/roam.md" xlink:title="Roam">
<ellipse fill="none" stroke="#00ff00" cx="1466.2953" cy="-823.1841" rx="32.4945" ry="32.4945"/>
<ellipse fill="none" stroke="#00ff00" cx="1466.2953" cy="-823.1841" rx="36.4942" ry="36.4942"/>
<text text-anchor="middle" x="1466.2953" y="-819.4841" font-family="Times,serif" font-size="14.00" fill="#000000">Roam</text>
</a>
</g>
</g>
<!-- yak_scraper -->
<g id="node23" class="node">
<title>yak_scraper</title>
<g id="a_node23"><a xlink:href="https://github.com/tilnow/tilnow.github.io/edit/master/yak_scraper.md" xlink:title="yak_scraper">
<polygon fill="none" stroke="#0000ff" points="1412.2953,-841.1841 1330.2953,-841.1841 1330.2953,-805.1841 1412.2953,-805.1841 1412.2953,-841.1841"/>
<text text-anchor="middle" x="1371.2953" y="-819.4841" font-family="Times,serif" font-size="14.00" fill="#000000">yak_scraper</text>
</a>
</g>
</g>
<!-- substack -->
<g id="node24" class="node">
<title>substack</title>
<g id="a_node24"><a xlink:href="https://github.com/tilnow/tilnow.github.io/edit/master/substack.md" xlink:title="Substack">
<polygon fill="none" stroke="#00ff00" points="217.2953,-846.1841 132.8103,-811.6841 301.7803,-811.6841 217.2953,-846.1841"/>
<text text-anchor="middle" x="217.2953" y="-819.4841" font-family="Times,serif" font-size="14.00" fill="#000000">Substack</text>
</a>
</g>
</g>
<!-- substack&#45;&gt;netlifyrt -->
<g id="edge3" class="edge">
<title>substack&#45;&gt;netlifyrt</title>
<g id="a_edge3"><a xlink:href="https://github.com/tilnow/tilnow.github.io/edit/master/usercont.md" xlink:title="member&#45;generated\nweb&#45;content">
<path fill="none" stroke="#ff0000" d="M220.7718,-811.6556C226.7659,-792.1194 239.7156,-751.3666 253.2953,-717.8888 264.5962,-690.0289 279.2005,-659.3082 290.5196,-636.4195"/>
<polygon fill="#ff0000" stroke="#ff0000" points="293.67,-637.9446 294.9938,-627.4327 287.4037,-634.8247 293.67,-637.9446"/>
</a>
</g>
<g id="a_edge3&#45;label"><a xlink:href="https://github.com/tilnow/tilnow.github.io/edit/master/usercont.md" xlink:title="member&#45;generated\nweb&#45;content">
<text text-anchor="middle" x="304.7953" y="-736.6888" font-family="Times,serif" font-size="14.00" fill="#000000">member&#45;generated</text>
<text text-anchor="middle" x="304.7953" y="-721.6888" font-family="Times,serif" font-size="14.00" fill="#000000">web&#45;content</text>
</a>
</g>
</g>
<!-- blogs -->
<g id="node25" class="node">
<title>blogs</title>
<g id="a_node25"><a xlink:href="https://github.com/tilnow/tilnow.github.io/edit/master/blogs.md" xlink:title="member\nblogs">
<polygon fill="none" stroke="#00ff00" points="407.2953,-877.1654 319.4324,-796.1934 495.1581,-796.1934 407.2953,-877.1654"/>
<text text-anchor="middle" x="407.2953" y="-826.9841" font-family="Times,serif" font-size="14.00" fill="#000000">member</text>
<text text-anchor="middle" x="407.2953" y="-811.9841" font-family="Times,serif" font-size="14.00" fill="#000000">blogs</text>
</a>
</g>
</g>
<!-- blogs&#45;&gt;netlifyrt -->
<g id="edge4" class="edge">
<title>blogs&#45;&gt;netlifyrt</title>
<g id="a_edge4"><a xlink:href="https://github.com/tilnow/tilnow.github.io/edit/master/usercont.md" xlink:title="member&#45;generated\nweb&#45;content">
<path fill="none" stroke="#ff0000" d="M395.1559,-795.9946C377.2616,-755.9152 343.794,-680.9549 324.0351,-636.6991"/>
<polygon fill="#ff0000" stroke="#ff0000" points="327.1914,-635.1834 319.9186,-627.479 320.7995,-638.0372 327.1914,-635.1834"/>
</a>
</g>
<g id="a_edge4&#45;label"><a xlink:href="https://github.com/tilnow/tilnow.github.io/edit/master/usercont.md" xlink:title="member&#45;generated\nweb&#45;content">
<text text-anchor="middle" x="423.7953" y="-736.6888" font-family="Times,serif" font-size="14.00" fill="#000000">member&#45;generated</text>
<text text-anchor="middle" x="423.7953" y="-721.6888" font-family="Times,serif" font-size="14.00" fill="#000000">web&#45;content</text>
</a>
</g>
</g>
<!-- websites -->
<g id="node26" class="node">
<title>websites</title>
<g id="a_node26"><a xlink:href="https://github.com/tilnow/tilnow.github.io/edit/master/websites.md" xlink:title="member\nwebsites">
<polygon fill="none" stroke="#00ff00" points="602.2953,-877.1654 513.1043,-796.1934 691.4863,-796.1934 602.2953,-877.1654"/>
<text text-anchor="middle" x="602.2953" y="-826.9841" font-family="Times,serif" font-size="14.00" fill="#000000">member</text>
<text text-anchor="middle" x="602.2953" y="-811.9841" font-family="Times,serif" font-size="14.00" fill="#000000">websites</text>
</a>
</g>
</g>
<!-- websites&#45;&gt;netlifyrt -->
<g id="edge5" class="edge">
<title>websites&#45;&gt;netlifyrt</title>
<g id="a_edge5"><a xlink:href="https://github.com/tilnow/tilnow.github.io/edit/master/usercont.md" xlink:title="member&#45;generated\nweb&#45;content">
<path fill="none" stroke="#ff0000" d="M579.4903,-796.0312C556.85,-771.126 519.7546,-735.5168 479.2953,-717.8888 450.5881,-705.3812 437.2509,-723.9965 409.2953,-709.8888 376.0102,-693.0916 348.0445,-660.5621 330.0416,-635.4938"/>
<polygon fill="#ff0000" stroke="#ff0000" points="332.6902,-633.1732 324.0969,-626.976 326.95,-637.1795 332.6902,-633.1732"/>
</a>
</g>
<g id="a_edge5&#45;label"><a xlink:href="https://github.com/tilnow/tilnow.github.io/edit/master/usercont.md" xlink:title="member&#45;generated\nweb&#45;content">
<text text-anchor="middle" x="578.7953" y="-736.6888" font-family="Times,serif" font-size="14.00" fill="#000000">member&#45;generated</text>
<text text-anchor="middle" x="578.7953" y="-721.6888" font-family="Times,serif" font-size="14.00" fill="#000000">web&#45;content</text>
</a>
</g>
</g>
</g>
</svg>
